<svg width="1440" height="72" viewBox="0 0 1440 72" fill="none" xmlns="http://www.w3.org/2000/svg">
<rect width="1440" height="72" fill="#0B2239"/>
<path d="M121.145 31H124.561C126.795 31 127.719 29.9105 127.719 28.4886C127.719 26.9929 126.685 26.1804 125.817 26.125V26.0327C126.629 25.8111 127.349 25.2756 127.349 24.0568C127.349 22.6719 126.426 21.5455 124.45 21.5455H121.145V31ZM122.29 29.9844V26.6974H124.616C125.854 26.6974 126.629 27.5284 126.629 28.4886C126.629 29.3196 126.057 29.9844 124.561 29.9844H122.29ZM122.29 25.7003V22.5611H124.45C125.706 22.5611 126.26 23.2259 126.26 24.0568C126.26 25.054 125.447 25.7003 124.413 25.7003H122.29ZM130.154 33.6591C131.137 33.6591 131.83 33.1374 132.241 32.0341L135.26 23.9276L134.069 23.9091L132.111 29.5597H132.037L130.08 23.9091H128.898L131.52 31.0369L131.317 31.5909C130.92 32.6712 130.431 32.7727 129.637 32.5696L129.36 33.5298C129.471 33.5852 129.785 33.6591 130.154 33.6591ZM143.238 31.1477C144.808 31.1477 145.842 30.1875 146.027 28.9318H144.937C144.734 29.7074 144.088 30.169 143.238 30.169C141.946 30.169 141.115 29.098 141.115 27.4545C141.115 25.848 141.964 24.7955 143.238 24.7955C144.198 24.7955 144.771 25.3864 144.937 26.0327H146.027C145.842 24.7031 144.715 23.8168 143.22 23.8168C141.299 23.8168 140.025 25.331 140.025 27.4915C140.025 29.6151 141.244 31.1477 143.238 31.1477ZM148.709 21.5455H147.619V31H148.709V21.5455ZM150.704 31H151.794V23.9091H150.704V31ZM151.258 22.7273C151.683 22.7273 152.034 22.3949 152.034 21.9886C152.034 21.5824 151.683 21.25 151.258 21.25C150.833 21.25 150.483 21.5824 150.483 21.9886C150.483 22.3949 150.833 22.7273 151.258 22.7273ZM156.67 31.1477C158.239 31.1477 159.274 30.1875 159.458 28.9318H158.369C158.166 29.7074 157.519 30.169 156.67 30.169C155.377 30.169 154.546 29.098 154.546 27.4545C154.546 25.848 155.396 24.7955 156.67 24.7955C157.63 24.7955 158.203 25.3864 158.369 26.0327H159.458C159.274 24.7031 158.147 23.8168 156.651 23.8168C154.731 23.8168 153.457 25.331 153.457 27.4915C153.457 29.6151 154.676 31.1477 156.67 31.1477ZM161.051 31H162.14V28.3455L162.902 27.6392L165.557 31H166.941L163.724 26.9375L166.72 23.9091H165.372L162.27 27.0668H162.14V21.5455H161.051V31ZM168.122 31H169.212V23.9091H168.122V31ZM168.676 22.7273C169.101 22.7273 169.452 22.3949 169.452 21.9886C169.452 21.5824 169.101 21.25 168.676 21.25C168.251 21.25 167.901 21.5824 167.901 21.9886C167.901 22.3949 168.251 22.7273 168.676 22.7273ZM172.297 26.7344C172.297 25.4972 173.063 24.7955 174.106 24.7955C175.117 24.7955 175.731 25.4556 175.731 26.5682V31H176.821V26.4943C176.821 24.6847 175.856 23.8168 174.42 23.8168C173.349 23.8168 172.684 24.2969 172.352 25.017H172.26V23.9091H171.207V31H172.297V26.7344ZM181.674 33.8068C183.373 33.8068 184.739 33.0312 184.739 31.2031V23.9091H183.687V25.0355H183.576C183.336 24.6662 182.893 23.8168 181.508 23.8168C179.716 23.8168 178.479 25.2386 178.479 27.4176C178.479 29.6335 179.772 30.8892 181.489 30.8892C182.874 30.8892 183.317 30.0767 183.557 29.6889H183.65V31.1293C183.65 32.3111 182.819 32.8466 181.674 32.8466C180.386 32.8466 179.933 32.168 179.643 31.7756L178.775 32.3849C179.218 33.1282 180.09 33.8068 181.674 33.8068ZM181.637 29.9105C180.27 29.9105 179.569 28.8764 179.569 27.3991C179.569 25.9588 180.252 24.7955 181.637 24.7955C182.966 24.7955 183.668 25.8665 183.668 27.3991C183.668 28.9688 182.948 29.9105 181.637 29.9105ZM190.02 24.5H191.055V23.6506C191.055 22.9673 191.387 22.3764 191.775 21.8224L191.184 21.3423C190.445 21.9332 190.02 22.9119 190.02 23.669V24.5ZM192.384 24.5H193.418V23.6506C193.418 22.9673 193.751 22.3764 194.138 21.8224L193.547 21.3423C192.809 21.9332 192.384 22.9119 192.384 23.669V24.5ZM194.62 31L195.571 28.3224H199.393L200.344 31H201.544L198.073 21.5455H196.891L193.419 31H194.62ZM195.931 27.3068L197.445 23.0412H197.519L199.033 27.3068H195.931ZM205.75 31.1477C207.32 31.1477 208.354 30.1875 208.538 28.9318H207.449C207.246 29.7074 206.599 30.169 205.75 30.169C204.457 30.169 203.626 29.098 203.626 27.4545C203.626 25.848 204.476 24.7955 205.75 24.7955C206.71 24.7955 207.283 25.3864 207.449 26.0327H208.538C208.354 24.7031 207.227 23.8168 205.731 23.8168C203.811 23.8168 202.537 25.331 202.537 27.4915C202.537 29.6151 203.756 31.1477 205.75 31.1477ZM213.012 31.1477C214.581 31.1477 215.615 30.1875 215.8 28.9318H214.71C214.507 29.7074 213.861 30.169 213.012 30.169C211.719 30.169 210.888 29.098 210.888 27.4545C210.888 25.848 211.737 24.7955 213.012 24.7955C213.972 24.7955 214.544 25.3864 214.71 26.0327H215.8C215.615 24.7031 214.489 23.8168 212.993 23.8168C211.073 23.8168 209.799 25.331 209.799 27.4915C209.799 29.6151 211.017 31.1477 213.012 31.1477ZM220.366 31.1477C221.806 31.1477 222.859 30.4276 223.191 29.3565L222.138 29.0611C221.861 29.7997 221.22 30.169 220.366 30.169C219.087 30.169 218.205 29.3427 218.154 27.8239H223.302V27.3622C223.302 24.7216 221.732 23.8168 220.255 23.8168C218.334 23.8168 217.06 25.331 217.06 27.5099C217.06 29.6889 218.316 31.1477 220.366 31.1477ZM218.154 26.8821C218.228 25.7788 219.008 24.7955 220.255 24.7955C221.437 24.7955 222.194 25.6818 222.194 26.8821H218.154ZM224.959 33.6591H226.049V29.9105H226.141C226.381 30.2983 226.843 31.1477 228.209 31.1477C229.982 31.1477 231.219 29.7259 231.219 27.473C231.219 25.2386 229.982 23.8168 228.191 23.8168C226.806 23.8168 226.381 24.6662 226.141 25.0355H226.012V23.9091H224.959V33.6591ZM226.03 27.4545C226.03 25.8665 226.732 24.7955 228.061 24.7955C229.446 24.7955 230.13 25.9588 230.13 27.4545C230.13 28.9688 229.428 30.169 228.061 30.169C226.75 30.169 226.03 29.0611 226.03 27.4545ZM235.965 23.9091H234.451V22.2102H233.361V23.9091H232.29V24.8324H233.361V29.2642C233.361 30.5014 234.358 31.0923 235.282 31.0923C235.688 31.0923 235.946 31.0185 236.094 30.9631L235.872 29.9844C235.78 30.0028 235.632 30.0398 235.392 30.0398C234.912 30.0398 234.451 29.892 234.451 28.9688V24.8324H235.965V23.9091ZM241.795 31L242.746 28.3224H246.569L247.52 31H248.72L245.248 21.5455H244.067L240.595 31H241.795ZM243.106 27.3068L244.621 23.0412H244.695L246.209 27.3068H243.106ZM251.134 21.5455H250.045V31H251.134V21.5455ZM254.219 21.5455H253.13V31H254.219V21.5455ZM267.627 24.5C267.276 22.5611 265.725 21.4162 263.823 21.4162C261.404 21.4162 259.65 23.2812 259.65 26.2727C259.65 29.2642 261.404 31.1293 263.823 31.1293C265.725 31.1293 267.276 29.9844 267.627 28.0455H266.482C266.205 29.3565 265.079 30.0582 263.823 30.0582C262.106 30.0582 260.758 28.7287 260.758 26.2727C260.758 23.8168 262.106 22.4872 263.823 22.4872C265.079 22.4872 266.205 23.1889 266.482 24.5H267.627ZM272.21 31.1477C274.13 31.1477 275.423 29.6889 275.423 27.4915C275.423 25.2756 274.13 23.8168 272.21 23.8168C270.289 23.8168 268.997 25.2756 268.997 27.4915C268.997 29.6889 270.289 31.1477 272.21 31.1477ZM272.21 30.169C270.751 30.169 270.086 28.9134 270.086 27.4915C270.086 26.0696 270.751 24.7955 272.21 24.7955C273.669 24.7955 274.333 26.0696 274.333 27.4915C274.333 28.9134 273.669 30.169 272.21 30.169ZM279.967 31.1477C281.887 31.1477 283.18 29.6889 283.18 27.4915C283.18 25.2756 281.887 23.8168 279.967 23.8168C278.046 23.8168 276.754 25.2756 276.754 27.4915C276.754 29.6889 278.046 31.1477 279.967 31.1477ZM279.967 30.169C278.508 30.169 277.843 28.9134 277.843 27.4915C277.843 26.0696 278.508 24.7955 279.967 24.7955C281.426 24.7955 282.09 26.0696 282.09 27.4915C282.09 28.9134 281.426 30.169 279.967 30.169ZM284.843 31H285.932V28.3455L286.694 27.6392L289.349 31H290.733L287.516 26.9375L290.512 23.9091H289.164L286.062 27.0668H285.932V21.5455H284.843V31ZM291.914 31H293.004V23.9091H291.914V31ZM292.468 22.7273C292.893 22.7273 293.244 22.3949 293.244 21.9886C293.244 21.5824 292.893 21.25 292.468 21.25C292.043 21.25 291.693 21.5824 291.693 21.9886C291.693 22.3949 292.043 22.7273 292.468 22.7273ZM297.972 31.1477C299.412 31.1477 300.465 30.4276 300.797 29.3565L299.745 29.0611C299.468 29.7997 298.826 30.169 297.972 30.169C296.693 30.169 295.812 29.3427 295.761 27.8239H300.908V27.3622C300.908 24.7216 299.339 23.8168 297.861 23.8168C295.941 23.8168 294.667 25.331 294.667 27.5099C294.667 29.6889 295.922 31.1477 297.972 31.1477ZM295.761 26.8821C295.835 25.7788 296.615 24.7955 297.861 24.7955C299.043 24.7955 299.8 25.6818 299.8 26.8821H295.761ZM307.588 25.4972C307.247 24.4908 306.48 23.8168 305.077 23.8168C303.581 23.8168 302.473 24.6662 302.473 25.8665C302.473 26.8452 303.055 27.5007 304.357 27.8054L305.539 28.0824C306.254 28.2486 306.591 28.5902 306.591 29.0795C306.591 29.6889 305.945 30.1875 304.929 30.1875C304.038 30.1875 303.48 29.8043 303.286 29.0426L302.252 29.3011C302.506 30.506 303.498 31.1477 304.948 31.1477C306.596 31.1477 307.718 30.2475 307.718 29.0241C307.718 28.0362 307.099 27.413 305.834 27.1037L304.781 26.8452C303.941 26.6374 303.563 26.3558 303.563 25.8111C303.563 25.2017 304.209 24.7585 305.077 24.7585C306.028 24.7585 306.42 25.2848 306.61 25.7741L307.588 25.4972ZM310.318 21.5455H309.284V22.3949C309.284 23.0781 308.951 23.669 308.563 24.223L309.154 24.7031C309.893 24.1122 310.318 23.1335 310.318 22.3764V21.5455ZM312.681 21.5455H311.647V22.3949C311.647 23.0781 311.315 23.669 310.927 24.223L311.518 24.7031C312.257 24.1122 312.681 23.1335 312.681 22.3764V21.5455ZM313.42 29.7074H312.238L312.183 30.2244C312.049 31.4755 311.786 32.7219 311.666 33.3082H312.497C312.718 32.6804 313.189 31.2585 313.346 30.206L313.42 29.7074ZM319.797 33.6591C320.78 33.6591 321.472 33.1374 321.883 32.0341L324.902 23.9276L323.711 23.9091L321.754 29.5597H321.68L319.723 23.9091H318.541L321.163 31.0369L320.96 31.5909C320.563 32.6712 320.074 32.7727 319.279 32.5696L319.002 33.5298C319.113 33.5852 319.427 33.6591 319.797 33.6591ZM328.971 31.1477C330.891 31.1477 332.184 29.6889 332.184 27.4915C332.184 25.2756 330.891 23.8168 328.971 23.8168C327.05 23.8168 325.758 25.2756 325.758 27.4915C325.758 29.6889 327.05 31.1477 328.971 31.1477ZM328.971 30.169C327.512 30.169 326.847 28.9134 326.847 27.4915C326.847 26.0696 327.512 24.7955 328.971 24.7955C330.429 24.7955 331.094 26.0696 331.094 27.4915C331.094 28.9134 330.429 30.169 328.971 30.169ZM338.316 28.1009C338.316 29.4304 337.3 30.0398 336.487 30.0398C335.583 30.0398 334.936 29.375 334.936 28.3409V23.9091H333.847V28.4148C333.847 30.2244 334.807 31.0923 336.137 31.0923C337.208 31.0923 337.909 30.5199 338.242 29.7997H338.316V31H339.405V23.9091H338.316V28.1009ZM347.143 31.1662C348.381 31.1662 349.027 30.5014 349.248 30.0398H349.304V31H350.393V26.3281C350.393 24.0753 348.676 23.8168 347.771 23.8168C346.7 23.8168 345.481 24.1861 344.927 25.4787L345.962 25.848C346.202 25.331 346.769 24.777 347.808 24.777C348.81 24.777 349.304 25.3079 349.304 26.2173V26.2543C349.304 26.7805 348.768 26.7344 347.476 26.9006C346.16 27.0714 344.724 27.3622 344.724 28.9872C344.724 30.3722 345.795 31.1662 347.143 31.1662ZM347.31 30.1875C346.442 30.1875 345.814 29.7997 345.814 29.0426C345.814 28.2116 346.571 27.9531 347.42 27.8423C347.882 27.7869 349.119 27.6577 349.304 27.4361V28.4332C349.304 29.3196 348.602 30.1875 347.31 30.1875ZM355.244 33.8068C356.943 33.8068 358.309 33.0312 358.309 31.2031V23.9091H357.257V25.0355H357.146C356.906 24.6662 356.463 23.8168 355.078 23.8168C353.287 23.8168 352.05 25.2386 352.05 27.4176C352.05 29.6335 353.342 30.8892 355.059 30.8892C356.444 30.8892 356.888 30.0767 357.128 29.6889H357.22V31.1293C357.22 32.3111 356.389 32.8466 355.244 32.8466C353.956 32.8466 353.504 32.168 353.213 31.7756L352.345 32.3849C352.788 33.1282 353.661 33.8068 355.244 33.8068ZM355.207 29.9105C353.841 29.9105 353.139 28.8764 353.139 27.3991C353.139 25.9588 353.822 24.7955 355.207 24.7955C356.537 24.7955 357.238 25.8665 357.238 27.3991C357.238 28.9688 356.518 29.9105 355.207 29.9105ZM360.304 31H361.393V26.5128C361.393 25.5526 362.15 24.8509 363.184 24.8509C363.475 24.8509 363.775 24.9062 363.849 24.9247V23.8168C363.725 23.8075 363.438 23.7983 363.277 23.7983C362.427 23.7983 361.689 24.2784 361.43 24.9801H361.356V23.9091H360.304V31ZM367.898 31.1477C369.338 31.1477 370.391 30.4276 370.723 29.3565L369.671 29.0611C369.394 29.7997 368.752 30.169 367.898 30.169C366.619 30.169 365.737 29.3427 365.687 27.8239H370.834V27.3622C370.834 24.7216 369.264 23.8168 367.787 23.8168C365.867 23.8168 364.593 25.331 364.593 27.5099C364.593 29.6889 365.848 31.1477 367.898 31.1477ZM365.687 26.8821C365.76 25.7788 366.541 24.7955 367.787 24.7955C368.969 24.7955 369.726 25.6818 369.726 26.8821H365.687ZM375.464 31.1477C376.905 31.1477 377.957 30.4276 378.29 29.3565L377.237 29.0611C376.96 29.7997 376.318 30.169 375.464 30.169C374.186 30.169 373.304 29.3427 373.253 27.8239H378.4V27.3622C378.4 24.7216 376.831 23.8168 375.354 23.8168C373.433 23.8168 372.159 25.331 372.159 27.5099C372.159 29.6889 373.415 31.1477 375.464 31.1477ZM373.253 26.8821C373.327 25.7788 374.107 24.7955 375.354 24.7955C376.535 24.7955 377.292 25.6818 377.292 26.8821H373.253ZM386.798 23.9091H385.284V22.2102H384.194V23.9091H383.123V24.8324H384.194V29.2642C384.194 30.5014 385.191 31.0923 386.115 31.0923C386.521 31.0923 386.779 31.0185 386.927 30.9631L386.705 29.9844C386.613 30.0028 386.465 30.0398 386.225 30.0398C385.745 30.0398 385.284 29.892 385.284 28.9688V24.8324H386.798V23.9091ZM391.241 31.1477C393.162 31.1477 394.454 29.6889 394.454 27.4915C394.454 25.2756 393.162 23.8168 391.241 23.8168C389.321 23.8168 388.028 25.2756 388.028 27.4915C388.028 29.6889 389.321 31.1477 391.241 31.1477ZM391.241 30.169C389.782 30.169 389.118 28.9134 389.118 27.4915C389.118 26.0696 389.782 24.7955 391.241 24.7955C392.7 24.7955 393.365 26.0696 393.365 27.4915C393.365 28.9134 392.7 30.169 391.241 30.169ZM402.857 23.9091H401.343V22.2102H400.254V23.9091H399.183V24.8324H400.254V29.2642C400.254 30.5014 401.251 31.0923 402.174 31.0923C402.58 31.0923 402.839 31.0185 402.987 30.9631L402.765 29.9844C402.673 30.0028 402.525 30.0398 402.285 30.0398C401.805 30.0398 401.343 29.892 401.343 28.9688V24.8324H402.857V23.9091ZM405.738 26.7344C405.738 25.4972 406.527 24.7955 407.603 24.7955C408.628 24.7955 409.247 25.4418 409.247 26.5682V31H410.336V26.4943C410.336 24.6708 409.367 23.8168 407.917 23.8168C406.8 23.8168 406.163 24.283 405.83 25.017H405.738V21.5455H404.649V31H405.738V26.7344ZM415.302 31.1477C416.743 31.1477 417.795 30.4276 418.127 29.3565L417.075 29.0611C416.798 29.7997 416.156 30.169 415.302 30.169C414.023 30.169 413.142 29.3427 413.091 27.8239H418.238V27.3622C418.238 24.7216 416.669 23.8168 415.191 23.8168C413.271 23.8168 411.997 25.331 411.997 27.5099C411.997 29.6889 413.252 31.1477 415.302 31.1477ZM413.091 26.8821C413.165 25.7788 413.945 24.7955 415.191 24.7955C416.373 24.7955 417.13 25.6818 417.13 26.8821H413.091ZM428.575 25.4972C428.233 24.4908 427.467 23.8168 426.063 23.8168C424.567 23.8168 423.46 24.6662 423.46 25.8665C423.46 26.8452 424.041 27.5007 425.343 27.8054L426.525 28.0824C427.24 28.2486 427.577 28.5902 427.577 29.0795C427.577 29.6889 426.931 30.1875 425.915 30.1875C425.025 30.1875 424.466 29.8043 424.272 29.0426L423.238 29.3011C423.492 30.506 424.484 31.1477 425.934 31.1477C427.582 31.1477 428.704 30.2475 428.704 29.0241C428.704 28.0362 428.085 27.413 426.82 27.1037L425.768 26.8452C424.928 26.6374 424.549 26.3558 424.549 25.8111C424.549 25.2017 425.195 24.7585 426.063 24.7585C427.014 24.7585 427.407 25.2848 427.596 25.7741L428.575 25.4972ZM433.428 23.9091H431.913V22.2102H430.824V23.9091H429.753V24.8324H430.824V29.2642C430.824 30.5014 431.821 31.0923 432.744 31.0923C433.151 31.0923 433.409 31.0185 433.557 30.9631L433.335 29.9844C433.243 30.0028 433.095 30.0398 432.855 30.0398C432.375 30.0398 431.913 29.892 431.913 28.9688V24.8324H433.428V23.9091ZM437.871 31.1477C439.791 31.1477 441.084 29.6889 441.084 27.4915C441.084 25.2756 439.791 23.8168 437.871 23.8168C435.951 23.8168 434.658 25.2756 434.658 27.4915C434.658 29.6889 435.951 31.1477 437.871 31.1477ZM437.871 30.169C436.412 30.169 435.747 28.9134 435.747 27.4915C435.747 26.0696 436.412 24.7955 437.871 24.7955C439.33 24.7955 439.995 26.0696 439.995 27.4915C439.995 28.9134 439.33 30.169 437.871 30.169ZM442.747 31H443.837V26.5128C443.837 25.5526 444.594 24.8509 445.628 24.8509C445.919 24.8509 446.219 24.9062 446.293 24.9247V23.8168C446.168 23.8075 445.882 23.7983 445.72 23.7983C444.871 23.7983 444.132 24.2784 443.874 24.9801H443.8V23.9091H442.747V31ZM447.584 31H448.674V23.9091H447.584V31ZM448.138 22.7273C448.563 22.7273 448.914 22.3949 448.914 21.9886C448.914 21.5824 448.563 21.25 448.138 21.25C447.713 21.25 447.362 21.5824 447.362 21.9886C447.362 22.3949 447.713 22.7273 448.138 22.7273ZM451.759 26.7344C451.759 25.4972 452.525 24.7955 453.568 24.7955C454.579 24.7955 455.193 25.4556 455.193 26.5682V31H456.283V26.4943C456.283 24.6847 455.318 23.8168 453.882 23.8168C452.811 23.8168 452.146 24.2969 451.814 25.017H451.722V23.9091H450.669V31H451.759V26.7344ZM461.136 33.8068C462.835 33.8068 464.201 33.0312 464.201 31.2031V23.9091H463.149V25.0355H463.038C462.798 24.6662 462.354 23.8168 460.97 23.8168C459.178 23.8168 457.941 25.2386 457.941 27.4176C457.941 29.6335 459.234 30.8892 460.951 30.8892C462.336 30.8892 462.779 30.0767 463.019 29.6889H463.112V31.1293C463.112 32.3111 462.281 32.8466 461.136 32.8466C459.848 32.8466 459.395 32.168 459.104 31.7756L458.237 32.3849C458.68 33.1282 459.552 33.8068 461.136 33.8068ZM461.099 29.9105C459.732 29.9105 459.031 28.8764 459.031 27.3991C459.031 25.9588 459.714 24.7955 461.099 24.7955C462.428 24.7955 463.13 25.8665 463.13 27.3991C463.13 28.9688 462.41 29.9105 461.099 29.9105ZM472.732 31.1477C474.653 31.1477 475.945 29.6889 475.945 27.4915C475.945 25.2756 474.653 23.8168 472.732 23.8168C470.812 23.8168 469.519 25.2756 469.519 27.4915C469.519 29.6889 470.812 31.1477 472.732 31.1477ZM472.732 30.169C471.274 30.169 470.609 28.9134 470.609 27.4915C470.609 26.0696 471.274 24.7955 472.732 24.7955C474.191 24.7955 474.856 26.0696 474.856 27.4915C474.856 28.9134 474.191 30.169 472.732 30.169ZM480.766 23.9091H479.178V23.1889C479.178 22.4872 479.474 22.1179 480.194 22.1179C480.508 22.1179 480.692 22.1918 480.803 22.2287L481.117 21.2869C480.951 21.2131 480.618 21.1023 480.083 21.1023C479.067 21.1023 478.089 21.7116 478.089 22.9304V23.9091H476.944V24.8324H478.089V31H479.178V24.8324H480.766V23.9091ZM488.83 31.1477C490.4 31.1477 491.434 30.1875 491.618 28.9318H490.529C490.326 29.7074 489.679 30.169 488.83 30.169C487.537 30.169 486.706 29.098 486.706 27.4545C486.706 25.848 487.556 24.7955 488.83 24.7955C489.79 24.7955 490.363 25.3864 490.529 26.0327H491.618C491.434 24.7031 490.307 23.8168 488.812 23.8168C486.891 23.8168 485.617 25.331 485.617 27.4915C485.617 29.6151 486.836 31.1477 488.83 31.1477ZM496.092 31.1477C498.012 31.1477 499.305 29.6889 499.305 27.4915C499.305 25.2756 498.012 23.8168 496.092 23.8168C494.171 23.8168 492.879 25.2756 492.879 27.4915C492.879 29.6889 494.171 31.1477 496.092 31.1477ZM496.092 30.169C494.633 30.169 493.968 28.9134 493.968 27.4915C493.968 26.0696 494.633 24.7955 496.092 24.7955C497.551 24.7955 498.215 26.0696 498.215 27.4915C498.215 28.9134 497.551 30.169 496.092 30.169ZM503.849 31.1477C505.769 31.1477 507.062 29.6889 507.062 27.4915C507.062 25.2756 505.769 23.8168 503.849 23.8168C501.928 23.8168 500.635 25.2756 500.635 27.4915C500.635 29.6889 501.928 31.1477 503.849 31.1477ZM503.849 30.169C502.39 30.169 501.725 28.9134 501.725 27.4915C501.725 26.0696 502.39 24.7955 503.849 24.7955C505.307 24.7955 505.972 26.0696 505.972 27.4915C505.972 28.9134 505.307 30.169 503.849 30.169ZM508.725 31H509.814V28.3455L510.576 27.6392L513.23 31H514.615L511.398 26.9375L514.394 23.9091H513.046L509.943 27.0668H509.814V21.5455H508.725V31ZM515.796 31H516.885V23.9091H515.796V31ZM516.35 22.7273C516.775 22.7273 517.126 22.3949 517.126 21.9886C517.126 21.5824 516.775 21.25 516.35 21.25C515.925 21.25 515.574 21.5824 515.574 21.9886C515.574 22.3949 515.925 22.7273 516.35 22.7273ZM521.854 31.1477C523.294 31.1477 524.347 30.4276 524.679 29.3565L523.627 29.0611C523.35 29.7997 522.708 30.169 521.854 30.169C520.575 30.169 519.693 29.3427 519.643 27.8239H524.79V27.3622C524.79 24.7216 523.22 23.8168 521.743 23.8168C519.823 23.8168 518.549 25.331 518.549 27.5099C518.549 29.6889 519.804 31.1477 521.854 31.1477ZM519.643 26.8821C519.717 25.7788 520.497 24.7955 521.743 24.7955C522.925 24.7955 523.682 25.6818 523.682 26.8821H519.643ZM531.47 25.4972C531.128 24.4908 530.362 23.8168 528.959 23.8168C527.463 23.8168 526.355 24.6662 526.355 25.8665C526.355 26.8452 526.937 27.5007 528.239 27.8054L529.42 28.0824C530.136 28.2486 530.473 28.5902 530.473 29.0795C530.473 29.6889 529.827 30.1875 528.811 30.1875C527.92 30.1875 527.361 29.8043 527.168 29.0426L526.133 29.3011C526.387 30.506 527.38 31.1477 528.829 31.1477C530.478 31.1477 531.599 30.2475 531.599 29.0241C531.599 28.0362 530.981 27.413 529.716 27.1037L528.663 26.8452C527.823 26.6374 527.445 26.3558 527.445 25.8111C527.445 25.2017 528.091 24.7585 528.959 24.7585C529.91 24.7585 530.302 25.2848 530.491 25.7741L531.47 25.4972ZM539.776 31.1477C541.697 31.1477 542.989 29.6889 542.989 27.4915C542.989 25.2756 541.697 23.8168 539.776 23.8168C537.856 23.8168 536.563 25.2756 536.563 27.4915C536.563 29.6889 537.856 31.1477 539.776 31.1477ZM539.776 30.169C538.317 30.169 537.653 28.9134 537.653 27.4915C537.653 26.0696 538.317 24.7955 539.776 24.7955C541.235 24.7955 541.9 26.0696 541.9 27.4915C541.9 28.9134 541.235 30.169 539.776 30.169ZM545.742 26.7344C545.742 25.4972 546.508 24.7955 547.552 24.7955C548.563 24.7955 549.177 25.4556 549.177 26.5682V31H550.266V26.4943C550.266 24.6847 549.301 23.8168 547.866 23.8168C546.794 23.8168 546.13 24.2969 545.797 25.017H545.705V23.9091H544.652V31H545.742V26.7344ZM556.615 33.6591C557.598 33.6591 558.291 33.1374 558.702 32.0341L561.721 23.9276L560.53 23.9091L558.572 29.5597H558.498L556.541 23.9091H555.359L557.981 31.0369L557.778 31.5909C557.381 32.6712 556.892 32.7727 556.098 32.5696L555.821 33.5298C555.932 33.5852 556.246 33.6591 556.615 33.6591ZM565.789 31.1477C567.709 31.1477 569.002 29.6889 569.002 27.4915C569.002 25.2756 567.709 23.8168 565.789 23.8168C563.869 23.8168 562.576 25.2756 562.576 27.4915C562.576 29.6889 563.869 31.1477 565.789 31.1477ZM565.789 30.169C564.33 30.169 563.665 28.9134 563.665 27.4915C563.665 26.0696 564.33 24.7955 565.789 24.7955C567.248 24.7955 567.913 26.0696 567.913 27.4915C567.913 28.9134 567.248 30.169 565.789 30.169ZM575.134 28.1009C575.134 29.4304 574.118 30.0398 573.306 30.0398C572.401 30.0398 571.755 29.375 571.755 28.3409V23.9091H570.665V28.4148C570.665 30.2244 571.625 31.0923 572.955 31.0923C574.026 31.0923 574.728 30.5199 575.06 29.7997H575.134V31H576.223V23.9091H575.134V28.1009ZM578.219 31H579.308V26.5128C579.308 25.5526 580.065 24.8509 581.1 24.8509C581.39 24.8509 581.69 24.9062 581.764 24.9247V23.8168C581.64 23.8075 581.353 23.7983 581.192 23.7983C580.342 23.7983 579.604 24.2784 579.345 24.9801H579.271V23.9091H578.219V31ZM589.39 31.1477C590.756 31.1477 591.218 30.2983 591.458 29.9105H591.587V31H592.64V21.5455H591.55V25.0355H591.458C591.218 24.6662 590.793 23.8168 589.408 23.8168C587.617 23.8168 586.38 25.2386 586.38 27.473C586.38 29.7259 587.617 31.1477 589.39 31.1477ZM589.537 30.169C588.171 30.169 587.469 28.9688 587.469 27.4545C587.469 25.9588 588.152 24.7955 589.537 24.7955C590.867 24.7955 591.569 25.8665 591.569 27.4545C591.569 29.0611 590.848 30.169 589.537 30.169ZM597.759 31.1477C599.2 31.1477 600.252 30.4276 600.585 29.3565L599.532 29.0611C599.255 29.7997 598.613 30.169 597.759 30.169C596.48 30.169 595.599 29.3427 595.548 27.8239H600.695V27.3622C600.695 24.7216 599.126 23.8168 597.648 23.8168C595.728 23.8168 594.454 25.331 594.454 27.5099C594.454 29.6889 595.71 31.1477 597.759 31.1477ZM595.548 26.8821C595.622 25.7788 596.402 24.7955 597.648 24.7955C598.83 24.7955 599.587 25.6818 599.587 26.8821H595.548ZM607.935 23.9091H606.753L604.796 29.5597H604.722L602.765 23.9091H601.583L604.205 31H605.313L607.935 23.9091ZM609.373 31H610.463V23.9091H609.373V31ZM609.927 22.7273C610.352 22.7273 610.703 22.3949 610.703 21.9886C610.703 21.5824 610.352 21.25 609.927 21.25C609.502 21.25 609.152 21.5824 609.152 21.9886C609.152 22.3949 609.502 22.7273 609.927 22.7273ZM615.339 31.1477C616.908 31.1477 617.942 30.1875 618.127 28.9318H617.038C616.835 29.7074 616.188 30.169 615.339 30.169C614.046 30.169 613.215 29.098 613.215 27.4545C613.215 25.848 614.065 24.7955 615.339 24.7955C616.299 24.7955 616.871 25.3864 617.038 26.0327H618.127C617.942 24.7031 616.816 23.8168 615.32 23.8168C613.4 23.8168 612.126 25.331 612.126 27.4915C612.126 29.6151 613.344 31.1477 615.339 31.1477ZM622.693 31.1477C624.133 31.1477 625.186 30.4276 625.518 29.3565L624.466 29.0611C624.189 29.7997 623.547 30.169 622.693 30.169C621.414 30.169 620.532 29.3427 620.482 27.8239H625.629V27.3622C625.629 24.7216 624.059 23.8168 622.582 23.8168C620.662 23.8168 619.387 25.331 619.387 27.5099C619.387 29.6889 620.643 31.1477 622.693 31.1477ZM620.482 26.8821C620.555 25.7788 621.336 24.7955 622.582 24.7955C623.764 24.7955 624.521 25.6818 624.521 26.8821H620.482ZM634.026 23.9091H632.512V22.2102H631.423V23.9091H630.352V24.8324H631.423V29.2642C631.423 30.5014 632.42 31.0923 633.343 31.0923C633.749 31.0923 634.008 31.0185 634.156 30.9631L633.934 29.9844C633.842 30.0028 633.694 30.0398 633.454 30.0398C632.974 30.0398 632.512 29.892 632.512 28.9688V24.8324H634.026V23.9091ZM638.47 31.1477C640.39 31.1477 641.683 29.6889 641.683 27.4915C641.683 25.2756 640.39 23.8168 638.47 23.8168C636.549 23.8168 635.257 25.2756 635.257 27.4915C635.257 29.6889 636.549 31.1477 638.47 31.1477ZM638.47 30.169C637.011 30.169 636.346 28.9134 636.346 27.4915C636.346 26.0696 637.011 24.7955 638.47 24.7955C639.928 24.7955 640.593 26.0696 640.593 27.4915C640.593 28.9134 639.928 30.169 638.47 30.169ZM649.975 31.1477C651.415 31.1477 652.468 30.4276 652.8 29.3565L651.748 29.0611C651.471 29.7997 650.829 30.169 649.975 30.169C648.696 30.169 647.815 29.3427 647.764 27.8239H652.911V27.3622C652.911 24.7216 651.342 23.8168 649.864 23.8168C647.944 23.8168 646.67 25.331 646.67 27.5099C646.67 29.6889 647.925 31.1477 649.975 31.1477ZM647.764 26.8821C647.838 25.7788 648.618 24.7955 649.864 24.7955C651.046 24.7955 651.803 25.6818 651.803 26.8821H647.764ZM655.658 26.7344C655.658 25.4972 656.424 24.7955 657.468 24.7955C658.479 24.7955 659.093 25.4556 659.093 26.5682V31H660.182V26.4943C660.182 24.6847 659.217 23.8168 657.782 23.8168C656.71 23.8168 656.046 24.2969 655.713 25.017H655.621V23.9091H654.568V31H655.658V26.7344ZM663.262 26.7344C663.262 25.4972 664.052 24.7955 665.127 24.7955C666.152 24.7955 666.771 25.4418 666.771 26.5682V31H667.86V26.4943C667.86 24.6708 666.891 23.8168 665.441 23.8168C664.324 23.8168 663.687 24.283 663.355 25.017H663.262V21.5455H662.173V31H663.262V26.7344ZM671.94 31.1662C673.177 31.1662 673.824 30.5014 674.045 30.0398H674.101V31H675.19V26.3281C675.19 24.0753 673.473 23.8168 672.568 23.8168C671.497 23.8168 670.278 24.1861 669.724 25.4787L670.758 25.848C670.998 25.331 671.566 24.777 672.605 24.777C673.607 24.777 674.101 25.3079 674.101 26.2173V26.2543C674.101 26.7805 673.565 26.7344 672.273 26.9006C670.957 27.0714 669.521 27.3622 669.521 28.9872C669.521 30.3722 670.592 31.1662 671.94 31.1662ZM672.106 30.1875C671.239 30.1875 670.611 29.7997 670.611 29.0426C670.611 28.2116 671.368 27.9531 672.217 27.8423C672.679 27.7869 673.916 27.6577 674.101 27.4361V28.4332C674.101 29.3196 673.399 30.1875 672.106 30.1875ZM678.268 26.7344C678.268 25.4972 679.035 24.7955 680.078 24.7955C681.089 24.7955 681.703 25.4556 681.703 26.5682V31H682.792V26.4943C682.792 24.6847 681.828 23.8168 680.392 23.8168C679.321 23.8168 678.656 24.2969 678.324 25.017H678.231V23.9091H677.179V31H678.268V26.7344ZM687.664 31.1477C689.234 31.1477 690.268 30.1875 690.452 28.9318H689.363C689.16 29.7074 688.513 30.169 687.664 30.169C686.371 30.169 685.54 29.098 685.54 27.4545C685.54 25.848 686.39 24.7955 687.664 24.7955C688.624 24.7955 689.197 25.3864 689.363 26.0327H690.452C690.268 24.7031 689.141 23.8168 687.646 23.8168C685.725 23.8168 684.451 25.331 684.451 27.4915C684.451 29.6151 685.67 31.1477 687.664 31.1477ZM695.018 31.1477C696.458 31.1477 697.511 30.4276 697.843 29.3565L696.791 29.0611C696.514 29.7997 695.872 30.169 695.018 30.169C693.739 30.169 692.858 29.3427 692.807 27.8239H697.954V27.3622C697.954 24.7216 696.384 23.8168 694.907 23.8168C692.987 23.8168 691.713 25.331 691.713 27.5099C691.713 29.6889 692.968 31.1477 695.018 31.1477ZM692.807 26.8821C692.881 25.7788 693.661 24.7955 694.907 24.7955C696.089 24.7955 696.846 25.6818 696.846 26.8821H692.807ZM708.29 25.4972C707.949 24.4908 707.182 23.8168 705.779 23.8168C704.283 23.8168 703.175 24.6662 703.175 25.8665C703.175 26.8452 703.757 27.5007 705.059 27.8054L706.241 28.0824C706.956 28.2486 707.293 28.5902 707.293 29.0795C707.293 29.6889 706.647 30.1875 705.631 30.1875C704.74 30.1875 704.182 29.8043 703.988 29.0426L702.954 29.3011C703.208 30.506 704.2 31.1477 705.65 31.1477C707.298 31.1477 708.42 30.2475 708.42 29.0241C708.42 28.0362 707.801 27.413 706.536 27.1037L705.484 26.8452C704.643 26.6374 704.265 26.3558 704.265 25.8111C704.265 25.2017 704.911 24.7585 705.779 24.7585C706.73 24.7585 707.122 25.2848 707.312 25.7741L708.29 25.4972ZM710.06 31H711.149V23.9091H710.06V31ZM710.614 22.7273C711.038 22.7273 711.389 22.3949 711.389 21.9886C711.389 21.5824 711.038 21.25 710.614 21.25C710.189 21.25 709.838 21.5824 709.838 21.9886C709.838 22.3949 710.189 22.7273 710.614 22.7273ZM716.228 23.9091H714.714V22.2102H713.625V23.9091H712.554V24.8324H713.625V29.2642C713.625 30.5014 714.622 31.0923 715.545 31.0923C715.951 31.0923 716.21 31.0185 716.358 30.9631L716.136 29.9844C716.044 30.0028 715.896 30.0398 715.656 30.0398C715.176 30.0398 714.714 29.892 714.714 28.9688V24.8324H716.228V23.9091ZM720.764 31.1477C722.204 31.1477 723.257 30.4276 723.589 29.3565L722.537 29.0611C722.26 29.7997 721.618 30.169 720.764 30.169C719.485 30.169 718.604 29.3427 718.553 27.8239H723.7V27.3622C723.7 24.7216 722.131 23.8168 720.653 23.8168C718.733 23.8168 717.459 25.331 717.459 27.5099C717.459 29.6889 718.714 31.1477 720.764 31.1477ZM718.553 26.8821C718.627 25.7788 719.407 24.7955 720.653 24.7955C721.835 24.7955 722.592 25.6818 722.592 26.8821H718.553ZM730.103 26.7344C730.103 25.4972 730.87 24.7955 731.913 24.7955C732.924 24.7955 733.538 25.4556 733.538 26.5682V31H734.627V26.4943C734.627 24.6847 733.663 23.8168 732.227 23.8168C731.156 23.8168 730.491 24.2969 730.159 25.017H730.066V23.9091H729.014V31H730.103V26.7344ZM738.705 31.1662C739.942 31.1662 740.588 30.5014 740.81 30.0398H740.865V31H741.955V26.3281C741.955 24.0753 740.238 23.8168 739.333 23.8168C738.262 23.8168 737.043 24.1861 736.489 25.4787L737.523 25.848C737.763 25.331 738.331 24.777 739.37 24.777C740.371 24.777 740.865 25.3079 740.865 26.2173V26.2543C740.865 26.7805 740.33 26.7344 739.037 26.9006C737.722 27.0714 736.286 27.3622 736.286 28.9872C736.286 30.3722 737.357 31.1662 738.705 31.1662ZM738.871 30.1875C738.003 30.1875 737.375 29.7997 737.375 29.0426C737.375 28.2116 738.132 27.9531 738.982 27.8423C739.444 27.7869 740.681 27.6577 740.865 27.4361V28.4332C740.865 29.3196 740.164 30.1875 738.871 30.1875ZM749.488 23.9091H748.306L746.349 29.5597H746.275L744.317 23.9091H743.136L745.758 31H746.866L749.488 23.9091ZM750.926 31H752.015V23.9091H750.926V31ZM751.48 22.7273C751.905 22.7273 752.255 22.3949 752.255 21.9886C752.255 21.5824 751.905 21.25 751.48 21.25C751.055 21.25 750.704 21.5824 750.704 21.9886C750.704 22.3949 751.055 22.7273 751.48 22.7273ZM756.873 33.8068C758.572 33.8068 759.938 33.0312 759.938 31.2031V23.9091H758.886V25.0355H758.775C758.535 24.6662 758.092 23.8168 756.707 23.8168C754.916 23.8168 753.678 25.2386 753.678 27.4176C753.678 29.6335 754.971 30.8892 756.688 30.8892C758.073 30.8892 758.517 30.0767 758.757 29.6889H758.849V31.1293C758.849 32.3111 758.018 32.8466 756.873 32.8466C755.585 32.8466 755.133 32.168 754.842 31.7756L753.974 32.3849C754.417 33.1282 755.29 33.8068 756.873 33.8068ZM756.836 29.9105C755.47 29.9105 754.768 28.8764 754.768 27.3991C754.768 25.9588 755.451 24.7955 756.836 24.7955C758.166 24.7955 758.867 25.8665 758.867 27.3991C758.867 28.9688 758.147 29.9105 756.836 29.9105ZM764.019 31.1662C765.257 31.1662 765.903 30.5014 766.124 30.0398H766.18V31H767.269V26.3281C767.269 24.0753 765.552 23.8168 764.647 23.8168C763.576 23.8168 762.357 24.1861 761.803 25.4787L762.838 25.848C763.078 25.331 763.645 24.777 764.684 24.777C765.686 24.777 766.18 25.3079 766.18 26.2173V26.2543C766.18 26.7805 765.644 26.7344 764.352 26.9006C763.036 27.0714 761.6 27.3622 761.6 28.9872C761.6 30.3722 762.671 31.1662 764.019 31.1662ZM764.186 30.1875C763.318 30.1875 762.69 29.7997 762.69 29.0426C762.69 28.2116 763.447 27.9531 764.296 27.8423C764.758 27.7869 765.995 27.6577 766.18 27.4361V28.4332C766.18 29.3196 765.478 30.1875 764.186 30.1875ZM772.342 23.9091H770.828V22.2102H769.738V23.9091H768.667V24.8324H769.738V29.2642C769.738 30.5014 770.735 31.0923 771.658 31.0923C772.065 31.0923 772.323 31.0185 772.471 30.9631L772.249 29.9844C772.157 30.0028 772.009 30.0398 771.769 30.0398C771.289 30.0398 770.828 29.892 770.828 28.9688V24.8324H772.342V23.9091ZM773.981 31H775.07V23.9091H773.981V31ZM774.535 22.7273C774.959 22.7273 775.31 22.3949 775.31 21.9886C775.31 21.5824 774.959 21.25 774.535 21.25C774.11 21.25 773.759 21.5824 773.759 21.9886C773.759 22.3949 774.11 22.7273 774.535 22.7273ZM779.946 31.1477C781.867 31.1477 783.159 29.6889 783.159 27.4915C783.159 25.2756 781.867 23.8168 779.946 23.8168C778.026 23.8168 776.733 25.2756 776.733 27.4915C776.733 29.6889 778.026 31.1477 779.946 31.1477ZM779.946 30.169C778.487 30.169 777.823 28.9134 777.823 27.4915C777.823 26.0696 778.487 24.7955 779.946 24.7955C781.405 24.7955 782.07 26.0696 782.07 27.4915C782.07 28.9134 781.405 30.169 779.946 30.169ZM785.912 26.7344C785.912 25.4972 786.678 24.7955 787.722 24.7955C788.733 24.7955 789.347 25.4556 789.347 26.5682V31H790.436V26.4943C790.436 24.6847 789.471 23.8168 788.035 23.8168C786.964 23.8168 786.3 24.2969 785.967 25.017H785.875V23.9091H784.822V31H785.912V26.7344ZM794.052 29.7074H792.87L792.815 30.2244C792.681 31.4755 792.418 32.7219 792.298 33.3082H793.129C793.35 32.6804 793.821 31.2585 793.978 30.206L794.052 29.7074ZM801.813 31.1662C803.051 31.1662 803.697 30.5014 803.918 30.0398H803.974V31H805.063V26.3281C805.063 24.0753 803.346 23.8168 802.441 23.8168C801.37 23.8168 800.151 24.1861 799.597 25.4787L800.631 25.848C800.872 25.331 801.439 24.777 802.478 24.777C803.48 24.777 803.974 25.3079 803.974 26.2173V26.2543C803.974 26.7805 803.438 26.7344 802.146 26.9006C800.83 27.0714 799.394 27.3622 799.394 28.9872C799.394 30.3722 800.465 31.1662 801.813 31.1662ZM801.979 30.1875C801.112 30.1875 800.484 29.7997 800.484 29.0426C800.484 28.2116 801.241 27.9531 802.09 27.8423C802.552 27.7869 803.789 27.6577 803.974 27.4361V28.4332C803.974 29.3196 803.272 30.1875 801.979 30.1875ZM808.141 26.7344C808.141 25.4972 808.908 24.7955 809.951 24.7955C810.962 24.7955 811.576 25.4556 811.576 26.5682V31H812.665V26.4943C812.665 24.6847 811.701 23.8168 810.265 23.8168C809.194 23.8168 808.529 24.2969 808.197 25.017H808.104V23.9091H807.052V31H808.141V26.7344ZM816.743 31.1662C817.98 31.1662 818.627 30.5014 818.848 30.0398H818.903V31H819.993V26.3281C819.993 24.0753 818.276 23.8168 817.371 23.8168C816.3 23.8168 815.081 24.1861 814.527 25.4787L815.561 25.848C815.801 25.331 816.369 24.777 817.408 24.777C818.41 24.777 818.903 25.3079 818.903 26.2173V26.2543C818.903 26.7805 818.368 26.7344 817.075 26.9006C815.76 27.0714 814.324 27.3622 814.324 28.9872C814.324 30.3722 815.395 31.1662 816.743 31.1662ZM816.909 30.1875C816.041 30.1875 815.413 29.7997 815.413 29.0426C815.413 28.2116 816.171 27.9531 817.02 27.8423C817.482 27.7869 818.719 27.6577 818.903 27.4361V28.4332C818.903 29.3196 818.202 30.1875 816.909 30.1875ZM823.071 21.5455H821.982V31H823.071V21.5455ZM825.768 33.6591C826.752 33.6591 827.444 33.1374 827.855 32.0341L830.874 23.9276L829.683 23.9091L827.726 29.5597H827.652L825.694 23.9091H824.513L827.135 31.0369L826.932 31.5909C826.535 32.6712 826.045 32.7727 825.251 32.5696L824.974 33.5298C825.085 33.5852 825.399 33.6591 825.768 33.6591ZM832.112 31H837.671V29.9844H833.627V29.9105L837.541 24.777V23.9091H832.242V24.9247H836.138V24.9986L832.112 30.169V31ZM842.119 31.1477C843.559 31.1477 844.612 30.4276 844.944 29.3565L843.891 29.0611C843.614 29.7997 842.973 30.169 842.119 30.169C840.84 30.169 839.958 29.3427 839.907 27.8239H845.055V27.3622C845.055 24.7216 843.485 23.8168 842.008 23.8168C840.087 23.8168 838.813 25.331 838.813 27.5099C838.813 29.6889 840.069 31.1477 842.119 31.1477ZM839.907 26.8821C839.981 25.7788 840.761 24.7955 842.008 24.7955C843.19 24.7955 843.947 25.6818 843.947 26.8821H839.907ZM855.391 25.4972C855.049 24.4908 854.283 23.8168 852.88 23.8168C851.384 23.8168 850.276 24.6662 850.276 25.8665C850.276 26.8452 850.858 27.5007 852.159 27.8054L853.341 28.0824C854.057 28.2486 854.394 28.5902 854.394 29.0795C854.394 29.6889 853.748 30.1875 852.732 30.1875C851.841 30.1875 851.282 29.8043 851.088 29.0426L850.054 29.3011C850.308 30.506 851.301 31.1477 852.75 31.1477C854.398 31.1477 855.52 30.2475 855.52 29.0241C855.52 28.0362 854.902 27.413 853.637 27.1037L852.584 26.8452C851.744 26.6374 851.365 26.3558 851.365 25.8111C851.365 25.2017 852.012 24.7585 852.88 24.7585C853.831 24.7585 854.223 25.2848 854.412 25.7741L855.391 25.4972ZM857.16 31H858.25V23.9091H857.16V31ZM857.714 22.7273C858.139 22.7273 858.49 22.3949 858.49 21.9886C858.49 21.5824 858.139 21.25 857.714 21.25C857.29 21.25 856.939 21.5824 856.939 21.9886C856.939 22.3949 857.29 22.7273 857.714 22.7273ZM863.329 23.9091H861.815V22.2102H860.725V23.9091H859.654V24.8324H860.725V29.2642C860.725 30.5014 861.722 31.0923 862.646 31.0923C863.052 31.0923 863.311 31.0185 863.458 30.9631L863.237 29.9844C863.144 30.0028 862.997 30.0398 862.757 30.0398C862.276 30.0398 861.815 29.892 861.815 28.9688V24.8324H863.329V23.9091ZM867.865 31.1477C869.305 31.1477 870.358 30.4276 870.69 29.3565L869.637 29.0611C869.36 29.7997 868.719 30.169 867.865 30.169C866.586 30.169 865.704 29.3427 865.653 27.8239H870.801V27.3622C870.801 24.7216 869.231 23.8168 867.754 23.8168C865.833 23.8168 864.559 25.331 864.559 27.5099C864.559 29.6889 865.815 31.1477 867.865 31.1477ZM865.653 26.8821C865.727 25.7788 866.507 24.7955 867.754 24.7955C868.936 24.7955 869.693 25.6818 869.693 26.8821H865.653ZM880.583 28.1009C880.583 29.4304 879.567 30.0398 878.755 30.0398C877.85 30.0398 877.204 29.375 877.204 28.3409V23.9091H876.114V28.4148C876.114 30.2244 877.075 31.0923 878.404 31.0923C879.475 31.0923 880.177 30.5199 880.509 29.7997H880.583V31H881.673V23.9091H880.583V28.1009ZM888.691 25.4972C888.349 24.4908 887.583 23.8168 886.179 23.8168C884.684 23.8168 883.576 24.6662 883.576 25.8665C883.576 26.8452 884.157 27.5007 885.459 27.8054L886.641 28.0824C887.357 28.2486 887.694 28.5902 887.694 29.0795C887.694 29.6889 887.047 30.1875 886.032 30.1875C885.141 30.1875 884.582 29.8043 884.388 29.0426L883.354 29.3011C883.608 30.506 884.601 31.1477 886.05 31.1477C887.698 31.1477 888.82 30.2475 888.82 29.0241C888.82 28.0362 888.201 27.413 886.937 27.1037L885.884 26.8452C885.044 26.6374 884.665 26.3558 884.665 25.8111C884.665 25.2017 885.312 24.7585 886.179 24.7585C887.13 24.7585 887.523 25.2848 887.712 25.7741L888.691 25.4972ZM892.547 31.1662C893.784 31.1662 894.43 30.5014 894.652 30.0398H894.707V31H895.797V26.3281C895.797 24.0753 894.079 23.8168 893.175 23.8168C892.104 23.8168 890.885 24.1861 890.331 25.4787L891.365 25.848C891.605 25.331 892.173 24.777 893.211 24.777C894.213 24.777 894.707 25.3079 894.707 26.2173V26.2543C894.707 26.7805 894.172 26.7344 892.879 26.9006C891.563 27.0714 890.128 27.3622 890.128 28.9872C890.128 30.3722 891.199 31.1662 892.547 31.1662ZM892.713 30.1875C891.845 30.1875 891.217 29.7997 891.217 29.0426C891.217 28.2116 891.974 27.9531 892.824 27.8423C893.285 27.7869 894.523 27.6577 894.707 27.4361V28.4332C894.707 29.3196 894.006 30.1875 892.713 30.1875ZM900.647 33.8068C902.346 33.8068 903.713 33.0312 903.713 31.2031V23.9091H902.66V25.0355H902.549C902.309 24.6662 901.866 23.8168 900.481 23.8168C898.69 23.8168 897.453 25.2386 897.453 27.4176C897.453 29.6335 898.745 30.8892 900.463 30.8892C901.848 30.8892 902.291 30.0767 902.531 29.6889H902.623V31.1293C902.623 32.3111 901.792 32.8466 900.647 32.8466C899.359 32.8466 898.907 32.168 898.616 31.7756L897.748 32.3849C898.191 33.1282 899.064 33.8068 900.647 33.8068ZM900.611 29.9105C899.244 29.9105 898.542 28.8764 898.542 27.3991C898.542 25.9588 899.226 24.7955 900.611 24.7955C901.94 24.7955 902.642 25.8665 902.642 27.3991C902.642 28.9688 901.922 29.9105 900.611 29.9105ZM908.68 31.1477C910.12 31.1477 911.173 30.4276 911.505 29.3565L910.453 29.0611C910.176 29.7997 909.534 30.169 908.68 30.169C907.401 30.169 906.52 29.3427 906.469 27.8239H911.616V27.3622C911.616 24.7216 910.047 23.8168 908.569 23.8168C906.649 23.8168 905.375 25.331 905.375 27.5099C905.375 29.6889 906.63 31.1477 908.68 31.1477ZM906.469 26.8821C906.543 25.7788 907.323 24.7955 908.569 24.7955C909.751 24.7955 910.508 25.6818 910.508 26.8821H906.469ZM914.899 29.7074H913.717L913.661 30.2244C913.527 31.4755 913.264 32.7219 913.144 33.3082H913.975C914.197 32.6804 914.668 31.2585 914.825 30.206L914.899 29.7074ZM922.66 31.1662C923.897 31.1662 924.544 30.5014 924.765 30.0398H924.82V31H925.91V26.3281C925.91 24.0753 924.193 23.8168 923.288 23.8168C922.217 23.8168 920.998 24.1861 920.444 25.4787L921.478 25.848C921.718 25.331 922.286 24.777 923.325 24.777C924.327 24.777 924.82 25.3079 924.82 26.2173V26.2543C924.82 26.7805 924.285 26.7344 922.992 26.9006C921.677 27.0714 920.241 27.3622 920.241 28.9872C920.241 30.3722 921.312 31.1662 922.66 31.1662ZM922.826 30.1875C921.958 30.1875 921.33 29.7997 921.33 29.0426C921.33 28.2116 922.088 27.9531 922.937 27.8423C923.399 27.7869 924.636 27.6577 924.82 27.4361V28.4332C924.82 29.3196 924.119 30.1875 922.826 30.1875ZM928.988 26.7344C928.988 25.4972 929.754 24.7955 930.798 24.7955C931.809 24.7955 932.423 25.4556 932.423 26.5682V31H933.512V26.4943C933.512 24.6847 932.547 23.8168 931.112 23.8168C930.041 23.8168 929.376 24.2969 929.043 25.017H928.951V23.9091H927.899V31H928.988V26.7344ZM938.181 31.1477C939.547 31.1477 940.009 30.2983 940.249 29.9105H940.378V31H941.431V21.5455H940.341V25.0355H940.249C940.009 24.6662 939.584 23.8168 938.199 23.8168C936.408 23.8168 935.171 25.2386 935.171 27.473C935.171 29.7259 936.408 31.1477 938.181 31.1477ZM938.328 30.169C936.962 30.169 936.26 28.9688 936.26 27.4545C936.26 25.9588 936.943 24.7955 938.328 24.7955C939.658 24.7955 940.36 25.8665 940.36 27.4545C940.36 29.0611 939.639 30.169 938.328 30.169ZM949.32 31.1662C950.557 31.1662 951.204 30.5014 951.425 30.0398H951.481V31H952.57V26.3281C952.57 24.0753 950.853 23.8168 949.948 23.8168C948.877 23.8168 947.658 24.1861 947.104 25.4787L948.138 25.848C948.378 25.331 948.946 24.777 949.985 24.777C950.987 24.777 951.481 25.3079 951.481 26.2173V26.2543C951.481 26.7805 950.945 26.7344 949.653 26.9006C948.337 27.0714 946.901 27.3622 946.901 28.9872C946.901 30.3722 947.972 31.1662 949.32 31.1662ZM949.486 30.1875C948.618 30.1875 947.991 29.7997 947.991 29.0426C947.991 28.2116 948.748 27.9531 949.597 27.8423C950.059 27.7869 951.296 27.6577 951.481 27.4361V28.4332C951.481 29.3196 950.779 30.1875 949.486 30.1875ZM959.581 25.4972C959.24 24.4908 958.473 23.8168 957.07 23.8168C955.574 23.8168 954.466 24.6662 954.466 25.8665C954.466 26.8452 955.048 27.5007 956.35 27.8054L957.532 28.0824C958.247 28.2486 958.584 28.5902 958.584 29.0795C958.584 29.6889 957.938 30.1875 956.922 30.1875C956.031 30.1875 955.473 29.8043 955.279 29.0426L954.245 29.3011C954.499 30.506 955.491 31.1477 956.941 31.1477C958.589 31.1477 959.711 30.2475 959.711 29.0241C959.711 28.0362 959.092 27.413 957.827 27.1037L956.775 26.8452C955.934 26.6374 955.556 26.3558 955.556 25.8111C955.556 25.2017 956.202 24.7585 957.07 24.7585C958.021 24.7585 958.413 25.2848 958.603 25.7741L959.581 25.4972ZM966.373 25.4972C966.032 24.4908 965.265 23.8168 963.862 23.8168C962.366 23.8168 961.258 24.6662 961.258 25.8665C961.258 26.8452 961.84 27.5007 963.142 27.8054L964.324 28.0824C965.039 28.2486 965.376 28.5902 965.376 29.0795C965.376 29.6889 964.73 30.1875 963.714 30.1875C962.823 30.1875 962.265 29.8043 962.071 29.0426L961.037 29.3011C961.291 30.506 962.283 31.1477 963.733 31.1477C965.381 31.1477 966.503 30.2475 966.503 29.0241C966.503 28.0362 965.884 27.413 964.619 27.1037L963.567 26.8452C962.726 26.6374 962.348 26.3558 962.348 25.8111C962.348 25.2017 962.994 24.7585 963.862 24.7585C964.813 24.7585 965.205 25.2848 965.395 25.7741L966.373 25.4972ZM968.143 31H969.232V23.9091H968.143V31ZM968.697 22.7273C969.121 22.7273 969.472 22.3949 969.472 21.9886C969.472 21.5824 969.121 21.25 968.697 21.25C968.272 21.25 967.921 21.5824 967.921 21.9886C967.921 22.3949 968.272 22.7273 968.697 22.7273ZM976.25 25.4972C975.909 24.4908 975.142 23.8168 973.739 23.8168C972.243 23.8168 971.135 24.6662 971.135 25.8665C971.135 26.8452 971.717 27.5007 973.019 27.8054L974.201 28.0824C974.916 28.2486 975.253 28.5902 975.253 29.0795C975.253 29.6889 974.607 30.1875 973.591 30.1875C972.7 30.1875 972.142 29.8043 971.948 29.0426L970.914 29.3011C971.168 30.506 972.16 31.1477 973.61 31.1477C975.258 31.1477 976.38 30.2475 976.38 29.0241C976.38 28.0362 975.761 27.413 974.496 27.1037L973.444 26.8452C972.603 26.6374 972.225 26.3558 972.225 25.8111C972.225 25.2017 972.871 24.7585 973.739 24.7585C974.69 24.7585 975.082 25.2848 975.272 25.7741L976.25 25.4972ZM981.103 23.9091H979.589V22.2102H978.5V23.9091H977.429V24.8324H978.5V29.2642C978.5 30.5014 979.497 31.0923 980.42 31.0923C980.826 31.0923 981.085 31.0185 981.233 30.9631L981.011 29.9844C980.919 30.0028 980.771 30.0398 980.531 30.0398C980.051 30.0398 979.589 29.892 979.589 28.9688V24.8324H981.103V23.9091ZM986.399 31H987.488V23.9091H986.399V31ZM986.953 22.7273C987.377 22.7273 987.728 22.3949 987.728 21.9886C987.728 21.5824 987.377 21.25 986.953 21.25C986.528 21.25 986.177 21.5824 986.177 21.9886C986.177 22.3949 986.528 22.7273 986.953 22.7273ZM990.573 26.7344C990.573 25.4972 991.339 24.7955 992.383 24.7955C993.394 24.7955 994.008 25.4556 994.008 26.5682V31H995.097V26.4943C995.097 24.6847 994.132 23.8168 992.697 23.8168C991.626 23.8168 990.961 24.2969 990.628 25.017H990.536V23.9091H989.483V31H990.573V26.7344ZM1003.62 31.1477C1005.55 31.1477 1006.84 29.6889 1006.84 27.4915C1006.84 25.2756 1005.55 23.8168 1003.62 23.8168C1001.7 23.8168 1000.41 25.2756 1000.41 27.4915C1000.41 29.6889 1001.7 31.1477 1003.62 31.1477ZM1003.62 30.169C1002.17 30.169 1001.5 28.9134 1001.5 27.4915C1001.5 26.0696 1002.17 24.7955 1003.62 24.7955C1005.08 24.7955 1005.75 26.0696 1005.75 27.4915C1005.75 28.9134 1005.08 30.169 1003.62 30.169ZM1012.97 28.1009C1012.97 29.4304 1011.95 30.0398 1011.14 30.0398C1010.24 30.0398 1009.59 29.375 1009.59 28.3409V23.9091H1008.5V28.4148C1008.5 30.2244 1009.46 31.0923 1010.79 31.0923C1011.86 31.0923 1012.56 30.5199 1012.9 29.7997H1012.97V31H1014.06V23.9091H1012.97V28.1009ZM1016.05 31H1017.14V26.5128C1017.14 25.5526 1017.9 24.8509 1018.94 24.8509C1019.23 24.8509 1019.53 24.9062 1019.6 24.9247V23.8168C1019.48 23.8075 1019.19 23.7983 1019.03 23.7983C1018.18 23.7983 1017.44 24.2784 1017.18 24.9801H1017.11V23.9091H1016.05V31ZM120.997 51H122.087V46.5682C122.087 45.5295 122.844 44.7955 123.693 44.7955C124.52 44.7955 125.097 45.3356 125.097 46.1435V51H126.205V46.3835C126.205 45.4695 126.777 44.7955 127.774 44.7955C128.55 44.7955 129.214 45.2063 129.214 46.2543V51H130.304V46.2543C130.304 44.5877 129.408 43.8168 128.143 43.8168C127.128 43.8168 126.385 44.283 126.02 45.017H125.946C125.595 44.2599 124.977 43.8168 124.044 43.8168C123.121 43.8168 122.438 44.2599 122.142 45.017H122.05V43.9091H120.997V51ZM134.383 51.1662C135.62 51.1662 136.266 50.5014 136.488 50.0398H136.543V51H137.633V46.3281C137.633 44.0753 135.915 43.8168 135.01 43.8168C133.939 43.8168 132.721 44.1861 132.167 45.4787L133.201 45.848C133.441 45.331 134.009 44.777 135.047 44.777C136.049 44.777 136.543 45.3079 136.543 46.2173V46.2543C136.543 46.7805 136.008 46.7344 134.715 46.9006C133.399 47.0714 131.964 47.3622 131.964 48.9872C131.964 50.3722 133.035 51.1662 134.383 51.1662ZM134.549 50.1875C133.681 50.1875 133.053 49.7997 133.053 49.0426C133.053 48.2116 133.81 47.9531 134.66 47.8423C135.121 47.7869 136.358 47.6577 136.543 47.4361V48.4332C136.543 49.3196 135.841 50.1875 134.549 50.1875ZM139.621 51H140.711V46.5128C140.711 45.5526 141.468 44.8509 142.502 44.8509C142.793 44.8509 143.093 44.9062 143.167 44.9247V43.8168C143.042 43.8075 142.756 43.7983 142.594 43.7983C141.745 43.7983 141.006 44.2784 140.748 44.9801H140.674V43.9091H139.621V51ZM144.458 51H145.548V48.3455L146.309 47.6392L148.964 51H150.349L147.131 46.9375L150.127 43.9091H148.779L145.677 47.0668H145.548V41.5455H144.458V51ZM154.21 51.1477C155.651 51.1477 156.703 50.4276 157.036 49.3565L155.983 49.0611C155.706 49.7997 155.064 50.169 154.21 50.169C152.932 50.169 152.05 49.3427 151.999 47.8239H157.146V47.3622C157.146 44.7216 155.577 43.8168 154.1 43.8168C152.179 43.8168 150.905 45.331 150.905 47.5099C150.905 49.6889 152.161 51.1477 154.21 51.1477ZM151.999 46.8821C152.073 45.7788 152.853 44.7955 154.1 44.7955C155.281 44.7955 156.039 45.6818 156.039 46.8821H151.999ZM161.888 43.9091H160.373V42.2102H159.284V43.9091H158.213V44.8324H159.284V49.2642C159.284 50.5014 160.281 51.0923 161.204 51.0923C161.611 51.0923 161.869 51.0185 162.017 50.9631L161.795 49.9844C161.703 50.0028 161.555 50.0398 161.315 50.0398C160.835 50.0398 160.373 49.892 160.373 48.9688V44.8324H161.888V43.9091ZM163.526 51H164.616V43.9091H163.526V51ZM164.08 42.7273C164.505 42.7273 164.856 42.3949 164.856 41.9886C164.856 41.5824 164.505 41.25 164.08 41.25C163.656 41.25 163.305 41.5824 163.305 41.9886C163.305 42.3949 163.656 42.7273 164.08 42.7273ZM167.701 46.7344C167.701 45.4972 168.467 44.7955 169.511 44.7955C170.522 44.7955 171.136 45.4556 171.136 46.5682V51H172.225V46.4943C172.225 44.6847 171.26 43.8168 169.824 43.8168C168.753 43.8168 168.089 44.2969 167.756 45.017H167.664V43.9091H166.611V51H167.701V46.7344ZM177.078 53.8068C178.777 53.8068 180.143 53.0312 180.143 51.2031V43.9091H179.091V45.0355H178.98C178.74 44.6662 178.297 43.8168 176.912 43.8168C175.121 43.8168 173.884 45.2386 173.884 47.4176C173.884 49.6335 175.176 50.8892 176.893 50.8892C178.278 50.8892 178.722 50.0767 178.962 49.6889H179.054V51.1293C179.054 52.3111 178.223 52.8466 177.078 52.8466C175.79 52.8466 175.338 52.168 175.047 51.7756L174.179 52.3849C174.622 53.1282 175.495 53.8068 177.078 53.8068ZM177.041 49.9105C175.675 49.9105 174.973 48.8764 174.973 47.3991C174.973 45.9588 175.656 44.7955 177.041 44.7955C178.371 44.7955 179.072 45.8665 179.072 47.3991C179.072 48.9688 178.352 49.9105 177.041 49.9105ZM188.767 51.1477C190.207 51.1477 191.26 50.4276 191.592 49.3565L190.54 49.0611C190.263 49.7997 189.621 50.169 188.767 50.169C187.488 50.169 186.607 49.3427 186.556 47.8239H191.703V47.3622C191.703 44.7216 190.134 43.8168 188.656 43.8168C186.736 43.8168 185.462 45.331 185.462 47.5099C185.462 49.6889 186.717 51.1477 188.767 51.1477ZM186.556 46.8821C186.63 45.7788 187.41 44.7955 188.656 44.7955C189.838 44.7955 190.595 45.6818 190.595 46.8821H186.556ZM196.518 43.9091H194.93V43.1889C194.93 42.4872 195.225 42.1179 195.946 42.1179C196.26 42.1179 196.444 42.1918 196.555 42.2287L196.869 41.2869C196.703 41.2131 196.37 41.1023 195.835 41.1023C194.819 41.1023 193.841 41.7116 193.841 42.9304V43.9091H192.696V44.8324H193.841V51H194.93V44.8324H196.518V43.9091ZM201.203 43.9091H199.615V43.1889C199.615 42.4872 199.91 42.1179 200.63 42.1179C200.944 42.1179 201.129 42.1918 201.24 42.2287L201.554 41.2869C201.387 41.2131 201.055 41.1023 200.519 41.1023C199.504 41.1023 198.525 41.7116 198.525 42.9304V43.9091H197.38V44.8324H198.525V51H199.615V44.8324H201.203V43.9091ZM205.318 51.1477C207.239 51.1477 208.531 49.6889 208.531 47.4915C208.531 45.2756 207.239 43.8168 205.318 43.8168C203.398 43.8168 202.105 45.2756 202.105 47.4915C202.105 49.6889 203.398 51.1477 205.318 51.1477ZM205.318 50.169C203.859 50.169 203.195 48.9134 203.195 47.4915C203.195 46.0696 203.859 44.7955 205.318 44.7955C206.777 44.7955 207.442 46.0696 207.442 47.4915C207.442 48.9134 206.777 50.169 205.318 50.169ZM210.194 51H211.284V46.5128C211.284 45.5526 212.041 44.8509 213.075 44.8509C213.366 44.8509 213.666 44.9062 213.74 44.9247V43.8168C213.615 43.8075 213.329 43.7983 213.167 43.7983C212.318 43.7983 211.579 44.2784 211.321 44.9801H211.247V43.9091H210.194V51ZM218.559 43.9091H217.045V42.2102H215.956V43.9091H214.885V44.8324H215.956V49.2642C215.956 50.5014 216.953 51.0923 217.876 51.0923C218.282 51.0923 218.541 51.0185 218.689 50.9631L218.467 49.9844C218.375 50.0028 218.227 50.0398 217.987 50.0398C217.507 50.0398 217.045 49.892 217.045 48.9688V44.8324H218.559V43.9091ZM225.094 45.4972C224.752 44.4908 223.986 43.8168 222.583 43.8168C221.087 43.8168 219.979 44.6662 219.979 45.8665C219.979 46.8452 220.561 47.5007 221.863 47.8054L223.044 48.0824C223.76 48.2486 224.097 48.5902 224.097 49.0795C224.097 49.6889 223.451 50.1875 222.435 50.1875C221.544 50.1875 220.985 49.8043 220.792 49.0426L219.757 49.3011C220.011 50.506 221.004 51.1477 222.453 51.1477C224.102 51.1477 225.223 50.2475 225.223 49.0241C225.223 48.0362 224.605 47.413 223.34 47.1037L222.287 46.8452C221.447 46.6374 221.069 46.3558 221.069 45.8111C221.069 45.2017 221.715 44.7585 222.583 44.7585C223.534 44.7585 223.926 45.2848 224.115 45.7741L225.094 45.4972ZM227.657 51.0739C228.114 51.0739 228.488 50.6999 228.488 50.2429C228.488 49.7859 228.114 49.4119 227.657 49.4119C227.2 49.4119 226.826 49.7859 226.826 50.2429C226.826 50.6999 227.2 51.0739 227.657 51.0739Z" fill="white"/>
<path d="M1092.33 34.2173C1092.06 32.2784 1090.57 31.1534 1088.64 31.1534C1086.36 31.1534 1084.64 32.8153 1084.64 35.6364C1084.64 38.4531 1086.34 40.1193 1088.64 40.1193C1090.71 40.1193 1092.09 38.777 1092.33 37.1108L1090.74 37.1023C1090.54 38.125 1089.7 38.7003 1088.66 38.7003C1087.24 38.7003 1086.23 37.6392 1086.23 35.6364C1086.23 33.6676 1087.23 32.5724 1088.66 32.5724C1089.72 32.5724 1090.55 33.1733 1090.74 34.2173H1092.33ZM1096.57 40.1278C1098.48 40.1278 1099.7 38.777 1099.7 36.7528C1099.7 34.7244 1098.48 33.3693 1096.57 33.3693C1094.65 33.3693 1093.43 34.7244 1093.43 36.7528C1093.43 38.777 1094.65 40.1278 1096.57 40.1278ZM1096.57 38.892C1095.51 38.892 1094.99 37.946 1094.99 36.7486C1094.99 35.5511 1095.51 34.5923 1096.57 34.5923C1097.62 34.5923 1098.14 35.5511 1098.14 36.7486C1098.14 37.946 1097.62 38.892 1096.57 38.892ZM1103.87 40.1278C1105.78 40.1278 1107 38.777 1107 36.7528C1107 34.7244 1105.78 33.3693 1103.87 33.3693C1101.95 33.3693 1100.73 34.7244 1100.73 36.7528C1100.73 38.777 1101.95 40.1278 1103.87 40.1278ZM1103.88 38.892C1102.81 38.892 1102.29 37.946 1102.29 36.7486C1102.29 35.5511 1102.81 34.5923 1103.88 34.5923C1104.92 34.5923 1105.44 35.5511 1105.44 36.7486C1105.44 37.946 1104.92 38.892 1103.88 38.892ZM1108.31 40H1109.85V37.8011L1110.42 37.2003L1112.42 40H1114.27L1111.58 36.2798L1114.12 33.4545H1112.31L1109.96 36.0838H1109.85V31.2727H1108.31V40ZM1115.14 40H1116.69V33.4545H1115.14V40ZM1115.92 32.5256C1116.41 32.5256 1116.81 32.1506 1116.81 31.6903C1116.81 31.2259 1116.41 30.8509 1115.92 30.8509C1115.43 30.8509 1115.02 31.2259 1115.02 31.6903C1115.02 32.1506 1115.43 32.5256 1115.92 32.5256ZM1121.17 40.1278C1122.7 40.1278 1123.74 39.3821 1124.02 38.2443L1122.58 38.0824C1122.37 38.6364 1121.86 38.9261 1121.19 38.9261C1120.19 38.9261 1119.53 38.2699 1119.52 37.1491H1124.08V36.6761C1124.08 34.3793 1122.7 33.3693 1121.09 33.3693C1119.21 33.3693 1117.99 34.7457 1117.99 36.7656C1117.99 38.8196 1119.2 40.1278 1121.17 40.1278ZM1119.53 36.1094C1119.57 35.2741 1120.19 34.571 1121.11 34.571C1122 34.571 1122.59 35.2188 1122.6 36.1094H1119.53ZM1133.17 33.6719H1134.7C1134.67 32.1974 1133.41 31.1534 1131.55 31.1534C1129.72 31.1534 1128.34 32.1847 1128.35 33.7273C1128.35 34.9801 1129.24 35.7003 1130.67 36.071L1131.67 36.3267C1132.61 36.5653 1133.23 36.8594 1133.23 37.5369C1133.23 38.2827 1132.52 38.7812 1131.49 38.7812C1130.5 38.7812 1129.74 38.3381 1129.67 37.4219H1128.12C1128.18 39.1562 1129.47 40.1321 1131.5 40.1321C1133.6 40.1321 1134.81 39.0881 1134.81 37.5497C1134.81 36.0369 1133.56 35.3466 1132.25 35.0355L1131.43 34.831C1130.72 34.6605 1129.94 34.358 1129.95 33.6293C1129.95 32.973 1130.54 32.4915 1131.53 32.4915C1132.47 32.4915 1133.09 32.9304 1133.17 33.6719ZM1139.05 40.1278C1140.58 40.1278 1141.63 39.3821 1141.9 38.2443L1140.46 38.0824C1140.25 38.6364 1139.74 38.9261 1139.07 38.9261C1138.08 38.9261 1137.42 38.2699 1137.4 37.1491H1141.96V36.6761C1141.96 34.3793 1140.58 33.3693 1138.97 33.3693C1137.1 33.3693 1135.87 34.7457 1135.87 36.7656C1135.87 38.8196 1137.08 40.1278 1139.05 40.1278ZM1137.41 36.1094C1137.46 35.2741 1138.07 34.571 1138.99 34.571C1139.88 34.571 1140.48 35.2188 1140.49 36.1094H1137.41ZM1146.54 33.4545H1145.25V31.8864H1143.7V33.4545H1142.77V34.6477H1143.7V38.2869C1143.7 39.5185 1144.59 40.1236 1145.75 40.0895C1146.19 40.0767 1146.49 39.9915 1146.66 39.9361L1146.4 38.7301C1146.31 38.7514 1146.14 38.7898 1145.95 38.7898C1145.56 38.7898 1145.25 38.6534 1145.25 38.0312V34.6477H1146.54V33.4545ZM1151.1 33.4545H1149.81V31.8864H1148.26V33.4545H1147.33V34.6477H1148.26V38.2869C1148.25 39.5185 1149.15 40.1236 1150.31 40.0895C1150.75 40.0767 1151.05 39.9915 1151.22 39.9361L1150.96 38.7301C1150.87 38.7514 1150.7 38.7898 1150.5 38.7898C1150.12 38.7898 1149.81 38.6534 1149.81 38.0312V34.6477H1151.1V33.4545ZM1152.39 40H1153.93V33.4545H1152.39V40ZM1153.16 32.5256C1153.65 32.5256 1154.05 32.1506 1154.05 31.6903C1154.05 31.2259 1153.65 30.8509 1153.16 30.8509C1152.67 30.8509 1152.27 31.2259 1152.27 31.6903C1152.27 32.1506 1152.67 32.5256 1153.16 32.5256ZM1157.06 36.1648C1157.06 35.2188 1157.63 34.6733 1158.44 34.6733C1159.24 34.6733 1159.72 35.1974 1159.72 36.071V40H1161.26V35.8324C1161.26 34.2642 1160.37 33.3693 1159.02 33.3693C1158.04 33.3693 1157.36 33.8381 1157.07 34.5668H1156.99V33.4545H1155.52V40H1157.06V36.1648ZM1165.67 42.5909C1167.44 42.5909 1168.75 41.7812 1168.75 40.1065V33.4545H1167.23V34.5369H1167.14C1166.91 34.0639 1166.42 33.3693 1165.26 33.3693C1163.75 33.3693 1162.56 34.554 1162.56 36.706C1162.56 38.8409 1163.75 39.9062 1165.26 39.9062C1166.38 39.9062 1166.9 39.3054 1167.14 38.8239H1167.22V40.0639C1167.22 41.027 1166.58 41.4233 1165.7 41.4233C1164.77 41.4233 1164.36 40.9844 1164.17 40.6009L1162.79 40.9375C1163.07 41.8537 1164.01 42.5909 1165.67 42.5909ZM1165.69 38.696C1164.67 38.696 1164.13 37.9034 1164.13 36.6974C1164.13 35.5085 1164.66 34.6349 1165.69 34.6349C1166.68 34.6349 1167.23 35.4574 1167.23 36.6974C1167.23 37.946 1166.67 38.696 1165.69 38.696Z" fill="#4AD295"/>
<path d="M1084 42.4119H1169.54V43.4474H1084V42.4119Z" fill="#4AD295"/>
<rect x="1190" y="18" width="130" height="36" rx="2" fill="#4AD295"/>
<path d="M1201.98 40L1202.7 37.848H1205.98L1206.71 40H1208.39L1205.32 31.2727H1203.37L1200.29 40H1201.98ZM1203.13 36.5781L1204.31 33.0625H1204.38L1205.56 36.5781H1203.13ZM1212.13 40.1278C1213.78 40.1278 1214.83 39.152 1214.94 37.7628H1213.46C1213.33 38.4659 1212.82 38.8707 1212.14 38.8707C1211.18 38.8707 1210.56 38.0653 1210.56 36.7273C1210.56 35.4062 1211.19 34.6136 1212.14 34.6136C1212.89 34.6136 1213.34 35.0909 1213.46 35.7216H1214.94C1214.83 34.3026 1213.72 33.3693 1212.12 33.3693C1210.21 33.3693 1209 34.7543 1209 36.7528C1209 38.7344 1210.18 40.1278 1212.13 40.1278ZM1219.06 40.1278C1220.7 40.1278 1221.75 39.152 1221.86 37.7628H1220.39C1220.26 38.4659 1219.75 38.8707 1219.07 38.8707C1218.11 38.8707 1217.49 38.0653 1217.49 36.7273C1217.49 35.4062 1218.12 34.6136 1219.07 34.6136C1219.81 34.6136 1220.27 35.0909 1220.39 35.7216H1221.86C1221.76 34.3026 1220.65 33.3693 1219.05 33.3693C1217.13 33.3693 1215.92 34.7543 1215.92 36.7528C1215.92 38.7344 1217.1 40.1278 1219.06 40.1278ZM1226.03 40.1278C1227.55 40.1278 1228.6 39.3821 1228.87 38.2443L1227.43 38.0824C1227.22 38.6364 1226.71 38.9261 1226.05 38.9261C1225.05 38.9261 1224.39 38.2699 1224.38 37.1491H1228.94V36.6761C1228.94 34.3793 1227.56 33.3693 1225.95 33.3693C1224.07 33.3693 1222.85 34.7457 1222.85 36.7656C1222.85 38.8196 1224.05 40.1278 1226.03 40.1278ZM1224.38 36.1094C1224.43 35.2741 1225.05 34.571 1225.97 34.571C1226.85 34.571 1227.45 35.2188 1227.46 36.1094H1224.38ZM1230.24 42.4545H1231.78V38.9688H1231.85C1232.09 39.446 1232.6 40.1151 1233.72 40.1151C1235.27 40.1151 1236.42 38.892 1236.42 36.7358C1236.42 34.554 1235.23 33.3693 1233.72 33.3693C1232.56 33.3693 1232.08 34.0639 1231.85 34.5369H1231.76V33.4545H1230.24V42.4545ZM1231.75 36.7273C1231.75 35.4574 1232.3 34.6349 1233.29 34.6349C1234.32 34.6349 1234.85 35.5085 1234.85 36.7273C1234.85 37.9545 1234.31 38.8494 1233.29 38.8494C1232.31 38.8494 1231.75 37.9972 1231.75 36.7273ZM1241.01 33.4545H1239.72V31.8864H1238.18V33.4545H1237.25V34.6477H1238.18V38.2869C1238.17 39.5185 1239.06 40.1236 1240.22 40.0895C1240.66 40.0767 1240.96 39.9915 1241.13 39.9361L1240.87 38.7301C1240.78 38.7514 1240.61 38.7898 1240.42 38.7898C1240.03 38.7898 1239.72 38.6534 1239.72 38.0312V34.6477H1241.01V33.4545ZM1246.47 40L1247.19 37.848H1250.47L1251.19 40H1252.88L1249.8 31.2727H1247.85L1244.78 40H1246.47ZM1247.61 36.5781L1248.79 33.0625H1248.86L1250.04 36.5781H1247.61ZM1255.5 31.2727H1253.96V40H1255.5V31.2727ZM1258.63 31.2727H1257.09V40H1258.63V31.2727ZM1270.73 34.2173C1270.46 32.2784 1268.97 31.1534 1267.04 31.1534C1264.76 31.1534 1263.04 32.8153 1263.04 35.6364C1263.04 38.4531 1264.74 40.1193 1267.04 40.1193C1269.11 40.1193 1270.49 38.777 1270.73 37.1108L1269.14 37.1023C1268.94 38.125 1268.1 38.7003 1267.06 38.7003C1265.65 38.7003 1264.63 37.6392 1264.63 35.6364C1264.63 33.6676 1265.64 32.5724 1267.06 32.5724C1268.13 32.5724 1268.96 33.1733 1269.14 34.2173H1270.73ZM1274.97 40.1278C1276.89 40.1278 1278.1 38.777 1278.1 36.7528C1278.1 34.7244 1276.89 33.3693 1274.97 33.3693C1273.05 33.3693 1271.83 34.7244 1271.83 36.7528C1271.83 38.777 1273.05 40.1278 1274.97 40.1278ZM1274.98 38.892C1273.92 38.892 1273.4 37.946 1273.4 36.7486C1273.4 35.5511 1273.92 34.5923 1274.98 34.5923C1276.02 34.5923 1276.54 35.5511 1276.54 36.7486C1276.54 37.946 1276.02 38.892 1274.98 38.892ZM1282.27 40.1278C1284.19 40.1278 1285.41 38.777 1285.41 36.7528C1285.41 34.7244 1284.19 33.3693 1282.27 33.3693C1280.35 33.3693 1279.13 34.7244 1279.13 36.7528C1279.13 38.777 1280.35 40.1278 1282.27 40.1278ZM1282.28 38.892C1281.22 38.892 1280.7 37.946 1280.7 36.7486C1280.7 35.5511 1281.22 34.5923 1282.28 34.5923C1283.32 34.5923 1283.84 35.5511 1283.84 36.7486C1283.84 37.946 1283.32 38.892 1282.28 38.892ZM1286.71 40H1288.26V37.8011L1288.82 37.2003L1290.82 40H1292.67L1289.98 36.2798L1292.52 33.4545H1290.72L1288.36 36.0838H1288.26V31.2727H1286.71V40ZM1293.55 40H1295.09V33.4545H1293.55V40ZM1294.32 32.5256C1294.81 32.5256 1295.21 32.1506 1295.21 31.6903C1295.21 31.2259 1294.81 30.8509 1294.32 30.8509C1293.83 30.8509 1293.43 31.2259 1293.43 31.6903C1293.43 32.1506 1293.83 32.5256 1294.32 32.5256ZM1299.57 40.1278C1301.1 40.1278 1302.15 39.3821 1302.42 38.2443L1300.98 38.0824C1300.77 38.6364 1300.26 38.9261 1299.59 38.9261C1298.6 38.9261 1297.94 38.2699 1297.92 37.1491H1302.48V36.6761C1302.48 34.3793 1301.1 33.3693 1299.49 33.3693C1297.62 33.3693 1296.39 34.7457 1296.39 36.7656C1296.39 38.8196 1297.6 40.1278 1299.57 40.1278ZM1297.93 36.1094C1297.98 35.2741 1298.59 34.571 1299.51 34.571C1300.4 34.571 1301 35.2188 1301 36.1094H1297.93ZM1308.96 35.1847C1308.75 34.0767 1307.86 33.3693 1306.33 33.3693C1304.75 33.3693 1303.68 34.1449 1303.68 35.3551C1303.68 36.3097 1304.27 36.9403 1305.52 37.2003L1306.64 37.4347C1307.24 37.5668 1307.52 37.8097 1307.52 38.1804C1307.52 38.6278 1307.04 38.9645 1306.3 38.9645C1305.6 38.9645 1305.14 38.6577 1305 38.0696L1303.5 38.2145C1303.69 39.4162 1304.7 40.1278 1306.31 40.1278C1307.94 40.1278 1309.1 39.2798 1309.1 38.0398C1309.1 37.1065 1308.5 36.5355 1307.26 36.267L1306.15 36.0284C1305.48 35.8793 1305.22 35.6491 1305.22 35.2699C1305.22 34.8267 1305.71 34.5199 1306.35 34.5199C1307.06 34.5199 1307.44 34.9077 1307.56 35.3381L1308.96 35.1847Z" fill="white"/>
</svg>
