<svg width="596" height="108" viewBox="0 0 596 108" fill="none" xmlns="http://www.w3.org/2000/svg">
<g filter="url(#filter0_dd_23_541)">
<rect x="18" y="6" width="560" height="72" rx="16" fill="white"/>
<rect x="34" y="24" width="36" height="36" rx="10" fill="#EA4C89" fill-opacity="0.1"/>
<path d="M59.9803 40.5468C59.5123 40.6946 59.0197 40.7931 58.5271 40.7931C56.2118 40.7685 54.3399 38.8966 54.3153 36.5813C54.3153 36.1379 54.3892 35.6946 54.537 35.2759C53.9951 34.6847 53.6995 33.9212 53.6995 33.133C53.6995 32.8128 53.7488 32.4926 53.8473 32.1724C53.2315 32.0739 52.6158 32 52 32C46.4828 32 42 36.4828 42 42C42 47.5172 46.4828 52 52 52C57.5172 52 62 47.5172 62 42C62 41.7783 62 41.5567 61.9754 41.335C61.2611 41.2611 60.5468 40.9901 59.9803 40.5468ZM46.5813 39.3153C48.3054 39.3153 48.3054 42.0246 46.5813 42.0246C44.8571 42.0246 44.6108 39.3153 46.5813 39.3153ZM48.0591 47.7635C46.0887 47.7635 46.0887 44.8079 48.0591 44.8079C50.0296 44.8079 50.0296 47.7635 48.0591 47.7635ZM51.0148 33.33C52.7389 33.33 52.7389 36.2857 51.0148 36.2857C49.2906 36.2857 49.0443 33.33 51.0148 33.33ZM52.2463 40.8424C53.7241 40.8424 53.7241 42.8128 52.2463 42.8128C50.7685 42.8128 51.0148 40.8424 52.2463 40.8424ZM53.9704 48.9458C52.4926 48.9458 52.4926 46.9754 53.9704 46.9754C55.4483 46.9754 55.202 48.9458 53.9704 48.9458ZM58.6503 45.1034C57.4187 45.1034 57.4187 43.133 58.6503 43.133C59.8818 43.133 59.8818 45.1034 58.6503 45.1034Z" fill="#EA4C89"/>
<path d="M83.0824 37H84.3551L86.6023 28.8864H86.6818L88.929 37H90.2017L92.9858 26.8182H91.733L89.6051 35.1108H89.5057L87.3381 26.8182H85.946L83.7784 35.1108H83.679L81.5511 26.8182H80.2983L83.0824 37ZM96.8537 37.1591C98.4048 37.1591 99.5384 36.3835 99.8963 35.2301L98.7628 34.9119C98.4645 35.7074 97.7734 36.1051 96.8537 36.1051C95.4766 36.1051 94.527 35.2152 94.4723 33.5795H100.016V33.0824C100.016 30.2386 98.3253 29.2642 96.7344 29.2642C94.6662 29.2642 93.294 30.8949 93.294 33.2415C93.294 35.5881 94.6463 37.1591 96.8537 37.1591ZM94.4723 32.5653C94.5518 31.3771 95.392 30.3182 96.7344 30.3182C98.0071 30.3182 98.8224 31.2727 98.8224 32.5653H94.4723ZM110.55 33.8778C110.55 35.3097 109.457 35.9659 108.582 35.9659C107.607 35.9659 106.911 35.25 106.911 34.1364V29.3636H105.738V34.2159C105.738 36.1648 106.772 37.0994 108.204 37.0994C109.357 37.0994 110.113 36.483 110.471 35.7074H110.55V37H111.724V29.3636H110.55V33.8778ZM119.282 31.0739C118.914 29.9901 118.089 29.2642 116.577 29.2642C114.966 29.2642 113.773 30.179 113.773 31.4716C113.773 32.5256 114.4 33.2315 115.802 33.5597L117.074 33.858C117.845 34.0369 118.208 34.4048 118.208 34.9318C118.208 35.5881 117.512 36.125 116.418 36.125C115.459 36.125 114.857 35.7124 114.648 34.892L113.535 35.1705C113.808 36.468 114.877 37.1591 116.438 37.1591C118.213 37.1591 119.421 36.1896 119.421 34.8722C119.421 33.8082 118.755 33.1371 117.393 32.804L116.259 32.5256C115.354 32.3018 114.947 31.9986 114.947 31.4119C114.947 30.7557 115.643 30.2784 116.577 30.2784C117.601 30.2784 118.024 30.8452 118.228 31.3722L119.282 31.0739ZM124.389 37.1591C125.94 37.1591 127.074 36.3835 127.431 35.2301L126.298 34.9119C126 35.7074 125.309 36.1051 124.389 36.1051C123.012 36.1051 122.062 35.2152 122.007 33.5795H127.551V33.0824C127.551 30.2386 125.86 29.2642 124.27 29.2642C122.201 29.2642 120.829 30.8949 120.829 33.2415C120.829 35.5881 122.181 37.1591 124.389 37.1591ZM122.007 32.5653C122.087 31.3771 122.927 30.3182 124.27 30.3182C125.542 30.3182 126.358 31.2727 126.358 32.5653H122.007ZM136.375 37.1591C138.066 37.1591 139.179 36.125 139.378 34.7727H138.205C137.986 35.608 137.29 36.1051 136.375 36.1051C134.983 36.1051 134.088 34.9517 134.088 33.1818C134.088 31.4517 135.003 30.3182 136.375 30.3182C137.409 30.3182 138.026 30.9545 138.205 31.6506H139.378C139.179 30.2188 137.966 29.2642 136.355 29.2642C134.287 29.2642 132.915 30.8949 132.915 33.2216C132.915 35.5085 134.228 37.1591 136.375 37.1591ZM144.196 37.1591C146.264 37.1591 147.656 35.5881 147.656 33.2216C147.656 30.8352 146.264 29.2642 144.196 29.2642C142.127 29.2642 140.735 30.8352 140.735 33.2216C140.735 35.5881 142.127 37.1591 144.196 37.1591ZM144.196 36.1051C142.625 36.1051 141.909 34.7528 141.909 33.2216C141.909 31.6903 142.625 30.3182 144.196 30.3182C145.767 30.3182 146.483 31.6903 146.483 33.2216C146.483 34.7528 145.767 36.1051 144.196 36.1051ZM152.549 37.1591C154.617 37.1591 156.009 35.5881 156.009 33.2216C156.009 30.8352 154.617 29.2642 152.549 29.2642C150.481 29.2642 149.089 30.8352 149.089 33.2216C149.089 35.5881 150.481 37.1591 152.549 37.1591ZM152.549 36.1051C150.978 36.1051 150.262 34.7528 150.262 33.2216C150.262 31.6903 150.978 30.3182 152.549 30.3182C154.12 30.3182 154.836 31.6903 154.836 33.2216C154.836 34.7528 154.12 36.1051 152.549 36.1051ZM157.8 37H158.974V34.1413L159.794 33.3807L162.653 37H164.144L160.679 32.625L163.906 29.3636H162.454L159.113 32.7642H158.974V26.8182H157.8V37ZM165.416 37H166.589V29.3636H165.416V37ZM166.012 28.0909C166.47 28.0909 166.847 27.733 166.847 27.2955C166.847 26.858 166.47 26.5 166.012 26.5C165.555 26.5 165.177 26.858 165.177 27.2955C165.177 27.733 165.555 28.0909 166.012 28.0909ZM171.94 37.1591C173.491 37.1591 174.624 36.3835 174.982 35.2301L173.849 34.9119C173.55 35.7074 172.859 36.1051 171.94 36.1051C170.562 36.1051 169.613 35.2152 169.558 33.5795H175.102V33.0824C175.102 30.2386 173.411 29.2642 171.82 29.2642C169.752 29.2642 168.38 30.8949 168.38 33.2415C168.38 35.5881 169.732 37.1591 171.94 37.1591ZM169.558 32.5653C169.638 31.3771 170.478 30.3182 171.82 30.3182C173.093 30.3182 173.908 31.2727 173.908 32.5653H169.558ZM182.295 31.0739C181.928 29.9901 181.102 29.2642 179.591 29.2642C177.98 29.2642 176.787 30.179 176.787 31.4716C176.787 32.5256 177.413 33.2315 178.815 33.5597L180.088 33.858C180.859 34.0369 181.222 34.4048 181.222 34.9318C181.222 35.5881 180.526 36.125 179.432 36.125C178.472 36.125 177.871 35.7124 177.662 34.892L176.548 35.1705C176.822 36.468 177.891 37.1591 179.452 37.1591C181.227 37.1591 182.435 36.1896 182.435 34.8722C182.435 33.8082 181.768 33.1371 180.406 32.804L179.273 32.5256C178.368 32.3018 177.96 31.9986 177.96 31.4119C177.96 30.7557 178.656 30.2784 179.591 30.2784C180.615 30.2784 181.038 30.8452 181.241 31.3722L182.295 31.0739ZM191.459 29.3636H189.829V27.5341H188.655V29.3636H187.502V30.358H188.655V35.1307C188.655 36.4631 189.729 37.0994 190.724 37.0994C191.161 37.0994 191.439 37.0199 191.599 36.9602L191.36 35.9062C191.26 35.9261 191.101 35.9659 190.843 35.9659C190.326 35.9659 189.829 35.8068 189.829 34.8125V30.358H191.459V29.3636ZM196.244 37.1591C198.313 37.1591 199.705 35.5881 199.705 33.2216C199.705 30.8352 198.313 29.2642 196.244 29.2642C194.176 29.2642 192.784 30.8352 192.784 33.2216C192.784 35.5881 194.176 37.1591 196.244 37.1591ZM196.244 36.1051C194.673 36.1051 193.958 34.7528 193.958 33.2216C193.958 31.6903 194.673 30.3182 196.244 30.3182C197.816 30.3182 198.531 31.6903 198.531 33.2216C198.531 34.7528 197.816 36.1051 196.244 36.1051ZM208.635 37.1591C210.186 37.1591 211.32 36.3835 211.678 35.2301L210.544 34.9119C210.246 35.7074 209.555 36.1051 208.635 36.1051C207.258 36.1051 206.308 35.2152 206.254 33.5795H211.797V33.0824C211.797 30.2386 210.107 29.2642 208.516 29.2642C206.447 29.2642 205.075 30.8949 205.075 33.2415C205.075 35.5881 206.428 37.1591 208.635 37.1591ZM206.254 32.5653C206.333 31.3771 207.173 30.3182 208.516 30.3182C209.788 30.3182 210.604 31.2727 210.604 32.5653H206.254ZM214.755 32.4062C214.755 31.0739 215.58 30.3182 216.704 30.3182C217.793 30.3182 218.454 31.0291 218.454 32.2273V37H219.627V32.1477C219.627 30.1989 218.588 29.2642 217.042 29.2642C215.888 29.2642 215.173 29.7812 214.815 30.5568H214.715V29.3636H213.582V37H214.755V32.4062ZM227.18 31.0739C226.812 29.9901 225.987 29.2642 224.476 29.2642C222.865 29.2642 221.672 30.179 221.672 31.4716C221.672 32.5256 222.298 33.2315 223.7 33.5597L224.973 33.858C225.743 34.0369 226.106 34.4048 226.106 34.9318C226.106 35.5881 225.41 36.125 224.317 36.125C223.357 36.125 222.756 35.7124 222.547 34.892L221.433 35.1705C221.706 36.468 222.775 37.1591 224.336 37.1591C226.111 37.1591 227.319 36.1896 227.319 34.8722C227.319 33.8082 226.653 33.1371 225.291 32.804L224.157 32.5256C223.253 32.3018 222.845 31.9986 222.845 31.4119C222.845 30.7557 223.541 30.2784 224.476 30.2784C225.5 30.2784 225.922 30.8452 226.126 31.3722L227.18 31.0739ZM233.898 33.8778C233.898 35.3097 232.804 35.9659 231.929 35.9659C230.955 35.9659 230.259 35.25 230.259 34.1364V29.3636H229.086V34.2159C229.086 36.1648 230.12 37.0994 231.551 37.0994C232.705 37.0994 233.461 36.483 233.819 35.7074H233.898V37H235.071V29.3636H233.898V33.8778ZM237.22 37H238.394V32.1676C238.394 31.1335 239.209 30.3778 240.323 30.3778C240.636 30.3778 240.959 30.4375 241.039 30.4574V29.2642C240.904 29.2543 240.596 29.2443 240.422 29.2443C239.507 29.2443 238.712 29.7614 238.433 30.517H238.354V29.3636H237.22V37ZM245.399 37.1591C246.95 37.1591 248.083 36.3835 248.441 35.2301L247.308 34.9119C247.009 35.7074 246.318 36.1051 245.399 36.1051C244.021 36.1051 243.072 35.2152 243.017 33.5795H248.561V33.0824C248.561 30.2386 246.87 29.2642 245.279 29.2642C243.211 29.2642 241.839 30.8949 241.839 33.2415C241.839 35.5881 243.191 37.1591 245.399 37.1591ZM243.017 32.5653C243.097 31.3771 243.937 30.3182 245.279 30.3182C246.552 30.3182 247.367 31.2727 247.367 32.5653H243.017ZM257.604 29.3636H255.973V27.5341H254.8V29.3636H253.646V30.358H254.8V35.1307C254.8 36.4631 255.874 37.0994 256.868 37.0994C257.306 37.0994 257.584 37.0199 257.743 36.9602L257.504 35.9062C257.405 35.9261 257.246 35.9659 256.987 35.9659C256.47 35.9659 255.973 35.8068 255.973 34.8125V30.358H257.604V29.3636ZM260.706 32.4062C260.706 31.0739 261.556 30.3182 262.715 30.3182C263.818 30.3182 264.485 31.0142 264.485 32.2273V37H265.658V32.1477C265.658 30.1839 264.614 29.2642 263.053 29.2642C261.85 29.2642 261.164 29.7663 260.806 30.5568H260.706V26.8182H259.533V37H260.706V32.4062ZM270.051 37.179C271.384 37.179 272.08 36.4631 272.319 35.9659H272.378V37H273.551V31.9688C273.551 29.5426 271.702 29.2642 270.728 29.2642C269.574 29.2642 268.262 29.6619 267.665 31.054L268.779 31.4517C269.037 30.8949 269.649 30.2983 270.767 30.2983C271.846 30.2983 272.378 30.87 272.378 31.8494V31.8892C272.378 32.456 271.801 32.4062 270.409 32.5852C268.993 32.7692 267.446 33.0824 267.446 34.8324C267.446 36.3239 268.6 37.179 270.051 37.179ZM270.23 36.125C269.296 36.125 268.62 35.7074 268.62 34.892C268.62 33.9972 269.435 33.7188 270.35 33.5994C270.847 33.5398 272.179 33.4006 272.378 33.1619V34.2358C272.378 35.1903 271.623 36.125 270.23 36.125ZM279.014 29.3636H277.383V27.5341H276.21V29.3636H275.057V30.358H276.21V35.1307C276.21 36.4631 277.284 37.0994 278.278 37.0994C278.716 37.0994 278.994 37.0199 279.153 36.9602L278.915 35.9062C278.815 35.9261 278.656 35.9659 278.398 35.9659C277.881 35.9659 277.383 35.8068 277.383 34.8125V30.358H279.014V29.3636ZM286.447 37H287.6L289.27 31.1335H289.39L291.06 37H292.214L294.54 29.3636H293.307L291.657 35.1903H291.577L289.966 29.3636H288.714L287.083 35.2102H287.003L285.353 29.3636H284.12L286.447 37ZM299.033 37.1591C300.585 37.1591 301.718 36.3835 302.076 35.2301L300.942 34.9119C300.644 35.7074 299.953 36.1051 299.033 36.1051C297.656 36.1051 296.707 35.2152 296.652 33.5795H302.195V33.0824C302.195 30.2386 300.505 29.2642 298.914 29.2642C296.846 29.2642 295.474 30.8949 295.474 33.2415C295.474 35.5881 296.826 37.1591 299.033 37.1591ZM296.652 32.5653C296.732 31.3771 297.572 30.3182 298.914 30.3182C300.187 30.3182 301.002 31.2727 301.002 32.5653H296.652ZM311 40.0227C312.83 40.0227 314.301 39.1875 314.301 37.2188V29.3636H313.168V30.5767H313.048C312.79 30.179 312.312 29.2642 310.821 29.2642C308.892 29.2642 307.56 30.7955 307.56 33.142C307.56 35.5284 308.952 36.8807 310.801 36.8807C312.293 36.8807 312.77 36.0057 313.028 35.5881H313.128V37.1392C313.128 38.4119 312.233 38.9886 311 38.9886C309.613 38.9886 309.126 38.2578 308.812 37.8352L307.878 38.4915C308.355 39.2919 309.295 40.0227 311 40.0227ZM310.96 35.8267C309.489 35.8267 308.733 34.7131 308.733 33.1222C308.733 31.571 309.469 30.3182 310.96 30.3182C312.392 30.3182 313.148 31.4716 313.148 33.1222C313.148 34.8125 312.372 35.8267 310.96 35.8267ZM316.449 37H317.622V29.3636H316.449V37ZM317.045 28.0909C317.503 28.0909 317.881 27.733 317.881 27.2955C317.881 26.858 317.503 26.5 317.045 26.5C316.588 26.5 316.21 26.858 316.21 27.2955C316.21 27.733 316.588 28.0909 317.045 28.0909ZM326.015 29.3636H324.743L322.635 35.4489H322.555L320.447 29.3636H319.175L321.998 37H323.192L326.015 29.3636ZM330.492 37.1591C332.044 37.1591 333.177 36.3835 333.535 35.2301L332.401 34.9119C332.103 35.7074 331.412 36.1051 330.492 36.1051C329.115 36.1051 328.166 35.2152 328.111 33.5795H333.654V33.0824C333.654 30.2386 331.964 29.2642 330.373 29.2642C328.305 29.2642 326.933 30.8949 326.933 33.2415C326.933 35.5881 328.285 37.1591 330.492 37.1591ZM328.111 32.5653C328.191 31.3771 329.031 30.3182 330.373 30.3182C331.646 30.3182 332.461 31.2727 332.461 32.5653H328.111ZM340.132 39.8636C341.191 39.8636 341.937 39.3018 342.379 38.1136L345.631 29.3835L344.348 29.3636L342.24 35.4489H342.161L340.053 29.3636H338.78L341.604 37.0398L341.385 37.6364C340.958 38.7997 340.431 38.9091 339.575 38.6903L339.277 39.7244C339.396 39.7841 339.735 39.8636 340.132 39.8636ZM350.012 37.1591C352.08 37.1591 353.472 35.5881 353.472 33.2216C353.472 30.8352 352.08 29.2642 350.012 29.2642C347.944 29.2642 346.552 30.8352 346.552 33.2216C346.552 35.5881 347.944 37.1591 350.012 37.1591ZM350.012 36.1051C348.441 36.1051 347.725 34.7528 347.725 33.2216C347.725 31.6903 348.441 30.3182 350.012 30.3182C351.583 30.3182 352.299 31.6903 352.299 33.2216C352.299 34.7528 351.583 36.1051 350.012 36.1051ZM360.076 33.8778C360.076 35.3097 358.982 35.9659 358.107 35.9659C357.133 35.9659 356.437 35.25 356.437 34.1364V29.3636H355.263V34.2159C355.263 36.1648 356.297 37.0994 357.729 37.0994C358.883 37.0994 359.638 36.483 359.996 35.7074H360.076V37H361.249V29.3636H360.076V33.8778ZM370.657 29.3636H369.026V27.5341H367.853V29.3636H366.699V30.358H367.853V35.1307C367.853 36.4631 368.926 37.0994 369.921 37.0994C370.358 37.0994 370.637 37.0199 370.796 36.9602L370.557 35.9062C370.458 35.9261 370.299 35.9659 370.04 35.9659C369.523 35.9659 369.026 35.8068 369.026 34.8125V30.358H370.657V29.3636ZM373.759 32.4062C373.759 31.0739 374.609 30.3182 375.767 30.3182C376.871 30.3182 377.537 31.0142 377.537 32.2273V37H378.711V32.1477C378.711 30.1839 377.667 29.2642 376.105 29.2642C374.902 29.2642 374.216 29.7663 373.858 30.5568H373.759V26.8182H372.586V37H373.759V32.4062ZM384.059 37.1591C385.61 37.1591 386.743 36.3835 387.101 35.2301L385.968 34.9119C385.67 35.7074 384.979 36.1051 384.059 36.1051C382.682 36.1051 381.732 35.2152 381.677 33.5795H387.221V33.0824C387.221 30.2386 385.53 29.2642 383.939 29.2642C381.871 29.2642 380.499 30.8949 380.499 33.2415C380.499 35.5881 381.851 37.1591 384.059 37.1591ZM381.677 32.5653C381.757 31.3771 382.597 30.3182 383.939 30.3182C385.212 30.3182 386.028 31.2727 386.028 32.5653H381.677ZM393.102 37H394.236V35.8267H394.375C394.633 36.2443 395.131 37.1591 396.602 37.1591C398.511 37.1591 399.844 35.6278 399.844 33.2017C399.844 30.7955 398.511 29.2642 396.582 29.2642C395.091 29.2642 394.633 30.179 394.375 30.5767H394.275V26.8182H393.102V37ZM394.256 33.1818C394.256 31.4716 395.011 30.3182 396.443 30.3182C397.934 30.3182 398.67 31.571 398.67 33.1818C398.67 34.8125 397.915 36.1051 396.443 36.1051C395.031 36.1051 394.256 34.9119 394.256 33.1818ZM404.84 37.1591C406.391 37.1591 407.525 36.3835 407.883 35.2301L406.749 34.9119C406.451 35.7074 405.76 36.1051 404.84 36.1051C403.463 36.1051 402.513 35.2152 402.459 33.5795H408.002V33.0824C408.002 30.2386 406.312 29.2642 404.721 29.2642C402.653 29.2642 401.28 30.8949 401.28 33.2415C401.28 35.5881 402.633 37.1591 404.84 37.1591ZM402.459 32.5653C402.538 31.3771 403.378 30.3182 404.721 30.3182C405.993 30.3182 406.809 31.2727 406.809 32.5653H402.459ZM415.196 31.0739C414.828 29.9901 414.003 29.2642 412.491 29.2642C410.881 29.2642 409.687 30.179 409.687 31.4716C409.687 32.5256 410.314 33.2315 411.716 33.5597L412.988 33.858C413.759 34.0369 414.122 34.4048 414.122 34.9318C414.122 35.5881 413.426 36.125 412.332 36.125C411.373 36.125 410.771 35.7124 410.562 34.892L409.449 35.1705C409.722 36.468 410.791 37.1591 412.352 37.1591C414.127 37.1591 415.335 36.1896 415.335 34.8722C415.335 33.8082 414.669 33.1371 413.307 32.804L412.173 32.5256C411.268 32.3018 410.861 31.9986 410.861 31.4119C410.861 30.7557 411.557 30.2784 412.491 30.2784C413.515 30.2784 413.938 30.8452 414.142 31.3722L415.196 31.0739ZM420.422 29.3636H418.792V27.5341H417.618V29.3636H416.465V30.358H417.618V35.1307C417.618 36.4631 418.692 37.0994 419.686 37.0994C420.124 37.0994 420.402 37.0199 420.561 36.9602L420.323 35.9062C420.223 35.9261 420.064 35.9659 419.806 35.9659C419.289 35.9659 418.792 35.8068 418.792 34.8125V30.358H420.422V29.3636ZM84.2756 57.1591C85.8267 57.1591 86.9602 56.3835 87.3182 55.2301L86.1847 54.9119C85.8864 55.7074 85.1953 56.1051 84.2756 56.1051C82.8984 56.1051 81.9489 55.2152 81.8942 53.5795H87.4375V53.0824C87.4375 50.2386 85.7472 49.2642 84.1562 49.2642C82.0881 49.2642 80.7159 50.8949 80.7159 53.2415C80.7159 55.5881 82.0682 57.1591 84.2756 57.1591ZM81.8942 52.5653C81.9737 51.3771 82.8139 50.3182 84.1562 50.3182C85.429 50.3182 86.2443 51.2727 86.2443 52.5653H81.8942ZM89.8922 49.3636H88.54L90.9661 53.1818L88.54 57H89.8922L91.7218 54.0369L93.5513 57H94.9036L92.4377 53.1818L94.9036 49.3636H93.5513L91.7218 52.4858L89.8922 49.3636ZM96.5778 59.8636H97.7511V55.8267H97.8505C98.109 56.2443 98.6062 57.1591 100.078 57.1591C101.987 57.1591 103.319 55.6278 103.319 53.2017C103.319 50.7955 101.987 49.2642 100.058 49.2642C98.5664 49.2642 98.109 50.179 97.8505 50.5767H97.7113V49.3636H96.5778V59.8636ZM97.7312 53.1818C97.7312 51.4716 98.4869 50.3182 99.9187 50.3182C101.41 50.3182 102.146 51.571 102.146 53.1818C102.146 54.8125 101.39 56.1051 99.9187 56.1051C98.5067 56.1051 97.7312 54.9119 97.7312 53.1818ZM108.311 57.1591C109.862 57.1591 110.995 56.3835 111.353 55.2301L110.22 54.9119C109.922 55.7074 109.23 56.1051 108.311 56.1051C106.934 56.1051 105.984 55.2152 105.929 53.5795H111.473V53.0824C111.473 50.2386 109.782 49.2642 108.191 49.2642C106.123 49.2642 104.751 50.8949 104.751 53.2415C104.751 55.5881 106.103 57.1591 108.311 57.1591ZM105.929 52.5653C106.009 51.3771 106.849 50.3182 108.191 50.3182C109.464 50.3182 110.279 51.2727 110.279 52.5653H105.929ZM113.257 57H114.431V52.1676C114.431 51.1335 115.246 50.3778 116.36 50.3778C116.673 50.3778 116.996 50.4375 117.076 50.4574V49.2642C116.941 49.2543 116.633 49.2443 116.459 49.2443C115.544 49.2443 114.749 49.7614 114.471 50.517H114.391V49.3636H113.257V57ZM118.466 57H119.64V49.3636H118.466V57ZM119.063 48.0909C119.52 48.0909 119.898 47.733 119.898 47.2955C119.898 46.858 119.52 46.5 119.063 46.5C118.606 46.5 118.228 46.858 118.228 47.2955C118.228 47.733 118.606 48.0909 119.063 48.0909ZM124.99 57.1591C126.542 57.1591 127.675 56.3835 128.033 55.2301L126.9 54.9119C126.601 55.7074 125.91 56.1051 124.99 56.1051C123.613 56.1051 122.664 55.2152 122.609 53.5795H128.152V53.0824C128.152 50.2386 126.462 49.2642 124.871 49.2642C122.803 49.2642 121.431 50.8949 121.431 53.2415C121.431 55.5881 122.783 57.1591 124.99 57.1591ZM122.609 52.5653C122.689 51.3771 123.529 50.3182 124.871 50.3182C126.144 50.3182 126.959 51.2727 126.959 52.5653H122.609ZM131.11 52.4062C131.11 51.0739 131.936 50.3182 133.059 50.3182C134.148 50.3182 134.809 51.0291 134.809 52.2273V57H135.983V52.1477C135.983 50.1989 134.944 49.2642 133.397 49.2642C132.244 49.2642 131.528 49.7812 131.17 50.5568H131.071V49.3636H129.937V57H131.11V52.4062ZM141.229 57.1591C142.919 57.1591 144.033 56.125 144.232 54.7727H143.058C142.84 55.608 142.144 56.1051 141.229 56.1051C139.837 56.1051 138.942 54.9517 138.942 53.1818C138.942 51.4517 139.857 50.3182 141.229 50.3182C142.263 50.3182 142.879 50.9545 143.058 51.6506H144.232C144.033 50.2188 142.82 49.2642 141.209 49.2642C139.141 49.2642 137.769 50.8949 137.769 53.2216C137.769 55.5085 139.081 57.1591 141.229 57.1591ZM149.149 57.1591C150.7 57.1591 151.833 56.3835 152.191 55.2301L151.058 54.9119C150.759 55.7074 150.068 56.1051 149.149 56.1051C147.771 56.1051 146.822 55.2152 146.767 53.5795H152.311V53.0824C152.311 50.2386 150.62 49.2642 149.029 49.2642C146.961 49.2642 145.589 50.8949 145.589 53.2415C145.589 55.5881 146.941 57.1591 149.149 57.1591ZM146.767 52.5653C146.847 51.3771 147.687 50.3182 149.029 50.3182C150.302 50.3182 151.117 51.2727 151.117 52.5653H146.767ZM161.135 57.1591C163.203 57.1591 164.595 55.5881 164.595 53.2216C164.595 50.8352 163.203 49.2642 161.135 49.2642C159.067 49.2642 157.675 50.8352 157.675 53.2216C157.675 55.5881 159.067 57.1591 161.135 57.1591ZM161.135 56.1051C159.564 56.1051 158.848 54.7528 158.848 53.2216C158.848 51.6903 159.564 50.3182 161.135 50.3182C162.706 50.3182 163.422 51.6903 163.422 53.2216C163.422 54.7528 162.706 56.1051 161.135 56.1051ZM167.56 52.4062C167.56 51.0739 168.385 50.3182 169.509 50.3182C170.597 50.3182 171.259 51.0291 171.259 52.2273V57H172.432V52.1477C172.432 50.1989 171.393 49.2642 169.847 49.2642C168.693 49.2642 167.977 49.7812 167.619 50.5568H167.52V49.3636H166.386V57H167.56V52.4062ZM181.616 57.1591C183.684 57.1591 185.076 55.5881 185.076 53.2216C185.076 50.8352 183.684 49.2642 181.616 49.2642C179.547 49.2642 178.155 50.8352 178.155 53.2216C178.155 55.5881 179.547 57.1591 181.616 57.1591ZM181.616 56.1051C180.045 56.1051 179.329 54.7528 179.329 53.2216C179.329 51.6903 180.045 50.3182 181.616 50.3182C183.187 50.3182 183.903 51.6903 183.903 53.2216C183.903 54.7528 183.187 56.1051 181.616 56.1051ZM191.679 53.8778C191.679 55.3097 190.586 55.9659 189.711 55.9659C188.736 55.9659 188.04 55.25 188.04 54.1364V49.3636H186.867V54.2159C186.867 56.1648 187.901 57.0994 189.333 57.0994C190.486 57.0994 191.242 56.483 191.6 55.7074H191.679V57H192.853V49.3636H191.679V53.8778ZM195.002 57H196.175V52.1676C196.175 51.1335 196.99 50.3778 198.104 50.3778C198.417 50.3778 198.74 50.4375 198.82 50.4574V49.2642C198.686 49.2543 198.377 49.2443 198.203 49.2443C197.289 49.2443 196.493 49.7614 196.215 50.517H196.135V49.3636H195.002V57ZM205.878 57H207.032L208.702 51.1335H208.821L210.492 57H211.645L213.972 49.3636H212.739L211.088 55.1903H211.009L209.398 49.3636H208.145L206.515 55.2102H206.435L204.784 49.3636H203.551L205.878 57ZM218.465 57.1591C220.016 57.1591 221.15 56.3835 221.508 55.2301L220.374 54.9119C220.076 55.7074 219.385 56.1051 218.465 56.1051C217.088 56.1051 216.138 55.2152 216.084 53.5795H221.627V53.0824C221.627 50.2386 219.937 49.2642 218.346 49.2642C216.278 49.2642 214.905 50.8949 214.905 53.2415C214.905 55.5881 216.258 57.1591 218.465 57.1591ZM216.084 52.5653C216.163 51.3771 217.003 50.3182 218.346 50.3182C219.618 50.3182 220.434 51.2727 220.434 52.5653H216.084ZM223.571 57H224.704V55.8267H224.844C225.102 56.2443 225.599 57.1591 227.071 57.1591C228.98 57.1591 230.312 55.6278 230.312 53.2017C230.312 50.7955 228.98 49.2642 227.051 49.2642C225.559 49.2642 225.102 50.179 224.844 50.5767H224.744V46.8182H223.571V57ZM224.724 53.1818C224.724 51.4716 225.48 50.3182 226.912 50.3182C228.403 50.3182 229.139 51.571 229.139 53.1818C229.139 54.8125 228.383 56.1051 226.912 56.1051C225.5 56.1051 224.724 54.9119 224.724 53.1818ZM237.516 51.0739C237.148 49.9901 236.323 49.2642 234.812 49.2642C233.201 49.2642 232.008 50.179 232.008 51.4716C232.008 52.5256 232.634 53.2315 234.036 53.5597L235.309 53.858C236.079 54.0369 236.442 54.4048 236.442 54.9318C236.442 55.5881 235.746 56.125 234.653 56.125C233.693 56.125 233.091 55.7124 232.883 54.892L231.769 55.1705C232.042 56.468 233.111 57.1591 234.672 57.1591C236.447 57.1591 237.655 56.1896 237.655 54.8722C237.655 53.8082 236.989 53.1371 235.627 52.804L234.493 52.5256C233.589 52.3018 233.181 51.9986 233.181 51.4119C233.181 50.7557 233.877 50.2784 234.812 50.2784C235.836 50.2784 236.258 50.8452 236.462 51.3722L237.516 51.0739ZM239.422 57H240.595V49.3636H239.422V57ZM240.018 48.0909C240.475 48.0909 240.853 47.733 240.853 47.2955C240.853 46.858 240.475 46.5 240.018 46.5C239.561 46.5 239.183 46.858 239.183 47.2955C239.183 47.733 239.561 48.0909 240.018 48.0909ZM246.065 49.3636H244.434V47.5341H243.261V49.3636H242.107V50.358H243.261V55.1307C243.261 56.4631 244.335 57.0994 245.329 57.0994C245.767 57.0994 246.045 57.0199 246.204 56.9602L245.965 55.9062C245.866 55.9261 245.707 55.9659 245.448 55.9659C244.931 55.9659 244.434 55.8068 244.434 54.8125V50.358H246.065V49.3636ZM250.949 57.1591C252.501 57.1591 253.634 56.3835 253.992 55.2301L252.858 54.9119C252.56 55.7074 251.869 56.1051 250.949 56.1051C249.572 56.1051 248.623 55.2152 248.568 53.5795H254.111V53.0824C254.111 50.2386 252.421 49.2642 250.83 49.2642C248.762 49.2642 247.39 50.8949 247.39 53.2415C247.39 55.5881 248.742 57.1591 250.949 57.1591ZM248.568 52.5653C248.648 51.3771 249.488 50.3182 250.83 50.3182C252.103 50.3182 252.918 51.2727 252.918 52.5653H248.568ZM256.751 57.0795C257.243 57.0795 257.646 56.6768 257.646 56.1847C257.646 55.6925 257.243 55.2898 256.751 55.2898C256.259 55.2898 255.856 55.6925 255.856 56.1847C255.856 56.6768 256.259 57.0795 256.751 57.0795Z" fill="#0D0C22"/>
<path d="M263.848 57H265.081V53.0227H267.308C267.398 53.0227 267.482 53.0227 267.567 53.0178L269.715 57H271.146L268.845 52.794C270.142 52.3516 270.749 51.2926 270.749 49.9403C270.749 48.1406 269.675 46.8182 267.289 46.8182H263.848V57ZM265.081 51.9091V47.9119H267.249C268.899 47.9119 269.536 48.7173 269.536 49.9403C269.536 51.1634 268.899 51.9091 267.269 51.9091H265.081ZM275.764 57.1591C277.315 57.1591 278.449 56.3835 278.806 55.2301L277.673 54.9119C277.375 55.7074 276.684 56.1051 275.764 56.1051C274.387 56.1051 273.437 55.2152 273.382 53.5795H278.926V53.0824C278.926 50.2386 277.235 49.2642 275.645 49.2642C273.576 49.2642 272.204 50.8949 272.204 53.2415C272.204 55.5881 273.556 57.1591 275.764 57.1591ZM273.382 52.5653C273.462 51.3771 274.302 50.3182 275.645 50.3182C276.917 50.3182 277.733 51.2727 277.733 52.5653H273.382ZM282.958 57.179C284.29 57.179 284.986 56.4631 285.225 55.9659H285.284V57H286.458V51.9688C286.458 49.5426 284.608 49.2642 283.634 49.2642C282.48 49.2642 281.168 49.6619 280.571 51.054L281.685 51.4517C281.944 50.8949 282.555 50.2983 283.674 50.2983C284.752 50.2983 285.284 50.87 285.284 51.8494V51.8892C285.284 52.456 284.708 52.4062 283.316 52.5852C281.899 52.7692 280.353 53.0824 280.353 54.8324C280.353 56.3239 281.506 57.179 282.958 57.179ZM283.137 56.125C282.202 56.125 281.526 55.7074 281.526 54.892C281.526 53.9972 282.341 53.7188 283.256 53.5994C283.753 53.5398 285.086 53.4006 285.284 53.1619V54.2358C285.284 55.1903 284.529 56.125 283.137 56.125ZM291.483 57.1591C292.954 57.1591 293.452 56.2443 293.71 55.8267H293.849V57H294.983V46.8182H293.809V50.5767H293.71C293.452 50.179 292.994 49.2642 291.503 49.2642C289.574 49.2642 288.241 50.7955 288.241 53.2017C288.241 55.6278 289.574 57.1591 291.483 57.1591ZM291.642 56.1051C290.17 56.1051 289.415 54.8125 289.415 53.1818C289.415 51.571 290.15 50.3182 291.642 50.3182C293.074 50.3182 293.829 51.4716 293.829 53.1818C293.829 54.9119 293.054 56.1051 291.642 56.1051ZM304.334 57.1591C306.025 57.1591 307.138 56.125 307.337 54.7727H306.164C305.945 55.608 305.249 56.1051 304.334 56.1051C302.942 56.1051 302.047 54.9517 302.047 53.1818C302.047 51.4517 302.962 50.3182 304.334 50.3182C305.368 50.3182 305.985 50.9545 306.164 51.6506H307.337C307.138 50.2188 305.925 49.2642 304.314 49.2642C302.246 49.2642 300.874 50.8949 300.874 53.2216C300.874 55.5085 302.187 57.1591 304.334 57.1591ZM312.155 57.1591C314.223 57.1591 315.615 55.5881 315.615 53.2216C315.615 50.8352 314.223 49.2642 312.155 49.2642C310.086 49.2642 308.694 50.8352 308.694 53.2216C308.694 55.5881 310.086 57.1591 312.155 57.1591ZM312.155 56.1051C310.584 56.1051 309.868 54.7528 309.868 53.2216C309.868 51.6903 310.584 50.3182 312.155 50.3182C313.726 50.3182 314.442 51.6903 314.442 53.2216C314.442 54.7528 313.726 56.1051 312.155 56.1051ZM320.508 57.1591C322.576 57.1591 323.968 55.5881 323.968 53.2216C323.968 50.8352 322.576 49.2642 320.508 49.2642C318.44 49.2642 317.048 50.8352 317.048 53.2216C317.048 55.5881 318.44 57.1591 320.508 57.1591ZM320.508 56.1051C318.937 56.1051 318.221 54.7528 318.221 53.2216C318.221 51.6903 318.937 50.3182 320.508 50.3182C322.079 50.3182 322.795 51.6903 322.795 53.2216C322.795 54.7528 322.079 56.1051 320.508 56.1051ZM325.759 57H326.933V54.1413L327.753 53.3807L330.612 57H332.103L328.638 52.625L331.865 49.3636H330.413L327.072 52.7642H326.933V46.8182H325.759V57ZM333.375 57H334.548V49.3636H333.375V57ZM333.971 48.0909C334.429 48.0909 334.806 47.733 334.806 47.2955C334.806 46.858 334.429 46.5 333.971 46.5C333.514 46.5 333.136 46.858 333.136 47.2955C333.136 47.733 333.514 48.0909 333.971 48.0909ZM339.899 57.1591C341.45 57.1591 342.583 56.3835 342.941 55.2301L341.808 54.9119C341.509 55.7074 340.818 56.1051 339.899 56.1051C338.521 56.1051 337.572 55.2152 337.517 53.5795H343.061V53.0824C343.061 50.2386 341.37 49.2642 339.779 49.2642C337.711 49.2642 336.339 50.8949 336.339 53.2415C336.339 55.5881 337.691 57.1591 339.899 57.1591ZM337.517 52.5653C337.597 51.3771 338.437 50.3182 339.779 50.3182C341.052 50.3182 341.867 51.2727 341.867 52.5653H337.517ZM350.254 51.0739C349.887 49.9901 349.061 49.2642 347.55 49.2642C345.939 49.2642 344.746 50.179 344.746 51.4716C344.746 52.5256 345.372 53.2315 346.774 53.5597L348.047 53.858C348.818 54.0369 349.181 54.4048 349.181 54.9318C349.181 55.5881 348.485 56.125 347.391 56.125C346.431 56.125 345.83 55.7124 345.621 54.892L344.507 55.1705C344.781 56.468 345.85 57.1591 347.411 57.1591C349.186 57.1591 350.394 56.1896 350.394 54.8722C350.394 53.8082 349.727 53.1371 348.365 52.804L347.232 52.5256C346.327 52.3018 345.919 51.9986 345.919 51.4119C345.919 50.7557 346.615 50.2784 347.55 50.2784C348.574 50.2784 348.997 50.8452 349.2 51.3722L350.254 51.0739ZM356.097 59.8636H357.271V55.8267H357.37C357.629 56.2443 358.126 57.1591 359.597 57.1591C361.506 57.1591 362.839 55.6278 362.839 53.2017C362.839 50.7955 361.506 49.2642 359.577 49.2642C358.086 49.2642 357.629 50.179 357.37 50.5767H357.231V49.3636H356.097V59.8636ZM357.251 53.1818C357.251 51.4716 358.006 50.3182 359.438 50.3182C360.93 50.3182 361.665 51.571 361.665 53.1818C361.665 54.8125 360.91 56.1051 359.438 56.1051C358.026 56.1051 357.251 54.9119 357.251 53.1818ZM367.731 57.1591C369.799 57.1591 371.191 55.5881 371.191 53.2216C371.191 50.8352 369.799 49.2642 367.731 49.2642C365.663 49.2642 364.271 50.8352 364.271 53.2216C364.271 55.5881 365.663 57.1591 367.731 57.1591ZM367.731 56.1051C366.16 56.1051 365.444 54.7528 365.444 53.2216C365.444 51.6903 366.16 50.3182 367.731 50.3182C369.302 50.3182 370.018 51.6903 370.018 53.2216C370.018 54.7528 369.302 56.1051 367.731 56.1051ZM374.155 46.8182H372.982V57H374.155V46.8182ZM376.304 57H377.478V49.3636H376.304V57ZM376.901 48.0909C377.358 48.0909 377.736 47.733 377.736 47.2955C377.736 46.858 377.358 46.5 376.901 46.5C376.444 46.5 376.066 46.858 376.066 47.2955C376.066 47.733 376.444 48.0909 376.901 48.0909ZM382.729 57.1591C384.419 57.1591 385.533 56.125 385.732 54.7727H384.558C384.34 55.608 383.644 56.1051 382.729 56.1051C381.337 56.1051 380.442 54.9517 380.442 53.1818C380.442 51.4517 381.357 50.3182 382.729 50.3182C383.763 50.3182 384.379 50.9545 384.558 51.6506H385.732C385.533 50.2188 384.32 49.2642 382.709 49.2642C380.641 49.2642 379.269 50.8949 379.269 53.2216C379.269 55.5085 380.581 57.1591 382.729 57.1591ZM387.447 57H388.62V49.3636H387.447V57ZM388.044 48.0909C388.501 48.0909 388.879 47.733 388.879 47.2955C388.879 46.858 388.501 46.5 388.044 46.5C387.586 46.5 387.208 46.858 387.208 47.2955C387.208 47.733 387.586 48.0909 388.044 48.0909ZM393.971 57.1591C395.522 57.1591 396.656 56.3835 397.013 55.2301L395.88 54.9119C395.582 55.7074 394.891 56.1051 393.971 56.1051C392.594 56.1051 391.644 55.2152 391.589 53.5795H397.133V53.0824C397.133 50.2386 395.442 49.2642 393.852 49.2642C391.783 49.2642 390.411 50.8949 390.411 53.2415C390.411 55.5881 391.763 57.1591 393.971 57.1591ZM391.589 52.5653C391.669 51.3771 392.509 50.3182 393.852 50.3182C395.124 50.3182 395.94 51.2727 395.94 52.5653H391.589ZM404.327 51.0739C403.959 49.9901 403.134 49.2642 401.622 49.2642C400.011 49.2642 398.818 50.179 398.818 51.4716C398.818 52.5256 399.445 53.2315 400.847 53.5597L402.119 53.858C402.89 54.0369 403.253 54.4048 403.253 54.9318C403.253 55.5881 402.557 56.125 401.463 56.125C400.504 56.125 399.902 55.7124 399.693 54.892L398.58 55.1705C398.853 56.468 399.922 57.1591 401.483 57.1591C403.258 57.1591 404.466 56.1896 404.466 54.8722C404.466 53.8082 403.8 53.1371 402.438 52.804L401.304 52.5256C400.399 52.3018 399.991 51.9986 399.991 51.4119C399.991 50.7557 400.688 50.2784 401.622 50.2784C402.646 50.2784 403.069 50.8452 403.273 51.3722L404.327 51.0739ZM407.087 57.0795C407.579 57.0795 407.982 56.6768 407.982 56.1847C407.982 55.6925 407.579 55.2898 407.087 55.2898C406.595 55.2898 406.192 55.6925 406.192 56.1847C406.192 56.6768 406.595 57.0795 407.087 57.0795Z" fill="#EA4C89"/>
<rect x="437" y="28" width="63" height="28" rx="8" fill="#0D0C22" fill-opacity="0.05"/>
<path d="M450.784 46C453.443 46 454.982 44.3509 454.982 41.6236C454.982 38.9091 453.443 37.2727 450.874 37.2727H447.959V46H450.784ZM449.276 44.8494V38.4233H450.793C452.702 38.4233 453.686 39.5653 453.686 41.6236C453.686 43.6903 452.702 44.8494 450.712 44.8494H449.276ZM459.338 46.1321C460.765 46.1321 461.775 45.429 462.065 44.3636L460.859 44.1463C460.629 44.7642 460.075 45.0795 459.35 45.0795C458.26 45.0795 457.527 44.3722 457.493 43.1108H462.146V42.6591C462.146 40.294 460.731 39.3693 459.248 39.3693C457.424 39.3693 456.223 40.7585 456.223 42.7699C456.223 44.8026 457.407 46.1321 459.338 46.1321ZM457.497 42.1562C457.548 41.2273 458.221 40.4219 459.257 40.4219C460.245 40.4219 460.893 41.1548 460.897 42.1562H457.497ZM466.317 46.1321C467.864 46.1321 468.865 45.2031 469.006 43.929H467.766C467.604 44.6364 467.054 45.054 466.325 45.054C465.247 45.054 464.553 44.1548 464.553 42.7273C464.553 41.3253 465.26 40.4432 466.325 40.4432C467.135 40.4432 467.629 40.9545 467.766 41.5682H469.006C468.869 40.2472 467.791 39.3693 466.304 39.3693C464.459 39.3693 463.266 40.7585 463.266 42.7571C463.266 44.7301 464.416 46.1321 466.317 46.1321ZM471.642 37.2727H470.368V46H471.642V37.2727ZM473.357 46H474.631V39.4545H473.357V46ZM474 38.4446C474.439 38.4446 474.805 38.1037 474.805 37.6861C474.805 37.2685 474.439 36.9233 474 36.9233C473.557 36.9233 473.195 37.2685 473.195 37.6861C473.195 38.1037 473.557 38.4446 474 38.4446ZM477.619 42.1136C477.619 41.0696 478.258 40.473 479.145 40.473C480.01 40.473 480.534 41.0398 480.534 41.9901V46H481.808V41.8366C481.808 40.2173 480.917 39.3693 479.579 39.3693C478.595 39.3693 477.951 39.8253 477.649 40.5199H477.568V39.4545H476.345V46H477.619V42.1136ZM486.338 46.1321C487.765 46.1321 488.775 45.429 489.065 44.3636L487.859 44.1463C487.629 44.7642 487.075 45.0795 486.35 45.0795C485.26 45.0795 484.527 44.3722 484.493 43.1108H489.146V42.6591C489.146 40.294 487.731 39.3693 486.248 39.3693C484.424 39.3693 483.223 40.7585 483.223 42.7699C483.223 44.8026 484.407 46.1321 486.338 46.1321ZM484.497 42.1562C484.548 41.2273 485.221 40.4219 486.257 40.4219C487.245 40.4219 487.893 41.1548 487.897 42.1562H484.497Z" fill="#0D0C22"/>
<rect x="510" y="28" width="52" height="28" rx="8" fill="#EA4C89"/>
<path d="M521.696 46L522.497 43.6903H525.906L526.703 46H528.101L524.96 37.2727H523.439L520.298 46H521.696ZM522.881 42.5824L524.168 38.858H524.236L525.523 42.5824H522.881ZM530.533 37.2727H529.259V46H530.533V37.2727ZM533.521 37.2727H532.247V46H533.521V37.2727ZM537.993 46.1321C539.838 46.1321 541.044 44.7812 541.044 42.7571C541.044 40.7202 539.838 39.3693 537.993 39.3693C536.147 39.3693 534.941 40.7202 534.941 42.7571C534.941 44.7812 536.147 46.1321 537.993 46.1321ZM537.997 45.0625C536.791 45.0625 536.228 44.0099 536.228 42.7528C536.228 41.5 536.791 40.4347 537.997 40.4347C539.194 40.4347 539.757 41.5 539.757 42.7528C539.757 44.0099 539.194 45.0625 537.997 45.0625ZM543.686 46H544.981L546.311 41.2741H546.409L547.738 46H549.038L550.96 39.4545H549.643L548.369 44.2401H548.305L547.027 39.4545H545.71L544.423 44.2614H544.359L543.076 39.4545H541.76L543.686 46Z" fill="white"/>
</g>
<defs>
<filter id="filter0_dd_23_541" x="0" y="0" width="596" height="108" filterUnits="userSpaceOnUse" color-interpolation-filters="sRGB">
<feFlood flood-opacity="0" result="BackgroundImageFix"/>
<feColorMatrix in="SourceAlpha" type="matrix" values="0 0 0 0 0 0 0 0 0 0 0 0 0 0 0 0 0 0 127 0" result="hardAlpha"/>
<feOffset/>
<feGaussianBlur stdDeviation="0.5"/>
<feColorMatrix type="matrix" values="0 0 0 0 0.376471 0 0 0 0 0.376471 0 0 0 0 0.376471 0 0 0 0.1 0"/>
<feBlend mode="normal" in2="BackgroundImageFix" result="effect1_dropShadow_23_541"/>
<feColorMatrix in="SourceAlpha" type="matrix" values="0 0 0 0 0 0 0 0 0 0 0 0 0 0 0 0 0 0 127 0" result="hardAlpha"/>
<feMorphology radius="6" operator="erode" in="SourceAlpha" result="effect2_dropShadow_23_541"/>
<feOffset dy="12"/>
<feGaussianBlur stdDeviation="12"/>
<feColorMatrix type="matrix" values="0 0 0 0 0.376471 0 0 0 0 0.376471 0 0 0 0 0.376471 0 0 0 0.15 0"/>
<feBlend mode="normal" in2="effect1_dropShadow_23_541" result="effect2_dropShadow_23_541"/>
<feBlend mode="normal" in="SourceGraphic" in2="effect2_dropShadow_23_541" result="shape"/>
</filter>
</defs>
</svg>
