<svg width="384" height="324" viewBox="0 0 384 324" fill="none" xmlns="http://www.w3.org/2000/svg">
<g filter="url(#filter0_d_23_538)">
<rect x="32" y="24" width="320" height="260" rx="20" fill="white"/>
<rect x="32" y="24" width="320" height="260" rx="20" fill="url(#paint0_linear_23_538)" fill-opacity="0.15"/>
<path d="M151.173 90.448C154.841 90.448 158.061 88.572 159.769 85.66L154.897 82.86C154.253 84.148 152.853 84.96 151.173 84.96C148.401 84.96 146.525 82.916 146.525 80.2C146.525 77.484 148.401 75.44 151.173 75.44C152.825 75.44 154.253 76.252 154.897 77.512L159.769 74.712C158.061 71.828 154.841 69.952 151.173 69.952C145.237 69.952 140.925 74.404 140.925 80.2C140.925 85.996 145.237 90.448 151.173 90.448ZM168.222 90.392C172.422 90.392 175.754 87.2 175.754 83C175.754 78.8 172.422 75.608 168.222 75.608C164.022 75.608 160.69 78.8 160.69 83C160.69 87.2 164.078 90.392 168.222 90.392ZM168.222 85.464C166.85 85.464 165.87 84.456 165.87 83C165.87 81.544 166.85 80.536 168.222 80.536C169.594 80.536 170.574 81.544 170.574 83C170.574 84.456 169.594 85.464 168.222 85.464ZM184.3 90.392C188.5 90.392 191.832 87.2 191.832 83C191.832 78.8 188.5 75.608 184.3 75.608C180.1 75.608 176.768 78.8 176.768 83C176.768 87.2 180.156 90.392 184.3 90.392ZM184.3 85.464C182.928 85.464 181.948 84.456 181.948 83C181.948 81.544 182.928 80.536 184.3 80.536C185.672 80.536 186.652 81.544 186.652 83C186.652 84.456 185.672 85.464 184.3 85.464ZM207.742 90L203.206 83L207.462 76H201.582L198.642 81.432V70.4H193.462V90H198.642V84.4L202.002 90H207.742ZM211.46 74.936C213 74.936 214.316 73.62 214.316 72.08C214.316 70.54 213 69.224 211.46 69.224C209.892 69.224 208.576 70.54 208.576 72.08C208.576 73.62 209.892 74.936 211.46 74.936ZM208.856 90H214.036V76H208.856V90ZM220.832 84.764H230.128C230.296 84.092 230.352 83.532 230.352 82.944C230.352 78.772 227.328 75.608 223.044 75.608C218.732 75.608 215.596 78.828 215.596 83.056C215.596 87.172 218.62 90.392 223.52 90.392C225.788 90.392 228 89.692 229.456 88.124L226.068 85.268C225.256 85.94 224.556 86.164 223.688 86.164C222.568 86.164 221.392 85.94 220.832 84.764ZM220.748 81.432C221.168 80.284 222.12 79.752 223.184 79.752C224.192 79.752 225.088 80.172 225.452 81.432H220.748ZM236.345 80.116C236.345 79.752 236.653 79.528 237.213 79.528C237.829 79.528 238.417 79.864 238.781 80.704L243.065 79.164C241.945 76.476 239.761 75.608 236.989 75.608C234.189 75.608 231.193 77.176 231.193 80.424C231.193 85.548 237.941 84.456 237.941 85.856C237.941 86.248 237.577 86.472 236.989 86.472C236.065 86.472 235.393 86.08 235.001 85.044L230.493 87.06C231.613 89.58 233.937 90.392 237.045 90.392C239.677 90.392 243.345 89.356 243.345 85.548C243.345 80.088 236.345 81.544 236.345 80.116Z" fill="#15295A"/>
<path d="M68.1477 122H69.6023L72.1705 112.727H72.2614L74.8295 122H76.2841L79.4659 110.364H78.0341L75.6023 119.841H75.4886L73.0114 110.364H71.4205L68.9432 119.841H68.8295L66.3977 110.364H64.9659L68.1477 122ZM83.8864 122.182C85.6591 122.182 86.9545 121.295 87.3636 119.977L86.0682 119.614C85.7273 120.523 84.9375 120.977 83.8864 120.977C82.3125 120.977 81.2273 119.96 81.1648 118.091H87.5V117.523C87.5 114.273 85.5682 113.159 83.75 113.159C81.3864 113.159 79.8182 115.023 79.8182 117.705C79.8182 120.386 81.3636 122.182 83.8864 122.182ZM81.1648 116.932C81.2557 115.574 82.2159 114.364 83.75 114.364C85.2045 114.364 86.1364 115.455 86.1364 116.932H81.1648ZM99.5398 118.432C99.5398 120.068 98.2898 120.818 97.2898 120.818C96.1761 120.818 95.3807 120 95.3807 118.727V113.273H94.0398V118.818C94.0398 121.045 95.2216 122.114 96.858 122.114C98.1761 122.114 99.0398 121.409 99.4489 120.523H99.5398V122H100.881V113.273H99.5398V118.432ZM109.518 115.227C109.098 113.989 108.155 113.159 106.428 113.159C104.587 113.159 103.223 114.205 103.223 115.682C103.223 116.886 103.939 117.693 105.541 118.068L106.996 118.409C107.876 118.614 108.291 119.034 108.291 119.636C108.291 120.386 107.496 121 106.246 121C105.149 121 104.462 120.528 104.223 119.591L102.95 119.909C103.263 121.392 104.484 122.182 106.268 122.182C108.297 122.182 109.678 121.074 109.678 119.568C109.678 118.352 108.916 117.585 107.359 117.205L106.064 116.886C105.03 116.631 104.564 116.284 104.564 115.614C104.564 114.864 105.359 114.318 106.428 114.318C107.598 114.318 108.081 114.966 108.314 115.568L109.518 115.227ZM115.355 122.182C117.128 122.182 118.423 121.295 118.832 119.977L117.537 119.614C117.196 120.523 116.406 120.977 115.355 120.977C113.781 120.977 112.696 119.96 112.634 118.091H118.969V117.523C118.969 114.273 117.037 113.159 115.219 113.159C112.855 113.159 111.287 115.023 111.287 117.705C111.287 120.386 112.832 122.182 115.355 122.182ZM112.634 116.932C112.724 115.574 113.685 114.364 115.219 114.364C116.673 114.364 117.605 115.455 117.605 116.932H112.634ZM129.054 122.182C130.986 122.182 132.259 121 132.486 119.455H131.145C130.895 120.409 130.099 120.977 129.054 120.977C127.463 120.977 126.44 119.659 126.44 117.636C126.44 115.659 127.486 114.364 129.054 114.364C130.236 114.364 130.94 115.091 131.145 115.886H132.486C132.259 114.25 130.872 113.159 129.031 113.159C126.668 113.159 125.099 115.023 125.099 117.682C125.099 120.295 126.599 122.182 129.054 122.182ZM137.991 122.182C140.355 122.182 141.946 120.386 141.946 117.682C141.946 114.955 140.355 113.159 137.991 113.159C135.628 113.159 134.037 114.955 134.037 117.682C134.037 120.386 135.628 122.182 137.991 122.182ZM137.991 120.977C136.196 120.977 135.378 119.432 135.378 117.682C135.378 115.932 136.196 114.364 137.991 114.364C139.787 114.364 140.605 115.932 140.605 117.682C140.605 119.432 139.787 120.977 137.991 120.977ZM147.538 122.182C149.902 122.182 151.493 120.386 151.493 117.682C151.493 114.955 149.902 113.159 147.538 113.159C145.175 113.159 143.584 114.955 143.584 117.682C143.584 120.386 145.175 122.182 147.538 122.182ZM147.538 120.977C145.743 120.977 144.925 119.432 144.925 117.682C144.925 115.932 145.743 114.364 147.538 114.364C149.334 114.364 150.152 115.932 150.152 117.682C150.152 119.432 149.334 120.977 147.538 120.977ZM153.54 122H154.881V118.733L155.818 117.864L159.085 122H160.79L156.83 117L160.517 113.273H158.858L155.04 117.159H154.881V110.364H153.54V122ZM162.243 122H163.584V113.273H162.243V122ZM162.925 111.818C163.447 111.818 163.879 111.409 163.879 110.909C163.879 110.409 163.447 110 162.925 110C162.402 110 161.97 110.409 161.97 110.909C161.97 111.409 162.402 111.818 162.925 111.818ZM169.699 122.182C171.472 122.182 172.767 121.295 173.176 119.977L171.881 119.614C171.54 120.523 170.75 120.977 169.699 120.977C168.125 120.977 167.04 119.96 166.977 118.091H173.312V117.523C173.312 114.273 171.381 113.159 169.562 113.159C167.199 113.159 165.631 115.023 165.631 117.705C165.631 120.386 167.176 122.182 169.699 122.182ZM166.977 116.932C167.068 115.574 168.028 114.364 169.562 114.364C171.017 114.364 171.949 115.455 171.949 116.932H166.977ZM181.534 115.227C181.114 113.989 180.17 113.159 178.443 113.159C176.602 113.159 175.239 114.205 175.239 115.682C175.239 116.886 175.955 117.693 177.557 118.068L179.011 118.409C179.892 118.614 180.307 119.034 180.307 119.636C180.307 120.386 179.511 121 178.261 121C177.165 121 176.477 120.528 176.239 119.591L174.966 119.909C175.278 121.392 176.5 122.182 178.284 122.182C180.312 122.182 181.693 121.074 181.693 119.568C181.693 118.352 180.932 117.585 179.375 117.205L178.08 116.886C177.045 116.631 176.58 116.284 176.58 115.614C176.58 114.864 177.375 114.318 178.443 114.318C179.614 114.318 180.097 114.966 180.33 115.568L181.534 115.227ZM192.007 113.273H190.143V111.182H188.803V113.273H187.484V114.409H188.803V119.864C188.803 121.386 190.03 122.114 191.166 122.114C191.666 122.114 191.984 122.023 192.166 121.955L191.893 120.75C191.78 120.773 191.598 120.818 191.303 120.818C190.712 120.818 190.143 120.636 190.143 119.5V114.409H192.007V113.273ZM197.476 122.182C199.839 122.182 201.43 120.386 201.43 117.682C201.43 114.955 199.839 113.159 197.476 113.159C195.112 113.159 193.521 114.955 193.521 117.682C193.521 120.386 195.112 122.182 197.476 122.182ZM197.476 120.977C195.68 120.977 194.862 119.432 194.862 117.682C194.862 115.932 195.68 114.364 197.476 114.364C199.271 114.364 200.089 115.932 200.089 117.682C200.089 119.432 199.271 120.977 197.476 120.977ZM211.636 122.182C213.409 122.182 214.705 121.295 215.114 119.977L213.818 119.614C213.477 120.523 212.688 120.977 211.636 120.977C210.062 120.977 208.977 119.96 208.915 118.091H215.25V117.523C215.25 114.273 213.318 113.159 211.5 113.159C209.136 113.159 207.568 115.023 207.568 117.705C207.568 120.386 209.114 122.182 211.636 122.182ZM208.915 116.932C209.006 115.574 209.966 114.364 211.5 114.364C212.955 114.364 213.886 115.455 213.886 116.932H208.915ZM218.631 116.75C218.631 115.227 219.574 114.364 220.858 114.364C222.102 114.364 222.858 115.176 222.858 116.545V122H224.199V116.455C224.199 114.227 223.011 113.159 221.244 113.159C219.926 113.159 219.108 113.75 218.699 114.636H218.585V113.273H217.29V122H218.631V116.75ZM232.831 115.227C232.411 113.989 231.467 113.159 229.74 113.159C227.899 113.159 226.536 114.205 226.536 115.682C226.536 116.886 227.251 117.693 228.854 118.068L230.308 118.409C231.189 118.614 231.604 119.034 231.604 119.636C231.604 120.386 230.808 121 229.558 121C228.462 121 227.774 120.528 227.536 119.591L226.263 119.909C226.575 121.392 227.797 122.182 229.581 122.182C231.609 122.182 232.99 121.074 232.99 119.568C232.99 118.352 232.229 117.585 230.672 117.205L229.376 116.886C228.342 116.631 227.876 116.284 227.876 115.614C227.876 114.864 228.672 114.318 229.74 114.318C230.911 114.318 231.393 114.966 231.626 115.568L232.831 115.227ZM240.509 118.432C240.509 120.068 239.259 120.818 238.259 120.818C237.145 120.818 236.349 120 236.349 118.727V113.273H235.009V118.818C235.009 121.045 236.19 122.114 237.827 122.114C239.145 122.114 240.009 121.409 240.418 120.523H240.509V122H241.849V113.273H240.509V118.432ZM244.305 122H245.646V116.477C245.646 115.295 246.578 114.432 247.851 114.432C248.209 114.432 248.578 114.5 248.669 114.523V113.159C248.516 113.148 248.163 113.136 247.964 113.136C246.919 113.136 246.01 113.727 245.692 114.591H245.601V113.273H244.305V122ZM253.652 122.182C255.425 122.182 256.72 121.295 257.129 119.977L255.834 119.614C255.493 120.523 254.703 120.977 253.652 120.977C252.078 120.977 250.993 119.96 250.93 118.091H257.266V117.523C257.266 114.273 255.334 113.159 253.516 113.159C251.152 113.159 249.584 115.023 249.584 117.705C249.584 120.386 251.129 122.182 253.652 122.182ZM250.93 116.932C251.021 115.574 251.982 114.364 253.516 114.364C254.97 114.364 255.902 115.455 255.902 116.932H250.93ZM267.601 113.273H265.737V111.182H264.396V113.273H263.078V114.409H264.396V119.864C264.396 121.386 265.624 122.114 266.76 122.114C267.26 122.114 267.578 122.023 267.76 121.955L267.487 120.75C267.374 120.773 267.192 120.818 266.896 120.818C266.305 120.818 265.737 120.636 265.737 119.5V114.409H267.601V113.273ZM271.146 116.75C271.146 115.227 272.118 114.364 273.442 114.364C274.703 114.364 275.464 115.159 275.464 116.545V122H276.805V116.455C276.805 114.21 275.612 113.159 273.828 113.159C272.453 113.159 271.669 113.733 271.26 114.636H271.146V110.364H269.805V122H271.146V116.75ZM281.827 122.205C283.349 122.205 284.145 121.386 284.418 120.818H284.486V122H285.827V116.25C285.827 113.477 283.713 113.159 282.599 113.159C281.281 113.159 279.781 113.614 279.099 115.205L280.372 115.659C280.668 115.023 281.366 114.341 282.645 114.341C283.878 114.341 284.486 114.994 284.486 116.114V116.159C284.486 116.807 283.827 116.75 282.236 116.955C280.616 117.165 278.849 117.523 278.849 119.523C278.849 121.227 280.168 122.205 281.827 122.205ZM282.031 121C280.963 121 280.19 120.523 280.19 119.591C280.19 118.568 281.122 118.25 282.168 118.114C282.736 118.045 284.259 117.886 284.486 117.614V118.841C284.486 119.932 283.622 121 282.031 121ZM292.07 113.273H290.206V111.182H288.865V113.273H287.547V114.409H288.865V119.864C288.865 121.386 290.092 122.114 291.229 122.114C291.729 122.114 292.047 122.023 292.229 121.955L291.956 120.75C291.842 120.773 291.661 120.818 291.365 120.818C290.774 120.818 290.206 120.636 290.206 119.5V114.409H292.07V113.273ZM300.564 122H301.882L303.791 115.295H303.928L305.837 122H307.155L309.814 113.273H308.405L306.518 119.932H306.428L304.587 113.273H303.155L301.291 119.955H301.2L299.314 113.273H297.905L300.564 122ZM314.949 122.182C316.722 122.182 318.017 121.295 318.426 119.977L317.131 119.614C316.79 120.523 316 120.977 314.949 120.977C313.375 120.977 312.29 119.96 312.227 118.091H318.562V117.523C318.562 114.273 316.631 113.159 314.812 113.159C312.449 113.159 310.881 115.023 310.881 117.705C310.881 120.386 312.426 122.182 314.949 122.182ZM312.227 116.932C312.318 115.574 313.278 114.364 314.812 114.364C316.267 114.364 317.199 115.455 317.199 116.932H312.227ZM75.7734 149.455C77.8643 149.455 79.5462 148.5 79.5462 146.25V137.273H78.2507V138.659H78.1143C77.8189 138.205 77.2734 137.159 75.5689 137.159C73.3643 137.159 71.8416 138.909 71.8416 141.591C71.8416 144.318 73.4325 145.864 75.5462 145.864C77.2507 145.864 77.7962 144.864 78.0916 144.386H78.2053V146.159C78.2053 147.614 77.1825 148.273 75.7734 148.273C74.1882 148.273 73.6314 147.438 73.2734 146.955L72.2053 147.705C72.7507 148.619 73.8246 149.455 75.7734 149.455ZM75.728 144.659C74.0462 144.659 73.1825 143.386 73.1825 141.568C73.1825 139.795 74.0234 138.364 75.728 138.364C77.3643 138.364 78.228 139.682 78.228 141.568C78.228 143.5 77.3416 144.659 75.728 144.659ZM82.0007 146H83.3416V137.273H82.0007V146ZM82.6825 135.818C83.2053 135.818 83.6371 135.409 83.6371 134.909C83.6371 134.409 83.2053 134 82.6825 134C82.1598 134 81.728 134.409 81.728 134.909C81.728 135.409 82.1598 135.818 82.6825 135.818ZM92.9339 137.273H91.4794L89.0703 144.227H88.9794L86.5703 137.273H85.1158L88.343 146H89.7067L92.9339 137.273ZM98.0504 146.182C99.8232 146.182 101.119 145.295 101.528 143.977L100.232 143.614C99.8913 144.523 99.1016 144.977 98.0504 144.977C96.4766 144.977 95.3913 143.96 95.3288 142.091H101.664V141.523C101.664 138.273 99.7322 137.159 97.9141 137.159C95.5504 137.159 93.9822 139.023 93.9822 141.705C93.9822 144.386 95.5277 146.182 98.0504 146.182ZM95.3288 140.932C95.4197 139.574 96.38 138.364 97.9141 138.364C99.3686 138.364 100.3 139.455 100.3 140.932H95.3288ZM109.067 149.273C110.278 149.273 111.13 148.631 111.636 147.273L115.352 137.295L113.886 137.273L111.477 144.227H111.386L108.977 137.273H107.522L110.749 146.045L110.499 146.727C110.011 148.057 109.408 148.182 108.431 147.932L108.09 149.114C108.227 149.182 108.613 149.273 109.067 149.273ZM120.359 146.182C122.722 146.182 124.313 144.386 124.313 141.682C124.313 138.955 122.722 137.159 120.359 137.159C117.995 137.159 116.404 138.955 116.404 141.682C116.404 144.386 117.995 146.182 120.359 146.182ZM120.359 144.977C118.563 144.977 117.745 143.432 117.745 141.682C117.745 139.932 118.563 138.364 120.359 138.364C122.154 138.364 122.972 139.932 122.972 141.682C122.972 143.432 122.154 144.977 120.359 144.977ZM131.86 142.432C131.86 144.068 130.61 144.818 129.61 144.818C128.496 144.818 127.701 144 127.701 142.727V137.273H126.36V142.818C126.36 145.045 127.542 146.114 129.178 146.114C130.496 146.114 131.36 145.409 131.769 144.523H131.86V146H133.201V137.273H131.86V142.432ZM143.952 137.273H142.089V135.182H140.748V137.273H139.43V138.409H140.748V143.864C140.748 145.386 141.975 146.114 143.112 146.114C143.612 146.114 143.93 146.023 144.112 145.955L143.839 144.75C143.725 144.773 143.543 144.818 143.248 144.818C142.657 144.818 142.089 144.636 142.089 143.5V138.409H143.952V137.273ZM147.498 140.75C147.498 139.227 148.469 138.364 149.793 138.364C151.055 138.364 151.816 139.159 151.816 140.545V146H153.157V140.455C153.157 138.21 151.964 137.159 150.18 137.159C148.805 137.159 148.021 137.733 147.612 138.636H147.498V134.364H146.157V146H147.498V140.75ZM159.269 146.182C161.042 146.182 162.337 145.295 162.746 143.977L161.451 143.614C161.11 144.523 160.32 144.977 159.269 144.977C157.695 144.977 156.61 143.96 156.548 142.091H162.883V141.523C162.883 138.273 160.951 137.159 159.133 137.159C156.769 137.159 155.201 139.023 155.201 141.705C155.201 144.386 156.746 146.182 159.269 146.182ZM156.548 140.932C156.638 139.574 157.599 138.364 159.133 138.364C160.587 138.364 161.519 139.455 161.519 140.932H156.548ZM169.604 146H170.9V144.659H171.059C171.354 145.136 171.923 146.182 173.604 146.182C175.786 146.182 177.309 144.432 177.309 141.659C177.309 138.909 175.786 137.159 173.582 137.159C171.877 137.159 171.354 138.205 171.059 138.659H170.945V134.364H169.604V146ZM170.923 141.636C170.923 139.682 171.786 138.364 173.423 138.364C175.127 138.364 175.968 139.795 175.968 141.636C175.968 143.5 175.104 144.977 173.423 144.977C171.809 144.977 170.923 143.614 170.923 141.636ZM183.019 146.182C184.792 146.182 186.087 145.295 186.496 143.977L185.201 143.614C184.86 144.523 184.07 144.977 183.019 144.977C181.445 144.977 180.36 143.96 180.298 142.091H186.633V141.523C186.633 138.273 184.701 137.159 182.883 137.159C180.519 137.159 178.951 139.023 178.951 141.705C178.951 144.386 180.496 146.182 183.019 146.182ZM180.298 140.932C180.388 139.574 181.349 138.364 182.883 138.364C184.337 138.364 185.269 139.455 185.269 140.932H180.298ZM194.854 139.227C194.434 137.989 193.491 137.159 191.763 137.159C189.923 137.159 188.559 138.205 188.559 139.682C188.559 140.886 189.275 141.693 190.877 142.068L192.332 142.409C193.212 142.614 193.627 143.034 193.627 143.636C193.627 144.386 192.832 145 191.582 145C190.485 145 189.798 144.528 189.559 143.591L188.286 143.909C188.599 145.392 189.82 146.182 191.604 146.182C193.633 146.182 195.013 145.074 195.013 143.568C195.013 142.352 194.252 141.585 192.695 141.205L191.4 140.886C190.366 140.631 189.9 140.284 189.9 139.614C189.9 138.864 190.695 138.318 191.763 138.318C192.934 138.318 193.417 138.966 193.65 139.568L194.854 139.227ZM200.827 137.273H198.964V135.182H197.623V137.273H196.305V138.409H197.623V143.864C197.623 145.386 198.85 146.114 199.987 146.114C200.487 146.114 200.805 146.023 200.987 145.955L200.714 144.75C200.6 144.773 200.418 144.818 200.123 144.818C199.532 144.818 198.964 144.636 198.964 143.5V138.409H200.827V137.273ZM211.004 146.182C212.776 146.182 214.072 145.295 214.481 143.977L213.185 143.614C212.844 144.523 212.055 144.977 211.004 144.977C209.43 144.977 208.344 143.96 208.282 142.091H214.617V141.523C214.617 138.273 212.685 137.159 210.867 137.159C208.504 137.159 206.935 139.023 206.935 141.705C206.935 144.386 208.481 146.182 211.004 146.182ZM208.282 140.932C208.373 139.574 209.333 138.364 210.867 138.364C212.322 138.364 213.254 139.455 213.254 140.932H208.282ZM217.423 137.273H215.877L218.65 141.636L215.877 146H217.423L219.513 142.614L221.604 146H223.15L220.332 141.636L223.15 137.273H221.604L219.513 140.841L217.423 137.273ZM225.063 149.273H226.404V144.659H226.518C226.813 145.136 227.381 146.182 229.063 146.182C231.245 146.182 232.768 144.432 232.768 141.659C232.768 138.909 231.245 137.159 229.04 137.159C227.336 137.159 226.813 138.205 226.518 138.659H226.359V137.273H225.063V149.273ZM226.381 141.636C226.381 139.682 227.245 138.364 228.881 138.364C230.586 138.364 231.427 139.795 231.427 141.636C231.427 143.5 230.563 144.977 228.881 144.977C227.268 144.977 226.381 143.614 226.381 141.636ZM238.472 146.182C240.245 146.182 241.54 145.295 241.95 143.977L240.654 143.614C240.313 144.523 239.523 144.977 238.472 144.977C236.898 144.977 235.813 143.96 235.751 142.091H242.086V141.523C242.086 138.273 240.154 137.159 238.336 137.159C235.972 137.159 234.404 139.023 234.404 141.705C234.404 144.386 235.95 146.182 238.472 146.182ZM235.751 140.932C235.842 139.574 236.802 138.364 238.336 138.364C239.79 138.364 240.722 139.455 240.722 140.932H235.751ZM244.126 146H245.467V140.477C245.467 139.295 246.398 138.432 247.671 138.432C248.029 138.432 248.398 138.5 248.489 138.523V137.159C248.336 137.148 247.984 137.136 247.785 137.136C246.739 137.136 245.83 137.727 245.512 138.591H245.421V137.273H244.126V146ZM250.079 146H251.42V137.273H250.079V146ZM250.761 135.818C251.283 135.818 251.715 135.409 251.715 134.909C251.715 134.409 251.283 134 250.761 134C250.238 134 249.806 134.409 249.806 134.909C249.806 135.409 250.238 135.818 250.761 135.818ZM257.535 146.182C259.308 146.182 260.603 145.295 261.012 143.977L259.717 143.614C259.376 144.523 258.586 144.977 257.535 144.977C255.961 144.977 254.876 143.96 254.813 142.091H261.148V141.523C261.148 138.273 259.217 137.159 257.398 137.159C255.035 137.159 253.467 139.023 253.467 141.705C253.467 144.386 255.012 146.182 257.535 146.182ZM254.813 140.932C254.904 139.574 255.864 138.364 257.398 138.364C258.853 138.364 259.785 139.455 259.785 140.932H254.813ZM264.529 140.75C264.529 139.227 265.472 138.364 266.756 138.364C268.001 138.364 268.756 139.176 268.756 140.545V146H270.097V140.455C270.097 138.227 268.91 137.159 267.143 137.159C265.825 137.159 265.006 137.75 264.597 138.636H264.484V137.273H263.188V146H264.529V140.75ZM276.093 146.182C278.025 146.182 279.298 145 279.525 143.455H278.184C277.934 144.409 277.138 144.977 276.093 144.977C274.502 144.977 273.479 143.659 273.479 141.636C273.479 139.659 274.525 138.364 276.093 138.364C277.275 138.364 277.979 139.091 278.184 139.886H279.525C279.298 138.25 277.911 137.159 276.07 137.159C273.707 137.159 272.138 139.023 272.138 141.682C272.138 144.295 273.638 146.182 276.093 146.182ZM285.144 146.182C286.917 146.182 288.212 145.295 288.621 143.977L287.326 143.614C286.985 144.523 286.195 144.977 285.144 144.977C283.57 144.977 282.485 143.96 282.423 142.091H288.758V141.523C288.758 138.273 286.826 137.159 285.008 137.159C282.644 137.159 281.076 139.023 281.076 141.705C281.076 144.386 282.621 146.182 285.144 146.182ZM282.423 140.932C282.513 139.574 283.474 138.364 285.008 138.364C286.462 138.364 287.394 139.455 287.394 140.932H282.423ZM298.843 146.182C301.207 146.182 302.798 144.386 302.798 141.682C302.798 138.955 301.207 137.159 298.843 137.159C296.479 137.159 294.888 138.955 294.888 141.682C294.888 144.386 296.479 146.182 298.843 146.182ZM298.843 144.977C297.048 144.977 296.229 143.432 296.229 141.682C296.229 139.932 297.048 138.364 298.843 138.364C300.638 138.364 301.457 139.932 301.457 141.682C301.457 143.432 300.638 144.977 298.843 144.977ZM306.185 140.75C306.185 139.227 307.129 138.364 308.413 138.364C309.657 138.364 310.413 139.176 310.413 140.545V146H311.754V140.455C311.754 138.227 310.566 137.159 308.799 137.159C307.481 137.159 306.663 137.75 306.254 138.636H306.14V137.273H304.844V146H306.185V140.75ZM150.351 170.182C152.714 170.182 154.305 168.386 154.305 165.682C154.305 162.955 152.714 161.159 150.351 161.159C147.987 161.159 146.396 162.955 146.396 165.682C146.396 168.386 147.987 170.182 150.351 170.182ZM150.351 168.977C148.555 168.977 147.737 167.432 147.737 165.682C147.737 163.932 148.555 162.364 150.351 162.364C152.146 162.364 152.964 163.932 152.964 165.682C152.964 167.432 152.146 168.977 150.351 168.977ZM161.852 166.432C161.852 168.068 160.602 168.818 159.602 168.818C158.489 168.818 157.693 168 157.693 166.727V161.273H156.352V166.818C156.352 169.045 157.534 170.114 159.17 170.114C160.489 170.114 161.352 169.409 161.761 168.523H161.852V170H163.193V161.273H161.852V166.432ZM165.649 170H166.99V164.477C166.99 163.295 167.922 162.432 169.195 162.432C169.553 162.432 169.922 162.5 170.013 162.523V161.159C169.859 161.148 169.507 161.136 169.308 161.136C168.263 161.136 167.354 161.727 167.036 162.591H166.945V161.273H165.649V170ZM178.08 170H179.398L181.307 163.295H181.443L183.352 170H184.67L187.33 161.273H185.92L184.034 167.932H183.943L182.102 161.273H180.67L178.807 167.955H178.716L176.83 161.273H175.42L178.08 170ZM192.464 170.182C194.237 170.182 195.533 169.295 195.942 167.977L194.646 167.614C194.305 168.523 193.516 168.977 192.464 168.977C190.891 168.977 189.805 167.96 189.743 166.091H196.078V165.523C196.078 162.273 194.146 161.159 192.328 161.159C189.964 161.159 188.396 163.023 188.396 165.705C188.396 168.386 189.942 170.182 192.464 170.182ZM189.743 164.932C189.834 163.574 190.794 162.364 192.328 162.364C193.783 162.364 194.714 163.455 194.714 164.932H189.743ZM198.3 170H199.595V168.659H199.754C200.05 169.136 200.618 170.182 202.3 170.182C204.482 170.182 206.004 168.432 206.004 165.659C206.004 162.909 204.482 161.159 202.277 161.159C200.572 161.159 200.05 162.205 199.754 162.659H199.641V158.364H198.3V170ZM199.618 165.636C199.618 163.682 200.482 162.364 202.118 162.364C203.822 162.364 204.663 163.795 204.663 165.636C204.663 167.5 203.8 168.977 202.118 168.977C200.504 168.977 199.618 167.614 199.618 165.636ZM214.237 163.227C213.817 161.989 212.874 161.159 211.146 161.159C209.305 161.159 207.942 162.205 207.942 163.682C207.942 164.886 208.658 165.693 210.26 166.068L211.714 166.409C212.595 166.614 213.01 167.034 213.01 167.636C213.01 168.386 212.214 169 210.964 169C209.868 169 209.18 168.528 208.942 167.591L207.669 167.909C207.982 169.392 209.203 170.182 210.987 170.182C213.016 170.182 214.396 169.074 214.396 167.568C214.396 166.352 213.635 165.585 212.078 165.205L210.783 164.886C209.749 164.631 209.283 164.284 209.283 163.614C209.283 162.864 210.078 162.318 211.146 162.318C212.317 162.318 212.8 162.966 213.033 163.568L214.237 163.227ZM216.415 170H217.756V161.273H216.415V170ZM217.097 159.818C217.619 159.818 218.051 159.409 218.051 158.909C218.051 158.409 217.619 158 217.097 158C216.574 158 216.142 158.409 216.142 158.909C216.142 159.409 216.574 159.818 217.097 159.818ZM224.007 161.273H222.143V159.182H220.803V161.273H219.484V162.409H220.803V167.864C220.803 169.386 222.03 170.114 223.166 170.114C223.666 170.114 223.984 170.023 224.166 169.955L223.893 168.75C223.78 168.773 223.598 168.818 223.303 168.818C222.712 168.818 222.143 168.636 222.143 167.5V162.409H224.007V161.273ZM229.589 170.182C231.362 170.182 232.658 169.295 233.067 167.977L231.771 167.614C231.43 168.523 230.641 168.977 229.589 168.977C228.016 168.977 226.93 167.96 226.868 166.091H233.203V165.523C233.203 162.273 231.271 161.159 229.453 161.159C227.089 161.159 225.521 163.023 225.521 165.705C225.521 168.386 227.067 170.182 229.589 170.182ZM226.868 164.932C226.959 163.574 227.919 162.364 229.453 162.364C230.908 162.364 231.839 163.455 231.839 164.932H226.868ZM236.22 170.091C236.783 170.091 237.243 169.631 237.243 169.068C237.243 168.506 236.783 168.045 236.22 168.045C235.658 168.045 235.197 168.506 235.197 169.068C235.197 169.631 235.658 170.091 236.22 170.091Z" fill="#15295A"/>
<rect x="131.5" y="208" width="121" height="44" rx="22" fill="#4A7EFF"/>
<path d="M166.517 236L167.381 233.347H171.58L172.443 236H175.08L171.068 224.364H167.898L163.881 236H166.517ZM168.006 231.426L169.438 227.023H169.528L170.96 231.426H168.006ZM179.972 236.17C182.295 236.17 183.756 234.807 183.869 232.801H181.585C181.443 233.733 180.83 234.256 180 234.256C178.869 234.256 178.136 233.307 178.136 231.636C178.136 229.989 178.875 229.045 180 229.045C180.886 229.045 181.455 229.631 181.585 230.5H183.869C183.767 228.483 182.239 227.159 179.96 227.159C177.312 227.159 175.676 228.994 175.676 231.67C175.676 234.324 177.284 236.17 179.972 236.17ZM189.362 236.17C191.686 236.17 193.146 234.807 193.26 232.801H190.976C190.834 233.733 190.22 234.256 189.391 234.256C188.26 234.256 187.527 233.307 187.527 231.636C187.527 229.989 188.266 229.045 189.391 229.045C190.277 229.045 190.845 229.631 190.976 230.5H193.26C193.158 228.483 191.629 227.159 189.351 227.159C186.703 227.159 185.067 228.994 185.067 231.67C185.067 234.324 186.675 236.17 189.362 236.17ZM198.787 236.17C200.946 236.17 202.401 235.119 202.741 233.5L200.503 233.352C200.259 234.017 199.634 234.364 198.827 234.364C197.616 234.364 196.849 233.562 196.849 232.261V232.256H202.793V231.591C202.793 228.625 200.997 227.159 198.69 227.159C196.122 227.159 194.457 228.983 194.457 231.676C194.457 234.443 196.099 236.17 198.787 236.17ZM196.849 230.756C196.901 229.761 197.656 228.966 198.73 228.966C199.781 228.966 200.509 229.716 200.514 230.756H196.849ZM204.372 239.273H206.793V234.602H206.866C207.202 235.33 207.935 236.142 209.344 236.142C211.332 236.142 212.884 234.568 212.884 231.648C212.884 228.648 211.264 227.159 209.349 227.159C207.889 227.159 207.19 228.028 206.866 228.739H206.759V227.273H204.372V239.273ZM206.741 231.636C206.741 230.08 207.401 229.085 208.577 229.085C209.776 229.085 210.412 230.125 210.412 231.636C210.412 233.159 209.764 234.216 208.577 234.216C207.412 234.216 206.741 233.193 206.741 231.636ZM219.139 227.273H217.497V225.182H215.077V227.273H213.884V229.091H215.077V233.636C215.065 235.347 216.23 236.193 217.986 236.119C218.611 236.097 219.054 235.972 219.298 235.892L218.918 234.091C218.798 234.114 218.543 234.17 218.315 234.17C217.832 234.17 217.497 233.989 217.497 233.318V229.091H219.139V227.273Z" fill="white"/>
</g>
<defs>
<filter id="filter0_d_23_538" x="0" y="0" width="384" height="324" filterUnits="userSpaceOnUse" color-interpolation-filters="sRGB">
<feFlood flood-opacity="0" result="BackgroundImageFix"/>
<feColorMatrix in="SourceAlpha" type="matrix" values="0 0 0 0 0 0 0 0 0 0 0 0 0 0 0 0 0 0 127 0" result="hardAlpha"/>
<feOffset dy="8"/>
<feGaussianBlur stdDeviation="16"/>
<feColorMatrix type="matrix" values="0 0 0 0 0.0392157 0 0 0 0 0.0117647 0 0 0 0 0.34902 0 0 0 0.1 0"/>
<feBlend mode="normal" in2="BackgroundImageFix" result="effect1_dropShadow_23_538"/>
<feBlend mode="normal" in="SourceGraphic" in2="effect1_dropShadow_23_538" result="shape"/>
</filter>
<linearGradient id="paint0_linear_23_538" x1="192.514" y1="24" x2="192.514" y2="284" gradientUnits="userSpaceOnUse">
<stop stop-color="white"/>
<stop offset="0.239583" stop-color="#BAE2FF"/>
<stop offset="0.71875" stop-color="#E5D9FF"/>
<stop offset="1" stop-color="white"/>
</linearGradient>
</defs>
</svg>
