<svg width="384" height="201" viewBox="0 0 384 201" fill="none" xmlns="http://www.w3.org/2000/svg">
<g filter="url(#filter0_d_23_539)">
<rect x="32" y="24" width="320" height="137" rx="4" fill="white"/>
<path d="M54.7334 47.2139H54.8154L57.085 55H58.2471L60.9336 45.1357H59.6484L57.6865 53.1543H57.6045L55.3965 45.1357H54.1523L51.9443 53.1543H51.8623L49.9004 45.1357H48.6152L51.3018 55H52.4639L54.7334 47.2139ZM64.9121 48.54C66.0811 48.54 66.8604 49.4014 66.8877 50.707H62.8271C62.916 49.4014 63.7363 48.54 64.9121 48.54ZM66.8535 53.0928C66.5459 53.7422 65.9033 54.0908 64.9531 54.0908C63.7021 54.0908 62.8887 53.168 62.8271 51.7119V51.6572H68.125V51.2061C68.125 48.916 66.915 47.501 64.9258 47.501C62.9023 47.501 61.6035 49.0049 61.6035 51.3223C61.6035 53.6533 62.8818 55.1299 64.9258 55.1299C66.5391 55.1299 67.6738 54.3574 68.0293 53.0928H66.8535ZM80.0195 49.8867C79.8145 48.5742 78.7207 47.501 76.9297 47.501C74.8652 47.501 73.5527 48.9912 73.5527 51.2881C73.5527 53.6328 74.8721 55.1299 76.9365 55.1299C78.707 55.1299 79.8076 54.1318 80.0195 52.7783H78.8301C78.6113 53.6123 77.9209 54.0703 76.9297 54.0703C75.6172 54.0703 74.7695 52.9902 74.7695 51.2881C74.7695 49.6201 75.6035 48.5605 76.9297 48.5605C77.9893 48.5605 78.6387 49.1553 78.8301 49.8867H80.0195ZM84.0254 54.0977C83.1709 54.0977 82.5352 53.6602 82.5352 52.9082C82.5352 52.1699 83.0273 51.7803 84.1484 51.7051L86.1309 51.5752V52.252C86.1309 53.3047 85.2354 54.0977 84.0254 54.0977ZM83.8066 55.1299C84.791 55.1299 85.5977 54.6992 86.0762 53.9131H86.1855V55H87.3066V49.9551C87.3066 48.4238 86.3018 47.501 84.5039 47.501C82.9316 47.501 81.7695 48.2803 81.6123 49.4629H82.8018C82.9658 48.8818 83.5811 48.5469 84.4629 48.5469C85.5635 48.5469 86.1309 49.0459 86.1309 49.9551V50.625L84.0049 50.7549C82.2891 50.8574 81.3184 51.6162 81.3184 52.9355C81.3184 54.2822 82.3779 55.1299 83.8066 55.1299ZM89.4805 55H90.6562V50.4336C90.6562 49.3945 91.4697 48.6426 92.5908 48.6426C92.8232 48.6426 93.2471 48.6836 93.3428 48.7109V47.5352C93.1924 47.5146 92.9463 47.501 92.7549 47.501C91.7773 47.501 90.9297 48.0068 90.7109 48.7246H90.6016V47.6309H89.4805V55ZM97.5469 48.54C98.7158 48.54 99.4951 49.4014 99.5225 50.707H95.4619C95.5508 49.4014 96.3711 48.54 97.5469 48.54ZM99.4883 53.0928C99.1807 53.7422 98.5381 54.0908 97.5879 54.0908C96.3369 54.0908 95.5234 53.168 95.4619 51.7119V51.6572H100.76V51.2061C100.76 48.916 99.5498 47.501 97.5605 47.501C95.5371 47.501 94.2383 49.0049 94.2383 51.3223C94.2383 53.6533 95.5166 55.1299 97.5605 55.1299C99.1738 55.1299 100.309 54.3574 100.664 53.0928H99.4883ZM108.826 54.0977C107.972 54.0977 107.336 53.6602 107.336 52.9082C107.336 52.1699 107.828 51.7803 108.949 51.7051L110.932 51.5752V52.252C110.932 53.3047 110.036 54.0977 108.826 54.0977ZM108.607 55.1299C109.592 55.1299 110.398 54.6992 110.877 53.9131H110.986V55H112.107V49.9551C112.107 48.4238 111.103 47.501 109.305 47.501C107.732 47.501 106.57 48.2803 106.413 49.4629H107.603C107.767 48.8818 108.382 48.5469 109.264 48.5469C110.364 48.5469 110.932 49.0459 110.932 49.9551V50.625L108.806 50.7549C107.09 50.8574 106.119 51.6162 106.119 52.9355C106.119 54.2822 107.179 55.1299 108.607 55.1299ZM117.945 55.1299C119.812 55.1299 121.035 53.6191 121.035 51.3154C121.035 48.998 119.818 47.501 117.945 47.501C116.934 47.501 116.038 48 115.635 48.793H115.525V44.7051H114.35V55H115.471V53.8242H115.58C116.045 54.6445 116.92 55.1299 117.945 55.1299ZM117.672 48.5605C119.019 48.5605 119.818 49.5928 119.818 51.3154C119.818 53.0381 119.019 54.0703 117.672 54.0703C116.332 54.0703 115.498 53.0176 115.498 51.3154C115.498 49.6133 116.332 48.5605 117.672 48.5605ZM125.909 55.1299C128.008 55.1299 129.307 53.6807 129.307 51.3154C129.307 48.9434 128.008 47.501 125.909 47.501C123.811 47.501 122.512 48.9434 122.512 51.3154C122.512 53.6807 123.811 55.1299 125.909 55.1299ZM125.909 54.0703C124.515 54.0703 123.729 53.0586 123.729 51.3154C123.729 49.5654 124.515 48.5605 125.909 48.5605C127.304 48.5605 128.09 49.5654 128.09 51.3154C128.09 53.0586 127.304 54.0703 125.909 54.0703ZM137.113 47.6309H135.938V51.9922C135.938 53.2842 135.227 54.0566 133.928 54.0566C132.752 54.0566 132.26 53.4414 132.26 52.1152V47.6309H131.084V52.4023C131.084 54.1455 131.945 55.1299 133.6 55.1299C134.728 55.1299 135.514 54.665 135.883 53.8447H135.992V55H137.113V47.6309ZM139.82 45.7236V47.6309H138.631V48.6152H139.82V53.0859C139.82 54.4941 140.429 55.0547 141.946 55.0547C142.179 55.0547 142.404 55.0273 142.637 54.9863V53.9951C142.418 54.0156 142.302 54.0225 142.09 54.0225C141.324 54.0225 140.996 53.6533 140.996 52.7852V48.6152H142.637V47.6309H140.996V45.7236H139.82ZM148.994 57.666C150.3 57.666 150.888 57.1602 151.517 55.4512L154.395 47.6309H153.144L151.127 53.6943H151.018L148.994 47.6309H147.723L150.45 55.0068L150.313 55.4443C150.006 56.333 149.637 56.6543 148.96 56.6543C148.796 56.6543 148.611 56.6475 148.468 56.6201V57.625C148.632 57.6523 148.837 57.666 148.994 57.666ZM158.722 55.1299C160.82 55.1299 162.119 53.6807 162.119 51.3154C162.119 48.9434 160.82 47.501 158.722 47.501C156.623 47.501 155.324 48.9434 155.324 51.3154C155.324 53.6807 156.623 55.1299 158.722 55.1299ZM158.722 54.0703C157.327 54.0703 156.541 53.0586 156.541 51.3154C156.541 49.5654 157.327 48.5605 158.722 48.5605C160.116 48.5605 160.902 49.5654 160.902 51.3154C160.902 53.0586 160.116 54.0703 158.722 54.0703ZM169.926 47.6309H168.75V51.9922C168.75 53.2842 168.039 54.0566 166.74 54.0566C165.564 54.0566 165.072 53.4414 165.072 52.1152V47.6309H163.896V52.4023C163.896 54.1455 164.758 55.1299 166.412 55.1299C167.54 55.1299 168.326 54.665 168.695 53.8447H168.805V55H169.926V47.6309ZM172.141 55H173.316V50.4336C173.316 49.3945 174.13 48.6426 175.251 48.6426C175.483 48.6426 175.907 48.6836 176.003 48.7109V47.5352C175.853 47.5146 175.606 47.501 175.415 47.501C174.438 47.501 173.59 48.0068 173.371 48.7246H173.262V47.6309H172.141V55ZM184.151 55.1299C185.17 55.1299 186.045 54.6445 186.51 53.8242H186.619V55H187.74V44.7051H186.564V48.793H186.462C186.045 47.9863 185.177 47.501 184.151 47.501C182.278 47.501 181.055 49.0049 181.055 51.3154C181.055 53.6328 182.265 55.1299 184.151 55.1299ZM184.425 48.5605C185.758 48.5605 186.592 49.627 186.592 51.3154C186.592 53.0176 185.765 54.0703 184.425 54.0703C183.078 54.0703 182.271 53.0381 182.271 51.3154C182.271 49.5996 183.085 48.5605 184.425 48.5605ZM192.293 54.0977C191.438 54.0977 190.803 53.6602 190.803 52.9082C190.803 52.1699 191.295 51.7803 192.416 51.7051L194.398 51.5752V52.252C194.398 53.3047 193.503 54.0977 192.293 54.0977ZM192.074 55.1299C193.059 55.1299 193.865 54.6992 194.344 53.9131H194.453V55H195.574V49.9551C195.574 48.4238 194.569 47.501 192.771 47.501C191.199 47.501 190.037 48.2803 189.88 49.4629H191.069C191.233 48.8818 191.849 48.5469 192.73 48.5469C193.831 48.5469 194.398 49.0459 194.398 49.9551V50.625L192.272 50.7549C190.557 50.8574 189.586 51.6162 189.586 52.9355C189.586 54.2822 190.646 55.1299 192.074 55.1299ZM198.24 45.7236V47.6309H197.051V48.6152H198.24V53.0859C198.24 54.4941 198.849 55.0547 200.366 55.0547C200.599 55.0547 200.824 55.0273 201.057 54.9863V53.9951C200.838 54.0156 200.722 54.0225 200.51 54.0225C199.744 54.0225 199.416 53.6533 199.416 52.7852V48.6152H201.057V47.6309H199.416V45.7236H198.24ZM205.104 54.0977C204.249 54.0977 203.613 53.6602 203.613 52.9082C203.613 52.1699 204.105 51.7803 205.227 51.7051L207.209 51.5752V52.252C207.209 53.3047 206.313 54.0977 205.104 54.0977ZM204.885 55.1299C205.869 55.1299 206.676 54.6992 207.154 53.9131H207.264V55H208.385V49.9551C208.385 48.4238 207.38 47.501 205.582 47.501C204.01 47.501 202.848 48.2803 202.69 49.4629H203.88C204.044 48.8818 204.659 48.5469 205.541 48.5469C206.642 48.5469 207.209 49.0459 207.209 49.9551V50.625L205.083 50.7549C203.367 50.8574 202.396 51.6162 202.396 52.9355C202.396 54.2822 203.456 55.1299 204.885 55.1299ZM211.304 57.5088L212.377 53.6191H211.071L210.422 57.5088H211.304ZM220.936 54.0977C220.081 54.0977 219.445 53.6602 219.445 52.9082C219.445 52.1699 219.938 51.7803 221.059 51.7051L223.041 51.5752V52.252C223.041 53.3047 222.146 54.0977 220.936 54.0977ZM220.717 55.1299C221.701 55.1299 222.508 54.6992 222.986 53.9131H223.096V55H224.217V49.9551C224.217 48.4238 223.212 47.501 221.414 47.501C219.842 47.501 218.68 48.2803 218.522 49.4629H219.712C219.876 48.8818 220.491 48.5469 221.373 48.5469C222.474 48.5469 223.041 49.0459 223.041 49.9551V50.625L220.915 50.7549C219.199 50.8574 218.229 51.6162 218.229 52.9355C218.229 54.2822 219.288 55.1299 220.717 55.1299ZM226.391 55H227.566V50.6387C227.566 49.3467 228.325 48.5605 229.501 48.5605C230.677 48.5605 231.237 49.1895 231.237 50.5156V55H232.413V50.2285C232.413 48.4785 231.49 47.501 229.836 47.501C228.708 47.501 227.99 47.9795 227.621 48.793H227.512V47.6309H226.391V55ZM237.294 55.1299C238.312 55.1299 239.188 54.6445 239.652 53.8242H239.762V55H240.883V44.7051H239.707V48.793H239.604C239.188 47.9863 238.319 47.501 237.294 47.501C235.421 47.501 234.197 49.0049 234.197 51.3154C234.197 53.6328 235.407 55.1299 237.294 55.1299ZM237.567 48.5605C238.9 48.5605 239.734 49.627 239.734 51.3154C239.734 53.0176 238.907 54.0703 237.567 54.0703C236.221 54.0703 235.414 53.0381 235.414 51.3154C235.414 49.5996 236.228 48.5605 237.567 48.5605ZM256.387 47.6309H255.204L253.755 53.5234H253.646L251.998 47.6309H250.87L249.223 53.5234H249.113L247.664 47.6309H246.475L248.539 55H249.729L251.369 49.2988H251.479L253.126 55H254.322L256.387 47.6309ZM260.625 48.54C261.794 48.54 262.573 49.4014 262.601 50.707H258.54C258.629 49.4014 259.449 48.54 260.625 48.54ZM262.566 53.0928C262.259 53.7422 261.616 54.0908 260.666 54.0908C259.415 54.0908 258.602 53.168 258.54 51.7119V51.6572H263.838V51.2061C263.838 48.916 262.628 47.501 260.639 47.501C258.615 47.501 257.316 49.0049 257.316 51.3223C257.316 53.6533 258.595 55.1299 260.639 55.1299C262.252 55.1299 263.387 54.3574 263.742 53.0928H262.566ZM266.894 48.8203V45.1357H265.8V48.8203H266.894ZM271.952 55.1299C272.971 55.1299 273.846 54.6445 274.311 53.8242H274.42V55H275.541V44.7051H274.365V48.793H274.263C273.846 47.9863 272.978 47.501 271.952 47.501C270.079 47.501 268.855 49.0049 268.855 51.3154C268.855 53.6328 270.065 55.1299 271.952 55.1299ZM272.226 48.5605C273.559 48.5605 274.393 49.627 274.393 51.3154C274.393 53.0176 273.565 54.0703 272.226 54.0703C270.879 54.0703 270.072 53.0381 270.072 51.3154C270.072 49.5996 270.886 48.5605 272.226 48.5605ZM281.844 55H283.02V44.7051H281.844V55ZM288.331 55.1299C290.43 55.1299 291.729 53.6807 291.729 51.3154C291.729 48.9434 290.43 47.501 288.331 47.501C286.232 47.501 284.934 48.9434 284.934 51.3154C284.934 53.6807 286.232 55.1299 288.331 55.1299ZM288.331 54.0703C286.937 54.0703 286.15 53.0586 286.15 51.3154C286.15 49.5654 286.937 48.5605 288.331 48.5605C289.726 48.5605 290.512 49.5654 290.512 51.3154C290.512 53.0586 289.726 54.0703 288.331 54.0703ZM299.316 47.6309H298.059L296.042 53.7012H295.933L293.916 47.6309H292.658L295.386 55H296.589L299.316 47.6309ZM303.555 48.54C304.724 48.54 305.503 49.4014 305.53 50.707H301.47C301.559 49.4014 302.379 48.54 303.555 48.54ZM305.496 53.0928C305.188 53.7422 304.546 54.0908 303.596 54.0908C302.345 54.0908 301.531 53.168 301.47 51.7119V51.6572H306.768V51.2061C306.768 48.916 305.558 47.501 303.568 47.501C301.545 47.501 300.246 49.0049 300.246 51.3223C300.246 53.6533 301.524 55.1299 303.568 55.1299C305.182 55.1299 306.316 54.3574 306.672 53.0928H305.496ZM313.057 45.7236V47.6309H311.867V48.6152H313.057V53.0859C313.057 54.4941 313.665 55.0547 315.183 55.0547C315.415 55.0547 315.641 55.0273 315.873 54.9863V53.9951C315.654 54.0156 315.538 54.0225 315.326 54.0225C314.561 54.0225 314.232 53.6533 314.232 52.7852V48.6152H315.873V47.6309H314.232V45.7236H313.057ZM320.569 55.1299C322.668 55.1299 323.967 53.6807 323.967 51.3154C323.967 48.9434 322.668 47.501 320.569 47.501C318.471 47.501 317.172 48.9434 317.172 51.3154C317.172 53.6807 318.471 55.1299 320.569 55.1299ZM320.569 54.0703C319.175 54.0703 318.389 53.0586 318.389 51.3154C318.389 49.5654 319.175 48.5605 320.569 48.5605C321.964 48.5605 322.75 49.5654 322.75 51.3154C322.75 53.0586 321.964 54.0703 320.569 54.0703ZM55.0684 67.6309H53.8926V71.9922C53.8926 73.2842 53.1816 74.0566 51.8828 74.0566C50.707 74.0566 50.2148 73.4414 50.2148 72.1152V67.6309H49.0391V72.4023C49.0391 74.1455 49.9004 75.1299 51.5547 75.1299C52.6826 75.1299 53.4688 74.665 53.8379 73.8447H53.9473V75H55.0684V67.6309ZM57.1123 69.6475C57.1123 70.7139 57.7412 71.3086 59.1221 71.6436L60.3867 71.9512C61.1729 72.1426 61.5557 72.4844 61.5557 72.9902C61.5557 73.667 60.8447 74.1387 59.8535 74.1387C58.9102 74.1387 58.3223 73.7422 58.124 73.1201H56.9141C57.0439 74.3438 58.1719 75.1299 59.8125 75.1299C61.4873 75.1299 62.7656 74.2207 62.7656 72.9014C62.7656 71.8418 62.0957 71.2402 60.708 70.9053L59.5732 70.6318C58.7051 70.4199 58.2949 70.1055 58.2949 69.5996C58.2949 68.9434 58.9785 68.499 59.8535 68.499C60.7422 68.499 61.3164 68.8887 61.4736 69.4766H62.6357C62.4785 68.2666 61.4053 67.501 59.8604 67.501C58.2949 67.501 57.1123 68.4238 57.1123 69.6475ZM67.5508 68.54C68.7197 68.54 69.499 69.4014 69.5264 70.707H65.4658C65.5547 69.4014 66.375 68.54 67.5508 68.54ZM69.4922 73.0928C69.1846 73.7422 68.542 74.0908 67.5918 74.0908C66.3408 74.0908 65.5273 73.168 65.4658 71.7119V71.6572H70.7637V71.2061C70.7637 68.916 69.5537 67.501 67.5645 67.501C65.541 67.501 64.2422 69.0049 64.2422 71.3223C64.2422 73.6533 65.5205 75.1299 67.5645 75.1299C69.1777 75.1299 70.3125 74.3574 70.668 73.0928H69.4922ZM82.6582 69.8867C82.4531 68.5742 81.3594 67.501 79.5684 67.501C77.5039 67.501 76.1914 68.9912 76.1914 71.2881C76.1914 73.6328 77.5107 75.1299 79.5752 75.1299C81.3457 75.1299 82.4463 74.1318 82.6582 72.7783H81.4688C81.25 73.6123 80.5596 74.0703 79.5684 74.0703C78.2559 74.0703 77.4082 72.9902 77.4082 71.2881C77.4082 69.6201 78.2422 68.5605 79.5684 68.5605C80.6279 68.5605 81.2773 69.1553 81.4688 69.8867H82.6582ZM87.4229 75.1299C89.5215 75.1299 90.8203 73.6807 90.8203 71.3154C90.8203 68.9434 89.5215 67.501 87.4229 67.501C85.3242 67.501 84.0254 68.9434 84.0254 71.3154C84.0254 73.6807 85.3242 75.1299 87.4229 75.1299ZM87.4229 74.0703C86.0283 74.0703 85.2422 73.0586 85.2422 71.3154C85.2422 69.5654 86.0283 68.5605 87.4229 68.5605C88.8174 68.5605 89.6035 69.5654 89.6035 71.3154C89.6035 73.0586 88.8174 74.0703 87.4229 74.0703ZM95.6943 75.1299C97.793 75.1299 99.0918 73.6807 99.0918 71.3154C99.0918 68.9434 97.793 67.501 95.6943 67.501C93.5957 67.501 92.2969 68.9434 92.2969 71.3154C92.2969 73.6807 93.5957 75.1299 95.6943 75.1299ZM95.6943 74.0703C94.2998 74.0703 93.5137 73.0586 93.5137 71.3154C93.5137 69.5654 94.2998 68.5605 95.6943 68.5605C97.0889 68.5605 97.875 69.5654 97.875 71.3154C97.875 73.0586 97.0889 74.0703 95.6943 74.0703ZM102.291 70.8506H102.182V64.7051H101.006V75H102.182V72.2041L102.886 71.5479L105.647 75H107.145L103.761 70.7891L106.933 67.6309H105.49L102.291 70.8506ZM108.566 75H109.742V67.6309H108.566V75ZM109.154 66.1338C109.605 66.1338 109.975 65.7646 109.975 65.3135C109.975 64.8623 109.605 64.4932 109.154 64.4932C108.703 64.4932 108.334 64.8623 108.334 65.3135C108.334 65.7646 108.703 66.1338 109.154 66.1338ZM114.924 68.54C116.093 68.54 116.872 69.4014 116.899 70.707H112.839C112.928 69.4014 113.748 68.54 114.924 68.54ZM116.865 73.0928C116.558 73.7422 115.915 74.0908 114.965 74.0908C113.714 74.0908 112.9 73.168 112.839 71.7119V71.6572H118.137V71.2061C118.137 68.916 116.927 67.501 114.938 67.501C112.914 67.501 111.615 69.0049 111.615 71.3223C111.615 73.6533 112.894 75.1299 114.938 75.1299C116.551 75.1299 117.686 74.3574 118.041 73.0928H116.865ZM119.812 69.6475C119.812 70.7139 120.44 71.3086 121.821 71.6436L123.086 71.9512C123.872 72.1426 124.255 72.4844 124.255 72.9902C124.255 73.667 123.544 74.1387 122.553 74.1387C121.609 74.1387 121.021 73.7422 120.823 73.1201H119.613C119.743 74.3438 120.871 75.1299 122.512 75.1299C124.187 75.1299 125.465 74.2207 125.465 72.9014C125.465 71.8418 124.795 71.2402 123.407 70.9053L122.272 70.6318C121.404 70.4199 120.994 70.1055 120.994 69.5996C120.994 68.9434 121.678 68.499 122.553 68.499C123.441 68.499 124.016 68.8887 124.173 69.4766H125.335C125.178 68.2666 124.104 67.501 122.56 67.501C120.994 67.501 119.812 68.4238 119.812 69.6475ZM131.754 65.7236V67.6309H130.564V68.6152H131.754V73.0859C131.754 74.4941 132.362 75.0547 133.88 75.0547C134.112 75.0547 134.338 75.0273 134.57 74.9863V73.9951C134.352 74.0156 134.235 74.0225 134.023 74.0225C133.258 74.0225 132.93 73.6533 132.93 72.7852V68.6152H134.57V67.6309H132.93V65.7236H131.754ZM139.267 75.1299C141.365 75.1299 142.664 73.6807 142.664 71.3154C142.664 68.9434 141.365 67.501 139.267 67.501C137.168 67.501 135.869 68.9434 135.869 71.3154C135.869 73.6807 137.168 75.1299 139.267 75.1299ZM139.267 74.0703C137.872 74.0703 137.086 73.0586 137.086 71.3154C137.086 69.5654 137.872 68.5605 139.267 68.5605C140.661 68.5605 141.447 69.5654 141.447 71.3154C141.447 73.0586 140.661 74.0703 139.267 74.0703ZM148.461 75H149.637V70.4336C149.637 69.3945 150.382 68.5605 151.346 68.5605C152.275 68.5605 152.884 69.1211 152.884 69.9961V75H154.06V70.2627C154.06 69.3262 154.743 68.5605 155.769 68.5605C156.808 68.5605 157.32 69.0938 157.32 70.1807V75H158.496V69.9072C158.496 68.3623 157.655 67.501 156.151 67.501C155.133 67.501 154.292 68.0137 153.896 68.793H153.786C153.444 68.0273 152.747 67.501 151.749 67.501C150.765 67.501 150.026 67.9727 149.691 68.793H149.582V67.6309H148.461V75ZM162.912 74.0977C162.058 74.0977 161.422 73.6602 161.422 72.9082C161.422 72.1699 161.914 71.7803 163.035 71.7051L165.018 71.5752V72.252C165.018 73.3047 164.122 74.0977 162.912 74.0977ZM162.693 75.1299C163.678 75.1299 164.484 74.6992 164.963 73.9131H165.072V75H166.193V69.9551C166.193 68.4238 165.188 67.501 163.391 67.501C161.818 67.501 160.656 68.2803 160.499 69.4629H161.688C161.853 68.8818 162.468 68.5469 163.35 68.5469C164.45 68.5469 165.018 69.0459 165.018 69.9551V70.625L162.892 70.7549C161.176 70.8574 160.205 71.6162 160.205 72.9355C160.205 74.2822 161.265 75.1299 162.693 75.1299ZM169.721 70.8506H169.611V64.7051H168.436V75H169.611V72.2041L170.315 71.5479L173.077 75H174.574L171.19 70.7891L174.362 67.6309H172.92L169.721 70.8506ZM178.566 68.54C179.735 68.54 180.515 69.4014 180.542 70.707H176.481C176.57 69.4014 177.391 68.54 178.566 68.54ZM180.508 73.0928C180.2 73.7422 179.558 74.0908 178.607 74.0908C177.356 74.0908 176.543 73.168 176.481 71.7119V71.6572H181.779V71.2061C181.779 68.916 180.569 67.501 178.58 67.501C176.557 67.501 175.258 69.0049 175.258 71.3223C175.258 73.6533 176.536 75.1299 178.58 75.1299C180.193 75.1299 181.328 74.3574 181.684 73.0928H180.508ZM188.205 77.666C189.511 77.666 190.099 77.1602 190.728 75.4512L193.605 67.6309H192.354L190.338 73.6943H190.229L188.205 67.6309H186.934L189.661 75.0068L189.524 75.4443C189.217 76.333 188.848 76.6543 188.171 76.6543C188.007 76.6543 187.822 76.6475 187.679 76.6201V77.625C187.843 77.6523 188.048 77.666 188.205 77.666ZM197.933 75.1299C200.031 75.1299 201.33 73.6807 201.33 71.3154C201.33 68.9434 200.031 67.501 197.933 67.501C195.834 67.501 194.535 68.9434 194.535 71.3154C194.535 73.6807 195.834 75.1299 197.933 75.1299ZM197.933 74.0703C196.538 74.0703 195.752 73.0586 195.752 71.3154C195.752 69.5654 196.538 68.5605 197.933 68.5605C199.327 68.5605 200.113 69.5654 200.113 71.3154C200.113 73.0586 199.327 74.0703 197.933 74.0703ZM209.137 67.6309H207.961V71.9922C207.961 73.2842 207.25 74.0566 205.951 74.0566C204.775 74.0566 204.283 73.4414 204.283 72.1152V67.6309H203.107V72.4023C203.107 74.1455 203.969 75.1299 205.623 75.1299C206.751 75.1299 207.537 74.665 207.906 73.8447H208.016V75H209.137V67.6309ZM211.352 75H212.527V70.4336C212.527 69.3945 213.341 68.6426 214.462 68.6426C214.694 68.6426 215.118 68.6836 215.214 68.7109V67.5352C215.063 67.5146 214.817 67.501 214.626 67.501C213.648 67.501 212.801 68.0068 212.582 68.7246H212.473V67.6309H211.352V75ZM223.574 68.54C224.743 68.54 225.522 69.4014 225.55 70.707H221.489C221.578 69.4014 222.398 68.54 223.574 68.54ZM225.516 73.0928C225.208 73.7422 224.565 74.0908 223.615 74.0908C222.364 74.0908 221.551 73.168 221.489 71.7119V71.6572H226.787V71.2061C226.787 68.916 225.577 67.501 223.588 67.501C221.564 67.501 220.266 69.0049 220.266 71.3223C220.266 73.6533 221.544 75.1299 223.588 75.1299C225.201 75.1299 226.336 74.3574 226.691 73.0928H225.516ZM230.971 72.2178L232.714 75H234.108L231.572 71.2676L234.074 67.6309H232.741L231.012 70.3721H230.902L229.152 67.6309H227.751L230.301 71.3154L227.778 75H229.111L230.861 72.2178H230.971ZM239.304 67.501C238.299 67.501 237.417 68.0137 236.945 68.8613H236.836V67.6309H235.715V77.4609H236.891V73.8926H237C237.403 74.6719 238.251 75.1299 239.304 75.1299C241.177 75.1299 242.4 73.6191 242.4 71.3154C242.4 68.998 241.184 67.501 239.304 67.501ZM239.023 74.0703C237.697 74.0703 236.856 73.0039 236.856 71.3154C236.856 69.6201 237.697 68.5605 239.03 68.5605C240.377 68.5605 241.184 69.5928 241.184 71.3154C241.184 73.0381 240.377 74.0703 239.023 74.0703ZM247.186 68.54C248.354 68.54 249.134 69.4014 249.161 70.707H245.101C245.189 69.4014 246.01 68.54 247.186 68.54ZM249.127 73.0928C248.819 73.7422 248.177 74.0908 247.227 74.0908C245.976 74.0908 245.162 73.168 245.101 71.7119V71.6572H250.398V71.2061C250.398 68.916 249.188 67.501 247.199 67.501C245.176 67.501 243.877 69.0049 243.877 71.3223C243.877 73.6533 245.155 75.1299 247.199 75.1299C248.812 75.1299 249.947 74.3574 250.303 73.0928H249.127ZM252.244 75H253.42V70.4336C253.42 69.3945 254.233 68.6426 255.354 68.6426C255.587 68.6426 256.011 68.6836 256.106 68.7109V67.5352C255.956 67.5146 255.71 67.501 255.519 67.501C254.541 67.501 253.693 68.0068 253.475 68.7246H253.365V67.6309H252.244V75ZM257.604 75H258.779V67.6309H257.604V75ZM258.191 66.1338C258.643 66.1338 259.012 65.7646 259.012 65.3135C259.012 64.8623 258.643 64.4932 258.191 64.4932C257.74 64.4932 257.371 64.8623 257.371 65.3135C257.371 65.7646 257.74 66.1338 258.191 66.1338ZM263.961 68.54C265.13 68.54 265.909 69.4014 265.937 70.707H261.876C261.965 69.4014 262.785 68.54 263.961 68.54ZM265.902 73.0928C265.595 73.7422 264.952 74.0908 264.002 74.0908C262.751 74.0908 261.938 73.168 261.876 71.7119V71.6572H267.174V71.2061C267.174 68.916 265.964 67.501 263.975 67.501C261.951 67.501 260.652 69.0049 260.652 71.3223C260.652 73.6533 261.931 75.1299 263.975 75.1299C265.588 75.1299 266.723 74.3574 267.078 73.0928H265.902ZM269.02 75H270.195V70.6387C270.195 69.3467 270.954 68.5605 272.13 68.5605C273.306 68.5605 273.866 69.1895 273.866 70.5156V75H275.042V70.2285C275.042 68.4785 274.119 67.501 272.465 67.501C271.337 67.501 270.619 67.9795 270.25 68.793H270.141V67.6309H269.02V75ZM283.293 69.8867C283.088 68.5742 281.994 67.501 280.203 67.501C278.139 67.501 276.826 68.9912 276.826 71.2881C276.826 73.6328 278.146 75.1299 280.21 75.1299C281.98 75.1299 283.081 74.1318 283.293 72.7783H282.104C281.885 73.6123 281.194 74.0703 280.203 74.0703C278.891 74.0703 278.043 72.9902 278.043 71.2881C278.043 69.6201 278.877 68.5605 280.203 68.5605C281.263 68.5605 281.912 69.1553 282.104 69.8867H283.293ZM287.969 68.54C289.138 68.54 289.917 69.4014 289.944 70.707H285.884C285.973 69.4014 286.793 68.54 287.969 68.54ZM289.91 73.0928C289.603 73.7422 288.96 74.0908 288.01 74.0908C286.759 74.0908 285.945 73.168 285.884 71.7119V71.6572H291.182V71.2061C291.182 68.916 289.972 67.501 287.982 67.501C285.959 67.501 284.66 69.0049 284.66 71.3223C284.66 73.6533 285.938 75.1299 287.982 75.1299C289.596 75.1299 290.73 74.3574 291.086 73.0928H289.91ZM52.7715 95.1299C54.6377 95.1299 55.8613 93.6191 55.8613 91.3154C55.8613 88.998 54.6445 87.501 52.7715 87.501C51.7598 87.501 50.8643 88 50.4609 88.793H50.3516V84.7051H49.1758V95H50.2969V93.8242H50.4062C50.8711 94.6445 51.7461 95.1299 52.7715 95.1299ZM52.498 88.5605C53.8447 88.5605 54.6445 89.5928 54.6445 91.3154C54.6445 93.0381 53.8447 94.0703 52.498 94.0703C51.1582 94.0703 50.3242 93.0176 50.3242 91.3154C50.3242 89.6133 51.1582 88.5605 52.498 88.5605ZM60.6465 88.54C61.8154 88.54 62.5947 89.4014 62.6221 90.707H58.5615C58.6504 89.4014 59.4707 88.54 60.6465 88.54ZM62.5879 93.0928C62.2803 93.7422 61.6377 94.0908 60.6875 94.0908C59.4365 94.0908 58.623 93.168 58.5615 91.7119V91.6572H63.8594V91.2061C63.8594 88.916 62.6494 87.501 60.6602 87.501C58.6367 87.501 57.3379 89.0049 57.3379 91.3223C57.3379 93.6533 58.6162 95.1299 60.6602 95.1299C62.2734 95.1299 63.4082 94.3574 63.7637 93.0928H62.5879ZM66.1973 85.7236V87.6309H65.0078V88.6152H66.1973V93.0859C66.1973 94.4941 66.8057 95.0547 68.3232 95.0547C68.5557 95.0547 68.7812 95.0273 69.0137 94.9863V93.9951C68.7949 94.0156 68.6787 94.0225 68.4668 94.0225C67.7012 94.0225 67.373 93.6533 67.373 92.7852V88.6152H69.0137V87.6309H67.373V85.7236H66.1973ZM71.2832 85.7236V87.6309H70.0938V88.6152H71.2832V93.0859C71.2832 94.4941 71.8916 95.0547 73.4092 95.0547C73.6416 95.0547 73.8672 95.0273 74.0996 94.9863V93.9951C73.8809 94.0156 73.7646 94.0225 73.5527 94.0225C72.7871 94.0225 72.459 93.6533 72.459 92.7852V88.6152H74.0996V87.6309H72.459V85.7236H71.2832ZM78.707 88.54C79.876 88.54 80.6553 89.4014 80.6826 90.707H76.6221C76.7109 89.4014 77.5312 88.54 78.707 88.54ZM80.6484 93.0928C80.3408 93.7422 79.6982 94.0908 78.748 94.0908C77.4971 94.0908 76.6836 93.168 76.6221 91.7119V91.6572H81.9199V91.2061C81.9199 88.916 80.71 87.501 78.7207 87.501C76.6973 87.501 75.3984 89.0049 75.3984 91.3223C75.3984 93.6533 76.6768 95.1299 78.7207 95.1299C80.334 95.1299 81.4688 94.3574 81.8242 93.0928H80.6484ZM83.7656 95H84.9414V90.4336C84.9414 89.3945 85.7549 88.6426 86.876 88.6426C87.1084 88.6426 87.5322 88.6836 87.6279 88.7109V87.5352C87.4775 87.5146 87.2314 87.501 87.04 87.501C86.0625 87.501 85.2148 88.0068 84.9961 88.7246H84.8867V87.6309H83.7656V95ZM89.1797 95.0684C89.6719 95.0684 90.0684 94.665 90.0684 94.1797C90.0684 93.6875 89.6719 93.291 89.1797 93.291C88.6943 93.291 88.291 93.6875 88.291 94.1797C88.291 94.665 88.6943 95.0684 89.1797 95.0684Z" fill="black"/>
<path d="M49.7129 123.136V133H51.2441V129.678H53.5273C55.4619 129.678 56.8291 128.352 56.8291 126.424C56.8291 124.469 55.5029 123.136 53.5752 123.136H49.7129ZM51.2441 124.489H53.1719C54.5186 124.489 55.2637 125.173 55.2637 126.424C55.2637 127.647 54.4912 128.331 53.1719 128.331H51.2441V124.489ZM58.6338 133H60.1035V128.604C60.1035 127.559 60.8896 126.854 62.0039 126.854C62.2637 126.854 62.7012 126.902 62.8242 126.943V125.494C62.667 125.453 62.3867 125.433 62.168 125.433C61.1973 125.433 60.3701 125.966 60.1582 126.697H60.0488V125.556H58.6338V133ZM64.2666 133H65.7295V125.556H64.2666V133ZM64.998 124.25C65.5449 124.25 65.9482 123.86 65.9482 123.354C65.9482 122.842 65.5449 122.452 64.998 122.452C64.4512 122.452 64.0479 122.842 64.0479 123.354C64.0479 123.86 64.4512 124.25 64.998 124.25ZM74.1924 125.556H72.6338L70.7881 131.428H70.6719L68.8193 125.556H67.2471L69.9336 133H71.5127L74.1924 125.556ZM77.8564 131.886C77.0566 131.886 76.4756 131.496 76.4756 130.826C76.4756 130.17 76.9404 129.821 77.9658 129.753L79.7842 129.637V130.259C79.7842 131.182 78.9639 131.886 77.8564 131.886ZM77.4805 133.123C78.458 133.123 79.2715 132.699 79.7158 131.954H79.832V133H81.2471V127.914C81.2471 126.342 80.1943 125.412 78.3281 125.412C76.6396 125.412 75.4365 126.232 75.2861 127.511H76.708C76.8721 126.984 77.4395 126.684 78.2598 126.684C79.2646 126.684 79.7842 127.128 79.7842 127.914V128.557L77.7676 128.673C75.9971 128.782 74.999 129.555 74.999 130.895C74.999 132.255 76.0449 133.123 77.4805 133.123ZM89.6416 127.989C89.4502 126.499 88.3223 125.412 86.4561 125.412C84.2891 125.412 82.9697 126.868 82.9697 129.254C82.9697 131.681 84.2959 133.144 86.4629 133.144C88.3018 133.144 89.4502 132.104 89.6416 130.607H88.2129C88.0215 131.407 87.3857 131.831 86.4561 131.831C85.2324 131.831 84.4736 130.867 84.4736 129.254C84.4736 127.668 85.2256 126.725 86.4561 126.725C87.4404 126.725 88.042 127.265 88.2129 127.989H89.6416ZM92.0615 135.7C93.5791 135.7 94.2832 135.119 94.9189 133.308L97.6943 125.556H96.1357L94.2764 131.469H94.1602L92.2939 125.556H90.6943L93.3877 133.027L93.2783 133.39C93.0254 134.142 92.6289 134.429 91.9316 134.429C91.7949 134.429 91.5693 134.422 91.4531 134.401V135.666C91.5898 135.687 91.9385 135.7 92.0615 135.7ZM103.197 123.136V133H104.729V129.678H107.012C108.946 129.678 110.313 128.352 110.313 126.424C110.313 124.469 108.987 123.136 107.06 123.136H103.197ZM104.729 124.489H106.656C108.003 124.489 108.748 125.173 108.748 126.424C108.748 127.647 107.976 128.331 106.656 128.331H104.729V124.489ZM115.058 133.144C117.231 133.144 118.564 131.688 118.564 129.274C118.564 126.875 117.225 125.412 115.058 125.412C112.884 125.412 111.544 126.875 111.544 129.274C111.544 131.688 112.877 133.144 115.058 133.144ZM115.058 131.838C113.779 131.838 113.062 130.901 113.062 129.274C113.062 127.661 113.779 126.718 115.058 126.718C116.329 126.718 117.054 127.661 117.054 129.274C117.054 130.895 116.329 131.838 115.058 131.838ZM120.403 133H121.873V122.65H120.403V133ZM124.108 133H125.571V125.556H124.108V133ZM124.84 124.25C125.387 124.25 125.79 123.86 125.79 123.354C125.79 122.842 125.387 122.452 124.84 122.452C124.293 122.452 123.89 122.842 123.89 123.354C123.89 123.86 124.293 124.25 124.84 124.25ZM134.034 127.989C133.843 126.499 132.715 125.412 130.849 125.412C128.682 125.412 127.362 126.868 127.362 129.254C127.362 131.681 128.688 133.144 130.855 133.144C132.694 133.144 133.843 132.104 134.034 130.607H132.605C132.414 131.407 131.778 131.831 130.849 131.831C129.625 131.831 128.866 130.867 128.866 129.254C128.866 127.668 129.618 126.725 130.849 126.725C131.833 126.725 132.435 127.265 132.605 127.989H134.034ZM136.454 135.7C137.972 135.7 138.676 135.119 139.312 133.308L142.087 125.556H140.528L138.669 131.469H138.553L136.687 125.556H135.087L137.78 133.027L137.671 133.39C137.418 134.142 137.021 134.429 136.324 134.429C136.188 134.429 135.962 134.422 135.846 134.401V135.666C135.982 135.687 136.331 135.7 136.454 135.7Z" fill="#6666FF"/>
<rect x="272" y="112" width="64" height="33" rx="4" fill="#6666FF"/>
<path d="M287.874 133H289.501L285.939 123.136H284.292L280.73 133H282.303L283.212 130.382H286.972L287.874 133ZM285.037 124.927H285.153L286.582 129.097H283.602L285.037 124.927ZM296.945 127.989C296.754 126.499 295.626 125.412 293.76 125.412C291.593 125.412 290.273 126.868 290.273 129.254C290.273 131.681 291.6 133.144 293.767 133.144C295.605 133.144 296.754 132.104 296.945 130.607H295.517C295.325 131.407 294.689 131.831 293.76 131.831C292.536 131.831 291.777 130.867 291.777 129.254C291.777 127.668 292.529 126.725 293.76 126.725C294.744 126.725 295.346 127.265 295.517 127.989H296.945ZM304.93 127.989C304.738 126.499 303.61 125.412 301.744 125.412C299.577 125.412 298.258 126.868 298.258 129.254C298.258 131.681 299.584 133.144 301.751 133.144C303.59 133.144 304.738 132.104 304.93 130.607H303.501C303.31 131.407 302.674 131.831 301.744 131.831C300.521 131.831 299.762 130.867 299.762 129.254C299.762 127.668 300.514 126.725 301.744 126.725C302.729 126.725 303.33 127.265 303.501 127.989H304.93ZM309.667 126.663C310.754 126.663 311.465 127.422 311.499 128.591H307.739C307.821 127.429 308.58 126.663 309.667 126.663ZM311.492 130.99C311.219 131.571 310.61 131.893 309.722 131.893C308.546 131.893 307.787 131.065 307.739 129.76V129.678H312.996V129.165C312.996 126.827 311.745 125.412 309.674 125.412C307.575 125.412 306.242 126.923 306.242 129.302C306.242 131.681 307.548 133.144 309.681 133.144C311.383 133.144 312.572 132.323 312.907 130.99H311.492ZM318.622 125.433C317.61 125.433 316.735 125.938 316.284 126.786H316.175V125.556H314.76V135.475H316.229V131.872H316.346C316.735 132.658 317.576 133.123 318.636 133.123C320.516 133.123 321.712 131.64 321.712 129.274C321.712 126.909 320.516 125.433 318.622 125.433ZM318.205 131.804C316.975 131.804 316.202 130.833 316.202 129.281C316.202 127.723 316.975 126.752 318.212 126.752C319.456 126.752 320.201 127.702 320.201 129.274C320.201 130.854 319.456 131.804 318.205 131.804ZM324.002 123.703V125.59H322.819V126.827H324.002V131.031C324.002 132.467 324.651 133.041 326.285 133.041C326.572 133.041 326.846 133.007 327.085 132.966V131.742C326.88 131.763 326.75 131.776 326.524 131.776C325.793 131.776 325.472 131.435 325.472 130.655V126.827H327.085V125.59H325.472V123.703H324.002Z" fill="white"/>
</g>
<defs>
<filter id="filter0_d_23_539" x="0" y="0" width="384" height="201" filterUnits="userSpaceOnUse" color-interpolation-filters="sRGB">
<feFlood flood-opacity="0" result="BackgroundImageFix"/>
<feColorMatrix in="SourceAlpha" type="matrix" values="0 0 0 0 0 0 0 0 0 0 0 0 0 0 0 0 0 0 127 0" result="hardAlpha"/>
<feOffset dy="8"/>
<feGaussianBlur stdDeviation="16"/>
<feColorMatrix type="matrix" values="0 0 0 0 0.0392157 0 0 0 0 0.0117647 0 0 0 0 0.34902 0 0 0 0.1 0"/>
<feBlend mode="normal" in2="BackgroundImageFix" result="effect1_dropShadow_23_539"/>
<feBlend mode="normal" in="SourceGraphic" in2="effect1_dropShadow_23_539" result="shape"/>
</filter>
</defs>
</svg>
