<svg width="130" height="36" viewBox="0 0 130 36" fill="none" xmlns="http://www.w3.org/2000/svg">
<rect width="130" height="36" rx="2" fill="#4AD295"/>
<path d="M11.9815 22L12.7017 19.848H15.983L16.7074 22H18.3949L15.3182 13.2727H13.3665L10.294 22H11.9815ZM13.1278 18.5781L14.3082 15.0625H14.3764L15.5568 18.5781H13.1278ZM22.1321 22.1278C23.777 22.1278 24.8253 21.152 24.9361 19.7628H23.4616C23.3295 20.4659 22.8224 20.8707 22.1449 20.8707C21.1818 20.8707 20.5597 20.0653 20.5597 18.7273C20.5597 17.4062 21.1946 16.6136 22.1449 16.6136C22.8864 16.6136 23.3423 17.0909 23.4616 17.7216H24.9361C24.8295 16.3026 23.7216 15.3693 22.1236 15.3693C20.206 15.3693 18.9957 16.7543 18.9957 18.7528C18.9957 20.7344 20.1761 22.1278 22.1321 22.1278ZM29.0579 22.1278C30.7028 22.1278 31.7511 21.152 31.8619 19.7628H30.3874C30.2553 20.4659 29.7482 20.8707 29.0707 20.8707C28.1076 20.8707 27.4854 20.0653 27.4854 18.7273C27.4854 17.4062 28.1204 16.6136 29.0707 16.6136C29.8121 16.6136 30.2681 17.0909 30.3874 17.7216H31.8619C31.7553 16.3026 30.6474 15.3693 29.0494 15.3693C27.1317 15.3693 25.9215 16.7543 25.9215 18.7528C25.9215 20.7344 27.1019 22.1278 29.0579 22.1278ZM36.0263 22.1278C37.5518 22.1278 38.6001 21.3821 38.8729 20.2443L37.4325 20.0824C37.2237 20.6364 36.7124 20.9261 36.0476 20.9261C35.0504 20.9261 34.3899 20.2699 34.3771 19.1491H38.9368V18.6761C38.9368 16.3793 37.5561 15.3693 35.9453 15.3693C34.0703 15.3693 32.8473 16.7457 32.8473 18.7656C32.8473 20.8196 34.0533 22.1278 36.0263 22.1278ZM34.3814 18.1094C34.4283 17.2741 35.0462 16.571 35.9666 16.571C36.853 16.571 37.4496 17.2188 37.4581 18.1094H34.3814ZM40.2418 24.4545H41.7844V20.9688H41.8484C42.0913 21.446 42.5984 22.1151 43.7234 22.1151C45.266 22.1151 46.4208 20.892 46.4208 18.7358C46.4208 16.554 45.2319 15.3693 43.7191 15.3693C42.5643 15.3693 42.0827 16.0639 41.8484 16.5369H41.7589V15.4545H40.2418V24.4545ZM41.7546 18.7273C41.7546 17.4574 42.3001 16.6349 43.293 16.6349C44.32 16.6349 44.8484 17.5085 44.8484 18.7273C44.8484 19.9545 44.3114 20.8494 43.293 20.8494C42.3086 20.8494 41.7546 19.9972 41.7546 18.7273ZM51.0103 15.4545H49.7191V13.8864H48.1765V15.4545H47.2475V16.6477H48.1765V20.2869C48.168 21.5185 49.0629 22.1236 50.2219 22.0895C50.6609 22.0767 50.9634 21.9915 51.1296 21.9361L50.8697 20.7301C50.7844 20.7514 50.6097 20.7898 50.418 20.7898C50.0302 20.7898 49.7191 20.6534 49.7191 20.0312V16.6477H51.0103V15.4545ZM56.4659 22L57.1861 19.848H60.4673L61.1918 22H62.8793L59.8026 13.2727H57.8509L54.7784 22H56.4659ZM57.6122 18.5781L58.7926 15.0625H58.8608L60.0412 18.5781H57.6122ZM65.5032 13.2727H63.9606V22H65.5032V13.2727ZM68.6321 13.2727H67.0895V22H68.6321V13.2727ZM80.7333 16.2173C80.4648 14.2784 78.9734 13.1534 77.0387 13.1534C74.7589 13.1534 73.0415 14.8153 73.0415 17.6364C73.0415 20.4531 74.7376 22.1193 77.0387 22.1193C79.114 22.1193 80.4904 20.777 80.7333 19.1108L79.1396 19.1023C78.9393 20.125 78.104 20.7003 77.06 20.7003C75.6452 20.7003 74.631 19.6392 74.631 17.6364C74.631 15.6676 75.6367 14.5724 77.0643 14.5724C78.1254 14.5724 78.9563 15.1733 79.1396 16.2173H80.7333ZM84.968 22.1278C86.8857 22.1278 88.1044 20.777 88.1044 18.7528C88.1044 16.7244 86.8857 15.3693 84.968 15.3693C83.0504 15.3693 81.8317 16.7244 81.8317 18.7528C81.8317 20.777 83.0504 22.1278 84.968 22.1278ZM84.9766 20.892C83.9155 20.892 83.3956 19.946 83.3956 18.7486C83.3956 17.5511 83.9155 16.5923 84.9766 16.5923C86.0206 16.5923 86.5405 17.5511 86.5405 18.7486C86.5405 19.946 86.0206 20.892 84.9766 20.892ZM92.2688 22.1278C94.1864 22.1278 95.4052 20.777 95.4052 18.7528C95.4052 16.7244 94.1864 15.3693 92.2688 15.3693C90.3512 15.3693 89.1325 16.7244 89.1325 18.7528C89.1325 20.777 90.3512 22.1278 92.2688 22.1278ZM92.2773 20.892C91.2163 20.892 90.6964 19.946 90.6964 18.7486C90.6964 17.5511 91.2163 16.5923 92.2773 16.5923C93.3214 16.5923 93.8413 17.5511 93.8413 18.7486C93.8413 19.946 93.3214 20.892 92.2773 20.892ZM96.7145 22H98.2571V19.8011L98.8196 19.2003L100.822 22H102.668L99.983 18.2798L102.518 15.4545H100.716L98.3636 18.0838H98.2571V13.2727H96.7145V22ZM103.547 22H105.089V15.4545H103.547V22ZM104.322 14.5256C104.812 14.5256 105.213 14.1506 105.213 13.6903C105.213 13.2259 104.812 12.8509 104.322 12.8509C103.828 12.8509 103.427 13.2259 103.427 13.6903C103.427 14.1506 103.828 14.5256 104.322 14.5256ZM109.573 22.1278C111.099 22.1278 112.147 21.3821 112.42 20.2443L110.979 20.0824C110.771 20.6364 110.259 20.9261 109.594 20.9261C108.597 20.9261 107.937 20.2699 107.924 19.1491H112.484V18.6761C112.484 16.3793 111.103 15.3693 109.492 15.3693C107.617 15.3693 106.394 16.7457 106.394 18.7656C106.394 20.8196 107.6 22.1278 109.573 22.1278ZM107.928 18.1094C107.975 17.2741 108.593 16.571 109.513 16.571C110.4 16.571 110.996 17.2188 111.005 18.1094H107.928ZM118.962 17.1847C118.749 16.0767 117.863 15.3693 116.328 15.3693C114.752 15.3693 113.678 16.1449 113.682 17.3551C113.678 18.3097 114.266 18.9403 115.523 19.2003L116.64 19.4347C117.24 19.5668 117.522 19.8097 117.522 20.1804C117.522 20.6278 117.036 20.9645 116.303 20.9645C115.596 20.9645 115.135 20.6577 115.003 20.0696L113.499 20.2145C113.691 21.4162 114.701 22.1278 116.307 22.1278C117.944 22.1278 119.098 21.2798 119.103 20.0398C119.098 19.1065 118.498 18.5355 117.262 18.267L116.145 18.0284C115.48 17.8793 115.216 17.6491 115.221 17.2699C115.216 16.8267 115.706 16.5199 116.35 16.5199C117.061 16.5199 117.436 16.9077 117.556 17.3381L118.962 17.1847Z" fill="white"/>
</svg>
