<svg width="596" height="100" viewBox="0 0 596 100" fill="none" xmlns="http://www.w3.org/2000/svg">
<g filter="url(#filter0_dd_23_540)">
<rect x="18" y="6" width="560" height="64" rx="10" fill="#26262B"/>
<path d="M34.072 31H35.212L36.088 28.912H40.336L41.2 31H42.376L38.764 22.504H37.816L34.072 31ZM39.952 27.976H36.484L38.248 23.8H38.272L39.952 27.976ZM43.2892 33.736H44.2252V30.004H44.2492C44.5972 30.64 45.4012 31.144 46.4092 31.144C47.9812 31.144 49.2172 29.872 49.2172 28.192C49.2172 26.488 48.0292 25.24 46.2652 25.24C45.4492 25.24 44.7652 25.6 44.2492 26.2H44.2252V25.384H43.2892V33.736ZM44.2252 28.192C44.2252 27.016 45.0052 26.104 46.2172 26.104C47.4292 26.104 48.2092 27.016 48.2092 28.192C48.2092 29.368 47.4292 30.28 46.2172 30.28C45.0052 30.28 44.2252 29.368 44.2252 28.192ZM50.6252 33.736H51.5612V30.004H51.5852C51.9332 30.64 52.7372 31.144 53.7452 31.144C55.3172 31.144 56.5532 29.872 56.5532 28.192C56.5532 26.488 55.3652 25.24 53.6012 25.24C52.7852 25.24 52.1012 25.6 51.5852 26.2H51.5612V25.384H50.6252V33.736ZM51.5612 28.192C51.5612 27.016 52.3412 26.104 53.5532 26.104C54.7652 26.104 55.5452 27.016 55.5452 28.192C55.5452 29.368 54.7652 30.28 53.5532 30.28C52.3412 30.28 51.5612 29.368 51.5612 28.192ZM66.2449 25.384H65.3089V28.12C65.3089 29.404 64.7809 30.28 63.5689 30.28C62.6929 30.28 62.2849 29.692 62.2849 28.756V25.384H61.3489V28.852C61.3489 30.208 62.0089 31.144 63.4849 31.144C64.4089 31.144 65.1049 30.628 65.3569 30.076H65.3809C65.3809 30.388 65.4049 30.7 65.4049 31H66.2929C66.2929 30.628 66.2449 30.184 66.2449 29.668V25.384ZM67.3929 30.1C67.9449 30.892 68.6289 31.144 69.5769 31.144C70.6929 31.144 71.8209 30.652 71.8209 29.38C71.8209 28.252 70.9809 27.892 69.9849 27.7C69.2409 27.556 68.5689 27.352 68.5689 26.884C68.5689 26.356 69.1569 26.104 69.6729 26.104C70.2249 26.104 70.6209 26.38 70.8609 26.776L71.6409 26.26C71.2569 25.54 70.5249 25.24 69.7329 25.24C68.6889 25.24 67.6329 25.804 67.6329 26.896C67.6329 28.06 68.5449 28.288 69.6129 28.528C70.2129 28.66 70.8129 28.816 70.8129 29.416C70.8129 30.028 70.1649 30.28 69.5769 30.28C68.9169 30.28 68.5089 29.98 68.1369 29.524L67.3929 30.1ZM77.4343 29.428C76.9903 29.992 76.4503 30.28 75.6463 30.28C74.6263 30.28 73.8823 29.452 73.8103 28.48H78.3463V28.18C78.3463 26.32 77.2663 25.24 75.6823 25.24C74.0263 25.24 72.8023 26.452 72.8023 28.192C72.8023 29.824 73.8823 31.144 75.6463 31.144C76.6903 31.144 77.4823 30.832 78.1423 29.98L77.4343 29.428ZM73.8103 27.688C73.9303 26.74 74.6143 26.104 75.6463 26.104C76.6783 26.104 77.3023 26.74 77.3383 27.688H73.8103ZM79.1703 30.1C79.7223 30.892 80.4062 31.144 81.3543 31.144C82.4703 31.144 83.5983 30.652 83.5983 29.38C83.5983 28.252 82.7583 27.892 81.7623 27.7C81.0183 27.556 80.3463 27.352 80.3463 26.884C80.3463 26.356 80.9343 26.104 81.4503 26.104C82.0023 26.104 82.3983 26.38 82.6383 26.776L83.4183 26.26C83.0343 25.54 82.3023 25.24 81.5103 25.24C80.4663 25.24 79.4103 25.804 79.4103 26.896C79.4103 28.06 80.3223 28.288 81.3903 28.528C81.9902 28.66 82.5903 28.816 82.5903 29.416C82.5903 30.028 81.9423 30.28 81.3543 30.28C80.6943 30.28 80.2863 29.98 79.9143 29.524L79.1703 30.1ZM92.9835 26.128C92.4195 25.516 91.6515 25.24 90.8235 25.24C89.0955 25.24 87.9195 26.488 87.9195 28.192C87.9195 29.92 89.0835 31.144 90.8235 31.144C91.6395 31.144 92.4075 30.868 92.9475 30.244L92.2515 29.584C91.9035 30.064 91.4355 30.28 90.8235 30.28C89.6835 30.28 88.9275 29.344 88.9275 28.192C88.9275 27.04 89.5635 26.104 90.8235 26.104C91.3875 26.104 91.8435 26.308 92.2395 26.788L92.9835 26.128ZM93.7085 28.192C93.7085 29.944 94.9805 31.144 96.7085 31.144C98.4365 31.144 99.7085 29.944 99.7085 28.192C99.7085 26.44 98.4365 25.24 96.7085 25.24C94.9805 25.24 93.7085 26.44 93.7085 28.192ZM94.7165 28.192C94.7165 27.016 95.4965 26.104 96.7085 26.104C97.9205 26.104 98.7005 27.016 98.7005 28.192C98.7005 29.368 97.9205 30.28 96.7085 30.28C95.4965 30.28 94.7165 29.368 94.7165 28.192ZM100.834 28.192C100.834 29.944 102.106 31.144 103.834 31.144C105.562 31.144 106.834 29.944 106.834 28.192C106.834 26.44 105.562 25.24 103.834 25.24C102.106 25.24 100.834 26.44 100.834 28.192ZM101.842 28.192C101.842 27.016 102.622 26.104 103.834 26.104C105.046 26.104 105.826 27.016 105.826 28.192C105.826 29.368 105.046 30.28 103.834 30.28C102.622 30.28 101.842 29.368 101.842 28.192ZM108.283 31H109.219V28.048L112.003 31H113.383L110.395 27.94L113.107 25.384H111.775L109.219 27.856V21.928H108.283V31ZM114.367 31H115.303V25.384H114.367V31ZM114.151 23.188C114.151 23.584 114.439 23.872 114.835 23.872C115.231 23.872 115.519 23.584 115.519 23.188C115.519 22.816 115.219 22.504 114.835 22.504C114.451 22.504 114.151 22.816 114.151 23.188ZM121.473 29.428C121.029 29.992 120.489 30.28 119.685 30.28C118.665 30.28 117.921 29.452 117.849 28.48H122.385V28.18C122.385 26.32 121.305 25.24 119.721 25.24C118.065 25.24 116.841 26.452 116.841 28.192C116.841 29.824 117.921 31.144 119.685 31.144C120.729 31.144 121.521 30.832 122.181 29.98L121.473 29.428ZM117.849 27.688C117.969 26.74 118.653 26.104 119.685 26.104C120.717 26.104 121.341 26.74 121.377 27.688H117.849ZM123.209 30.1C123.761 30.892 124.445 31.144 125.393 31.144C126.509 31.144 127.637 30.652 127.637 29.38C127.637 28.252 126.797 27.892 125.801 27.7C125.057 27.556 124.385 27.352 124.385 26.884C124.385 26.356 124.973 26.104 125.489 26.104C126.041 26.104 126.437 26.38 126.677 26.776L127.457 26.26C127.073 25.54 126.341 25.24 125.549 25.24C124.505 25.24 123.449 25.804 123.449 26.896C123.449 28.06 124.361 28.288 125.429 28.528C126.029 28.66 126.629 28.816 126.629 29.416C126.629 30.028 125.981 30.28 125.393 30.28C124.733 30.28 124.325 29.98 123.953 29.524L123.209 30.1ZM135.355 25.384H133.699V23.788H132.763V25.384H131.539V26.176H132.763V29.26C132.763 30.424 132.979 31.144 134.311 31.144C134.659 31.144 135.079 31.084 135.403 30.94L135.367 30.088C135.115 30.22 134.815 30.28 134.539 30.28C133.711 30.28 133.699 29.704 133.699 28.984V26.176H135.355V25.384ZM136.177 28.192C136.177 29.944 137.449 31.144 139.177 31.144C140.905 31.144 142.177 29.944 142.177 28.192C142.177 26.44 140.905 25.24 139.177 25.24C137.449 25.24 136.177 26.44 136.177 28.192ZM137.185 28.192C137.185 27.016 137.965 26.104 139.177 26.104C140.389 26.104 141.169 27.016 141.169 28.192C141.169 29.368 140.389 30.28 139.177 30.28C137.965 30.28 137.185 29.368 137.185 28.192ZM146.918 33.736H147.854V30.004H147.878C148.226 30.64 149.03 31.144 150.038 31.144C151.61 31.144 152.846 29.872 152.846 28.192C152.846 26.488 151.658 25.24 149.894 25.24C149.078 25.24 148.394 25.6 147.878 26.2H147.854V25.384H146.918V33.736ZM147.854 28.192C147.854 27.016 148.634 26.104 149.846 26.104C151.058 26.104 151.838 27.016 151.838 28.192C151.838 29.368 151.058 30.28 149.846 30.28C148.634 30.28 147.854 29.368 147.854 28.192ZM158.61 29.428C158.166 29.992 157.626 30.28 156.822 30.28C155.802 30.28 155.058 29.452 154.986 28.48H159.522V28.18C159.522 26.32 158.442 25.24 156.858 25.24C155.202 25.24 153.978 26.452 153.978 28.192C153.978 29.824 155.058 31.144 156.822 31.144C157.866 31.144 158.658 30.832 159.318 29.98L158.61 29.428ZM154.986 27.688C155.106 26.74 155.79 26.104 156.822 26.104C157.854 26.104 158.478 26.74 158.514 27.688H154.986ZM160.97 31H161.906V28.264C161.906 26.98 162.41 26.176 163.55 26.176C163.718 26.176 163.898 26.2 164.054 26.248L164.114 25.3C163.982 25.252 163.85 25.24 163.73 25.24C162.806 25.24 162.11 25.756 161.858 26.308H161.834C161.834 25.996 161.81 25.684 161.81 25.384H160.922C160.922 25.756 160.97 26.2 160.97 26.716V31ZM164.565 30.1C165.117 30.892 165.801 31.144 166.749 31.144C167.865 31.144 168.993 30.652 168.993 29.38C168.993 28.252 168.153 27.892 167.157 27.7C166.413 27.556 165.741 27.352 165.741 26.884C165.741 26.356 166.329 26.104 166.845 26.104C167.397 26.104 167.793 26.38 168.033 26.776L168.813 26.26C168.429 25.54 167.697 25.24 166.905 25.24C165.861 25.24 164.805 25.804 164.805 26.896C164.805 28.06 165.717 28.288 166.785 28.528C167.385 28.66 167.985 28.816 167.985 29.416C167.985 30.028 167.337 30.28 166.749 30.28C166.089 30.28 165.681 29.98 165.309 29.524L164.565 30.1ZM169.974 28.192C169.974 29.944 171.246 31.144 172.974 31.144C174.702 31.144 175.974 29.944 175.974 28.192C175.974 26.44 174.702 25.24 172.974 25.24C171.246 25.24 169.974 26.44 169.974 28.192ZM170.982 28.192C170.982 27.016 171.762 26.104 172.974 26.104C174.186 26.104 174.966 27.016 174.966 28.192C174.966 29.368 174.186 30.28 172.974 30.28C171.762 30.28 170.982 29.368 170.982 28.192ZM177.423 31H178.359V28.264C178.359 26.98 178.887 26.104 180.099 26.104C180.975 26.104 181.383 26.692 181.383 27.628V31H182.319V27.532C182.319 26.176 181.659 25.24 180.183 25.24C179.259 25.24 178.563 25.756 178.311 26.308H178.287C178.287 25.996 178.263 25.684 178.263 25.384H177.375C177.375 25.756 177.423 26.2 177.423 26.716V31ZM184.607 26.716C185.051 26.308 185.675 26.104 186.275 26.104C187.151 26.104 187.667 26.524 187.667 27.34V27.508H187.307C185.927 27.508 183.767 27.616 183.767 29.476C183.767 30.568 184.715 31.144 185.855 31.144C186.707 31.144 187.331 30.736 187.703 30.16H187.727C187.727 30.4 187.727 30.748 187.787 31H188.687C188.639 30.712 188.603 30.352 188.603 30.028V27.616C188.603 26.032 187.907 25.24 186.251 25.24C185.435 25.24 184.595 25.516 184.019 26.104L184.607 26.716ZM187.667 28.3V28.66C187.643 29.572 187.091 30.352 186.011 30.352C185.303 30.352 184.775 30.088 184.775 29.38C184.775 28.624 185.543 28.3 186.731 28.3H187.667ZM190.398 31H191.334V21.928H190.398V31ZM193.281 31H194.217V25.384H193.281V31ZM193.065 23.188C193.065 23.584 193.353 23.872 193.749 23.872C194.145 23.872 194.433 23.584 194.433 23.188C194.433 22.816 194.133 22.504 193.749 22.504C193.365 22.504 193.065 22.816 193.065 23.188ZM195.551 31H200.159V30.208H196.775L200.075 26.104V25.384H195.695V26.176H198.851L195.551 30.268V31ZM205.719 29.428C205.275 29.992 204.735 30.28 203.931 30.28C202.911 30.28 202.167 29.452 202.095 28.48H206.631V28.18C206.631 26.32 205.551 25.24 203.967 25.24C202.311 25.24 201.087 26.452 201.087 28.192C201.087 29.824 202.167 31.144 203.931 31.144C204.975 31.144 205.767 30.832 206.427 29.98L205.719 29.428ZM202.095 27.688C202.215 26.74 202.899 26.104 203.931 26.104C204.963 26.104 205.587 26.74 205.623 27.688H202.095ZM216.195 25.384H215.175L213.507 29.788H213.483L211.743 25.384H210.651L212.979 31.036L212.595 32.092C212.391 32.644 212.163 33.016 211.551 33.016C211.287 33.016 211.083 32.992 210.891 32.92L210.771 33.736C211.023 33.856 211.347 33.88 211.611 33.88C212.739 33.88 213.111 33.232 213.483 32.284L216.195 25.384ZM216.884 28.192C216.884 29.944 218.156 31.144 219.884 31.144C221.612 31.144 222.884 29.944 222.884 28.192C222.884 26.44 221.612 25.24 219.884 25.24C218.156 25.24 216.884 26.44 216.884 28.192ZM217.892 28.192C217.892 27.016 218.672 26.104 219.884 26.104C221.096 26.104 221.876 27.016 221.876 28.192C221.876 29.368 221.096 30.28 219.884 30.28C218.672 30.28 217.892 29.368 217.892 28.192ZM229.229 25.384H228.293V28.12C228.293 29.404 227.765 30.28 226.553 30.28C225.677 30.28 225.269 29.692 225.269 28.756V25.384H224.333V28.852C224.333 30.208 224.993 31.144 226.469 31.144C227.393 31.144 228.089 30.628 228.341 30.076H228.365C228.365 30.388 228.389 30.7 228.389 31H229.277C229.277 30.628 229.229 30.184 229.229 29.668V25.384ZM231.001 31H231.937V28.264C231.937 26.98 232.441 26.176 233.581 26.176C233.749 26.176 233.929 26.2 234.085 26.248L234.145 25.3C234.013 25.252 233.881 25.24 233.761 25.24C232.837 25.24 232.141 25.756 231.889 26.308H231.865C231.865 25.996 231.841 25.684 231.841 25.384H230.953C230.953 25.756 231.001 26.2 231.001 26.716V31ZM242.868 29.428C242.424 29.992 241.884 30.28 241.08 30.28C240.06 30.28 239.316 29.452 239.244 28.48H243.78V28.18C243.78 26.32 242.7 25.24 241.116 25.24C239.46 25.24 238.236 26.452 238.236 28.192C238.236 29.824 239.316 31.144 241.08 31.144C242.124 31.144 242.916 30.832 243.576 29.98L242.868 29.428ZM239.244 27.688C239.364 26.74 240.048 26.104 241.08 26.104C242.112 26.104 242.736 26.74 242.772 27.688H239.244ZM244.376 31H245.54L247.292 28.576L249.068 31H250.304L247.988 27.976L249.92 25.384H248.78L247.376 27.4L245.888 25.384H244.664L246.68 27.976L244.376 31ZM251.18 33.736H252.116V30.004H252.14C252.488 30.64 253.292 31.144 254.3 31.144C255.872 31.144 257.108 29.872 257.108 28.192C257.108 26.488 255.92 25.24 254.156 25.24C253.34 25.24 252.656 25.6 252.14 26.2H252.116V25.384H251.18V33.736ZM252.116 28.192C252.116 27.016 252.896 26.104 254.108 26.104C255.32 26.104 256.1 27.016 256.1 28.192C256.1 29.368 255.32 30.28 254.108 30.28C252.896 30.28 252.116 29.368 252.116 28.192ZM262.872 29.428C262.428 29.992 261.888 30.28 261.084 30.28C260.064 30.28 259.32 29.452 259.248 28.48H263.784V28.18C263.784 26.32 262.704 25.24 261.12 25.24C259.464 25.24 258.24 26.452 258.24 28.192C258.24 29.824 259.32 31.144 261.084 31.144C262.128 31.144 262.92 30.832 263.58 29.98L262.872 29.428ZM259.248 27.688C259.368 26.74 260.052 26.104 261.084 26.104C262.116 26.104 262.74 26.74 262.776 27.688H259.248ZM265.232 31H266.168V28.264C266.168 26.98 266.672 26.176 267.812 26.176C267.98 26.176 268.16 26.2 268.316 26.248L268.376 25.3C268.244 25.252 268.112 25.24 267.992 25.24C267.068 25.24 266.372 25.756 266.12 26.308H266.096C266.096 25.996 266.072 25.684 266.072 25.384H265.184C265.184 25.756 265.232 26.2 265.232 26.716V31ZM269.535 31H270.471V25.384H269.535V31ZM269.319 23.188C269.319 23.584 269.607 23.872 270.003 23.872C270.399 23.872 270.687 23.584 270.687 23.188C270.687 22.816 270.387 22.504 270.003 22.504C269.619 22.504 269.319 22.816 269.319 23.188ZM276.641 29.428C276.197 29.992 275.657 30.28 274.853 30.28C273.833 30.28 273.089 29.452 273.017 28.48H277.553V28.18C277.553 26.32 276.473 25.24 274.889 25.24C273.233 25.24 272.009 26.452 272.009 28.192C272.009 29.824 273.089 31.144 274.853 31.144C275.897 31.144 276.689 30.832 277.349 29.98L276.641 29.428ZM273.017 27.688C273.137 26.74 273.821 26.104 274.853 26.104C275.885 26.104 276.509 26.74 276.545 27.688H273.017ZM279.001 31H279.937V28.264C279.937 26.98 280.465 26.104 281.677 26.104C282.553 26.104 282.961 26.692 282.961 27.628V31H283.897V27.532C283.897 26.176 283.237 25.24 281.761 25.24C280.837 25.24 280.141 25.756 279.889 26.308H279.865C279.865 25.996 279.841 25.684 279.841 25.384H278.953C278.953 25.756 279.001 26.2 279.001 26.716V31ZM290.409 26.128C289.845 25.516 289.077 25.24 288.249 25.24C286.521 25.24 285.345 26.488 285.345 28.192C285.345 29.92 286.509 31.144 288.249 31.144C289.065 31.144 289.833 30.868 290.373 30.244L289.677 29.584C289.329 30.064 288.861 30.28 288.249 30.28C287.109 30.28 286.353 29.344 286.353 28.192C286.353 27.04 286.989 26.104 288.249 26.104C288.813 26.104 289.269 26.308 289.665 26.788L290.409 26.128ZM295.766 29.428C295.322 29.992 294.782 30.28 293.978 30.28C292.958 30.28 292.214 29.452 292.142 28.48H296.678V28.18C296.678 26.32 295.598 25.24 294.014 25.24C292.358 25.24 291.134 26.452 291.134 28.192C291.134 29.824 292.214 31.144 293.978 31.144C295.022 31.144 295.814 30.832 296.474 29.98L295.766 29.428ZM292.142 27.688C292.262 26.74 292.946 26.104 293.978 26.104C295.01 26.104 295.634 26.74 295.67 27.688H292.142ZM301.142 28.192C301.142 29.944 302.414 31.144 304.142 31.144C305.87 31.144 307.142 29.944 307.142 28.192C307.142 26.44 305.87 25.24 304.142 25.24C302.414 25.24 301.142 26.44 301.142 28.192ZM302.15 28.192C302.15 27.016 302.93 26.104 304.142 26.104C305.354 26.104 306.134 27.016 306.134 28.192C306.134 29.368 305.354 30.28 304.142 30.28C302.93 30.28 302.15 29.368 302.15 28.192ZM308.591 31H309.527V28.264C309.527 26.98 310.055 26.104 311.267 26.104C312.143 26.104 312.551 26.692 312.551 27.628V31H313.487V27.532C313.487 26.176 312.827 25.24 311.351 25.24C310.427 25.24 309.731 25.756 309.479 26.308H309.455C309.455 25.996 309.431 25.684 309.431 25.384H308.543C308.543 25.756 308.591 26.2 308.591 26.716V31ZM318.275 28.192C318.275 29.944 319.547 31.144 321.275 31.144C323.003 31.144 324.275 29.944 324.275 28.192C324.275 26.44 323.003 25.24 321.275 25.24C319.547 25.24 318.275 26.44 318.275 28.192ZM319.283 28.192C319.283 27.016 320.063 26.104 321.275 26.104C322.487 26.104 323.267 27.016 323.267 28.192C323.267 29.368 322.487 30.28 321.275 30.28C320.063 30.28 319.283 29.368 319.283 28.192ZM330.62 25.384H329.684V28.12C329.684 29.404 329.156 30.28 327.944 30.28C327.068 30.28 326.66 29.692 326.66 28.756V25.384H325.724V28.852C325.724 30.208 326.384 31.144 327.86 31.144C328.784 31.144 329.48 30.628 329.732 30.076H329.756C329.756 30.388 329.78 30.7 329.78 31H330.668C330.668 30.628 330.62 30.184 330.62 29.668V25.384ZM332.392 31H333.328V28.264C333.328 26.98 333.832 26.176 334.972 26.176C335.14 26.176 335.32 26.2 335.476 26.248L335.536 25.3C335.404 25.252 335.272 25.24 335.152 25.24C334.228 25.24 333.532 25.756 333.28 26.308H333.256C333.256 25.996 333.232 25.684 333.232 25.384H332.344C332.344 25.756 332.392 26.2 332.392 26.716V31ZM347.787 25.384H346.779L345.507 29.704H345.483L344.007 25.384H343.023L341.571 29.704H341.547L340.263 25.384H339.231L341.055 31H342.015L343.431 26.68H343.455L345.051 31H345.975L347.787 25.384ZM353.153 29.428C352.709 29.992 352.169 30.28 351.365 30.28C350.345 30.28 349.601 29.452 349.529 28.48H354.065V28.18C354.065 26.32 352.985 25.24 351.401 25.24C349.745 25.24 348.521 26.452 348.521 28.192C348.521 29.824 349.601 31.144 351.365 31.144C352.409 31.144 353.201 30.832 353.861 29.98L353.153 29.428ZM349.529 27.688C349.649 26.74 350.333 26.104 351.365 26.104C352.397 26.104 353.021 26.74 353.057 27.688H349.529ZM355.465 31H356.401V30.004H356.425C356.773 30.64 357.577 31.144 358.585 31.144C360.157 31.144 361.393 29.872 361.393 28.192C361.393 26.488 360.205 25.24 358.441 25.24C357.625 25.24 356.941 25.6 356.425 26.2H356.401V21.928H355.465V31ZM356.401 28.192C356.401 27.016 357.181 26.104 358.393 26.104C359.605 26.104 360.385 27.016 360.385 28.192C360.385 29.368 359.605 30.28 358.393 30.28C357.181 30.28 356.401 29.368 356.401 28.192ZM362.225 30.1C362.777 30.892 363.461 31.144 364.409 31.144C365.525 31.144 366.653 30.652 366.653 29.38C366.653 28.252 365.813 27.892 364.817 27.7C364.073 27.556 363.401 27.352 363.401 26.884C363.401 26.356 363.989 26.104 364.505 26.104C365.057 26.104 365.453 26.38 365.693 26.776L366.473 26.26C366.089 25.54 365.357 25.24 364.565 25.24C363.521 25.24 362.465 25.804 362.465 26.896C362.465 28.06 363.377 28.288 364.445 28.528C365.045 28.66 365.645 28.816 365.645 29.416C365.645 30.028 364.997 30.28 364.409 30.28C363.749 30.28 363.341 29.98 362.969 29.524L362.225 30.1ZM368.042 31H368.978V25.384H368.042V31ZM367.826 23.188C367.826 23.584 368.114 23.872 368.51 23.872C368.906 23.872 369.194 23.584 369.194 23.188C369.194 22.816 368.894 22.504 368.51 22.504C368.126 22.504 367.826 22.816 367.826 23.188ZM373.913 25.384H372.257V23.788H371.321V25.384H370.097V26.176H371.321V29.26C371.321 30.424 371.537 31.144 372.869 31.144C373.217 31.144 373.637 31.084 373.961 30.94L373.925 30.088C373.673 30.22 373.373 30.28 373.097 30.28C372.269 30.28 372.257 29.704 372.257 28.984V26.176H373.913V25.384ZM379.368 29.428C378.924 29.992 378.384 30.28 377.58 30.28C376.56 30.28 375.816 29.452 375.744 28.48H380.28V28.18C380.28 26.32 379.2 25.24 377.616 25.24C375.96 25.24 374.736 26.452 374.736 28.192C374.736 29.824 375.816 31.144 377.58 31.144C378.624 31.144 379.416 30.832 380.076 29.98L379.368 29.428ZM375.744 27.688C375.864 26.74 376.548 26.104 377.58 26.104C378.612 26.104 379.236 26.74 379.272 27.688H375.744ZM382.508 29.632C382.112 29.632 381.788 29.956 381.788 30.352C381.788 30.748 382.136 31.072 382.508 31.072C382.88 31.072 383.228 30.748 383.228 30.352C383.228 29.956 382.904 29.632 382.508 29.632ZM388.576 31H391.108C392.68 31 394.42 30.496 394.42 28.624C394.42 27.508 393.592 26.632 392.5 26.536V26.512C393.412 26.236 393.988 25.576 393.988 24.592C393.988 23.032 392.572 22.504 391.168 22.504H388.576V31ZM389.584 23.44H391.084C391.996 23.44 392.908 23.68 392.908 24.724C392.908 25.9 391.924 26.104 390.976 26.104H389.584V23.44ZM389.584 27.04H391.312C392.332 27.04 393.34 27.4 393.34 28.588C393.34 29.668 392.272 30.064 391.288 30.064H389.584V27.04ZM400.742 25.384H399.722L398.054 29.788H398.03L396.29 25.384H395.198L397.526 31.036L397.142 32.092C396.938 32.644 396.71 33.016 396.098 33.016C395.834 33.016 395.63 32.992 395.438 32.92L395.318 33.736C395.57 33.856 395.894 33.88 396.158 33.88C397.286 33.88 397.658 33.232 398.03 32.284L400.742 25.384ZM409.835 26.128C409.271 25.516 408.503 25.24 407.675 25.24C405.947 25.24 404.771 26.488 404.771 28.192C404.771 29.92 405.935 31.144 407.675 31.144C408.491 31.144 409.259 30.868 409.799 30.244L409.103 29.584C408.755 30.064 408.287 30.28 407.675 30.28C406.535 30.28 405.779 29.344 405.779 28.192C405.779 27.04 406.415 26.104 407.675 26.104C408.239 26.104 408.695 26.308 409.091 26.788L409.835 26.128ZM410.56 28.192C410.56 29.944 411.832 31.144 413.56 31.144C415.288 31.144 416.56 29.944 416.56 28.192C416.56 26.44 415.288 25.24 413.56 25.24C411.832 25.24 410.56 26.44 410.56 28.192ZM411.568 28.192C411.568 27.016 412.348 26.104 413.56 26.104C414.772 26.104 415.552 27.016 415.552 28.192C415.552 29.368 414.772 30.28 413.56 30.28C412.348 30.28 411.568 29.368 411.568 28.192ZM418.009 31H418.945V28.264C418.945 26.98 419.473 26.104 420.685 26.104C421.561 26.104 421.969 26.692 421.969 27.628V31H422.905V27.532C422.905 26.176 422.245 25.24 420.769 25.24C419.845 25.24 419.149 25.756 418.897 26.308H418.873C418.873 25.996 418.849 25.684 418.849 25.384H417.961C417.961 25.756 418.009 26.2 418.009 26.716V31ZM427.749 25.384H426.093V23.788H425.157V25.384H423.933V26.176H425.157V29.26C425.157 30.424 425.373 31.144 426.705 31.144C427.053 31.144 427.473 31.084 427.797 30.94L427.761 30.088C427.509 30.22 427.209 30.28 426.933 30.28C426.105 30.28 426.093 29.704 426.093 28.984V26.176H427.749V25.384ZM428.98 31H429.916V25.384H428.98V31ZM428.764 23.188C428.764 23.584 429.052 23.872 429.448 23.872C429.844 23.872 430.132 23.584 430.132 23.188C430.132 22.816 429.832 22.504 429.448 22.504C429.064 22.504 428.764 22.816 428.764 23.188ZM431.779 31H432.715V28.264C432.715 26.98 433.243 26.104 434.455 26.104C435.331 26.104 435.739 26.692 435.739 27.628V31H436.675V27.532C436.675 26.176 436.015 25.24 434.539 25.24C433.615 25.24 432.919 25.756 432.667 26.308H432.643C432.643 25.996 432.619 25.684 432.619 25.384H431.731C431.731 25.756 431.779 26.2 431.779 26.716V31ZM443.343 25.384H442.407V28.12C442.407 29.404 441.879 30.28 440.667 30.28C439.791 30.28 439.383 29.692 439.383 28.756V25.384H438.447V28.852C438.447 30.208 439.107 31.144 440.583 31.144C441.507 31.144 442.203 30.628 442.455 30.076H442.479C442.479 30.388 442.503 30.7 442.503 31H443.391C443.391 30.628 443.343 30.184 443.343 29.668V25.384ZM445.199 31H446.135V25.384H445.199V31ZM444.983 23.188C444.983 23.584 445.271 23.872 445.667 23.872C446.063 23.872 446.351 23.584 446.351 23.188C446.351 22.816 446.051 22.504 445.667 22.504C445.283 22.504 444.983 22.816 444.983 23.188ZM447.997 31H448.933V28.264C448.933 26.98 449.461 26.104 450.673 26.104C451.549 26.104 451.957 26.692 451.957 27.628V31H452.893V27.532C452.893 26.176 452.233 25.24 450.757 25.24C449.833 25.24 449.137 25.756 448.885 26.308H448.861C448.861 25.996 448.837 25.684 448.837 25.384H447.949C447.949 25.756 447.997 26.2 447.997 26.716V31ZM460.269 25.384H459.333V26.344H459.309C458.937 25.6 458.085 25.24 457.329 25.24C455.541 25.24 454.341 26.356 454.341 28.192C454.341 29.848 455.565 31.072 457.329 31.072C458.073 31.072 458.865 30.748 459.309 30.028H459.333V30.748C459.333 31.936 458.889 33.016 457.209 33.016C456.345 33.016 455.709 32.68 455.121 32.044L454.449 32.812C455.241 33.592 456.117 33.88 457.209 33.88C459.177 33.88 460.269 32.776 460.269 30.748V25.384ZM455.349 28.192C455.349 27.016 456.153 26.104 457.329 26.104C458.517 26.104 459.333 26.956 459.333 28.168C459.333 29.248 458.613 30.208 457.329 30.208C456.237 30.208 455.349 29.332 455.349 28.192ZM468.413 25.384H466.757V23.788H465.821V25.384H464.597V26.176H465.821V29.26C465.821 30.424 466.037 31.144 467.369 31.144C467.717 31.144 468.137 31.084 468.461 30.94L468.425 30.088C468.173 30.22 467.873 30.28 467.597 30.28C466.769 30.28 466.757 29.704 466.757 28.984V26.176H468.413V25.384ZM469.236 28.192C469.236 29.944 470.508 31.144 472.236 31.144C473.964 31.144 475.236 29.944 475.236 28.192C475.236 26.44 473.964 25.24 472.236 25.24C470.508 25.24 469.236 26.44 469.236 28.192ZM470.244 28.192C470.244 27.016 471.024 26.104 472.236 26.104C473.448 26.104 474.228 27.016 474.228 28.192C474.228 29.368 473.448 30.28 472.236 30.28C471.024 30.28 470.244 29.368 470.244 28.192ZM484.921 25.384H483.985V28.12C483.985 29.404 483.457 30.28 482.245 30.28C481.369 30.28 480.961 29.692 480.961 28.756V25.384H480.025V28.852C480.025 30.208 480.685 31.144 482.161 31.144C483.085 31.144 483.781 30.628 484.033 30.076H484.057C484.057 30.388 484.081 30.7 484.081 31H484.969C484.969 30.628 484.921 30.184 484.921 29.668V25.384ZM486.069 30.1C486.621 30.892 487.305 31.144 488.253 31.144C489.369 31.144 490.497 30.652 490.497 29.38C490.497 28.252 489.657 27.892 488.661 27.7C487.917 27.556 487.245 27.352 487.245 26.884C487.245 26.356 487.833 26.104 488.349 26.104C488.901 26.104 489.297 26.38 489.537 26.776L490.317 26.26C489.933 25.54 489.201 25.24 488.409 25.24C487.365 25.24 486.309 25.804 486.309 26.896C486.309 28.06 487.221 28.288 488.289 28.528C488.889 28.66 489.489 28.816 489.489 29.416C489.489 30.028 488.841 30.28 488.253 30.28C487.593 30.28 487.185 29.98 486.813 29.524L486.069 30.1ZM496.11 29.428C495.666 29.992 495.126 30.28 494.322 30.28C493.302 30.28 492.558 29.452 492.486 28.48H497.022V28.18C497.022 26.32 495.942 25.24 494.358 25.24C492.702 25.24 491.478 26.452 491.478 28.192C491.478 29.824 492.558 31.144 494.322 31.144C495.366 31.144 496.158 30.832 496.818 29.98L496.11 29.428ZM492.486 27.688C492.606 26.74 493.29 26.104 494.322 26.104C495.354 26.104 495.978 26.74 496.014 27.688H492.486ZM37.96 45.384H36.304V43.788H35.368V45.384H34.144V46.176H35.368V49.26C35.368 50.424 35.584 51.144 36.916 51.144C37.264 51.144 37.684 51.084 38.008 50.94L37.972 50.088C37.72 50.22 37.42 50.28 37.144 50.28C36.316 50.28 36.304 49.704 36.304 48.984V46.176H37.96V45.384ZM39.1068 51H40.0428V48.264C40.0428 46.98 40.5708 46.104 41.7828 46.104C42.6588 46.104 43.0668 46.692 43.0668 47.628V51H44.0028V47.532C44.0028 46.176 43.3428 45.24 41.8668 45.24C40.9908 45.24 40.3188 45.72 40.0668 46.164H40.0428V41.928H39.1068V51ZM45.8587 51H46.7947V45.384H45.8587V51ZM45.6427 43.188C45.6427 43.584 45.9307 43.872 46.3267 43.872C46.7227 43.872 47.0107 43.584 47.0107 43.188C47.0107 42.816 46.7107 42.504 46.3267 42.504C45.9427 42.504 45.6427 42.816 45.6427 43.188ZM48.0335 50.1C48.5855 50.892 49.2695 51.144 50.2175 51.144C51.3335 51.144 52.4615 50.652 52.4615 49.38C52.4615 48.252 51.6215 47.892 50.6255 47.7C49.8815 47.556 49.2095 47.352 49.2095 46.884C49.2095 46.356 49.7975 46.104 50.3135 46.104C50.8655 46.104 51.2615 46.38 51.5015 46.776L52.2815 46.26C51.8975 45.54 51.1655 45.24 50.3735 45.24C49.3295 45.24 48.2735 45.804 48.2735 46.896C48.2735 48.06 49.1855 48.288 50.2535 48.528C50.8535 48.66 51.4535 48.816 51.4535 49.416C51.4535 50.028 50.8055 50.28 50.2175 50.28C49.5575 50.28 49.1495 49.98 48.7775 49.524L48.0335 50.1ZM56.4828 50.1C57.0348 50.892 57.7188 51.144 58.6668 51.144C59.7828 51.144 60.9108 50.652 60.9108 49.38C60.9108 48.252 60.0708 47.892 59.0748 47.7C58.3308 47.556 57.6588 47.352 57.6588 46.884C57.6588 46.356 58.2468 46.104 58.7628 46.104C59.3148 46.104 59.7108 46.38 59.9508 46.776L60.7308 46.26C60.3468 45.54 59.6148 45.24 58.8228 45.24C57.7788 45.24 56.7228 45.804 56.7228 46.896C56.7228 48.06 57.6348 48.288 58.7028 48.528C59.3027 48.66 59.9028 48.816 59.9028 49.416C59.9028 50.028 59.2548 50.28 58.6668 50.28C58.0068 50.28 57.5988 49.98 57.2268 49.524L56.4828 50.1ZM62.3001 51H63.2361V45.384H62.3001V51ZM62.0841 43.188C62.0841 43.584 62.3721 43.872 62.7681 43.872C63.1641 43.872 63.4521 43.584 63.4521 43.188C63.4521 42.816 63.1521 42.504 62.7681 42.504C62.3841 42.504 62.0841 42.816 62.0841 43.188ZM68.1709 45.384H66.5149V43.788H65.5789V45.384H64.3549V46.176H65.5789V49.26C65.5789 50.424 65.7949 51.144 67.1269 51.144C67.4749 51.144 67.8949 51.084 68.2189 50.94L68.1829 50.088C67.9309 50.22 67.6309 50.28 67.3549 50.28C66.5269 50.28 66.5149 49.704 66.5149 48.984V46.176H68.1709V45.384ZM73.6257 49.428C73.1817 49.992 72.6417 50.28 71.8377 50.28C70.8177 50.28 70.0737 49.452 70.0017 48.48H74.5377V48.18C74.5377 46.32 73.4577 45.24 71.8737 45.24C70.2177 45.24 68.9937 46.452 68.9937 48.192C68.9937 49.824 70.0737 51.144 71.8377 51.144C72.8817 51.144 73.6737 50.832 74.3337 49.98L73.6257 49.428ZM70.0017 47.688C70.1217 46.74 70.8057 46.104 71.8377 46.104C72.8697 46.104 73.4937 46.74 73.5297 47.688H70.0017ZM77.6297 49.776H76.5377L75.7217 52.656H76.6457L77.6297 49.776ZM87.4413 45.384H86.4213L84.7533 49.788H84.7293L82.9893 45.384H81.8973L84.2253 51.036L83.8413 52.092C83.6373 52.644 83.4093 53.016 82.7973 53.016C82.5333 53.016 82.3293 52.992 82.1373 52.92L82.0173 53.736C82.2693 53.856 82.5933 53.88 82.8573 53.88C83.9853 53.88 84.3573 53.232 84.7293 52.284L87.4413 45.384ZM88.1304 48.192C88.1304 49.944 89.4024 51.144 91.1304 51.144C92.8584 51.144 94.1304 49.944 94.1304 48.192C94.1304 46.44 92.8584 45.24 91.1304 45.24C89.4024 45.24 88.1304 46.44 88.1304 48.192ZM89.1384 48.192C89.1384 47.016 89.9184 46.104 91.1304 46.104C92.3424 46.104 93.1224 47.016 93.1224 48.192C93.1224 49.368 92.3424 50.28 91.1304 50.28C89.9184 50.28 89.1384 49.368 89.1384 48.192ZM100.475 45.384H99.5394V48.12C99.5394 49.404 99.0114 50.28 97.7994 50.28C96.9234 50.28 96.5154 49.692 96.5154 48.756V45.384H95.5794V48.852C95.5794 50.208 96.2394 51.144 97.7154 51.144C98.6394 51.144 99.3354 50.628 99.5874 50.076H99.6114C99.6114 50.388 99.6354 50.7 99.6354 51H100.523C100.523 50.628 100.475 50.184 100.475 49.668V45.384ZM106.103 46.716C106.547 46.308 107.171 46.104 107.771 46.104C108.647 46.104 109.163 46.524 109.163 47.34V47.508H108.803C107.423 47.508 105.263 47.616 105.263 49.476C105.263 50.568 106.211 51.144 107.351 51.144C108.203 51.144 108.827 50.736 109.199 50.16H109.223C109.223 50.4 109.223 50.748 109.283 51H110.183C110.135 50.712 110.099 50.352 110.099 50.028V47.616C110.099 46.032 109.403 45.24 107.747 45.24C106.931 45.24 106.091 45.516 105.515 46.104L106.103 46.716ZM109.163 48.3V48.66C109.139 49.572 108.587 50.352 107.507 50.352C106.799 50.352 106.271 50.088 106.271 49.38C106.271 48.624 107.039 48.3 108.227 48.3H109.163ZM117.414 45.384H116.478V46.344H116.454C116.082 45.6 115.23 45.24 114.474 45.24C112.686 45.24 111.486 46.356 111.486 48.192C111.486 49.848 112.71 51.072 114.474 51.072C115.218 51.072 116.01 50.748 116.454 50.028H116.478V50.748C116.478 51.936 116.034 53.016 114.354 53.016C113.49 53.016 112.854 52.68 112.266 52.044L111.594 52.812C112.386 53.592 113.262 53.88 114.354 53.88C116.322 53.88 117.414 52.776 117.414 50.748V45.384ZM112.494 48.192C112.494 47.016 113.298 46.104 114.474 46.104C115.662 46.104 116.478 46.956 116.478 48.168C116.478 49.248 115.758 50.208 114.474 50.208C113.382 50.208 112.494 49.332 112.494 48.192ZM119.146 51H120.082V48.264C120.082 46.98 120.586 46.176 121.726 46.176C121.894 46.176 122.074 46.2 122.23 46.248L122.29 45.3C122.158 45.252 122.026 45.24 121.906 45.24C120.982 45.24 120.286 45.756 120.034 46.308H120.01C120.01 45.996 119.986 45.684 119.986 45.384H119.098C119.098 45.756 119.146 46.2 119.146 46.716V51ZM127.462 49.428C127.018 49.992 126.478 50.28 125.674 50.28C124.654 50.28 123.91 49.452 123.838 48.48H128.374V48.18C128.374 46.32 127.294 45.24 125.71 45.24C124.054 45.24 122.83 46.452 122.83 48.192C122.83 49.824 123.91 51.144 125.674 51.144C126.718 51.144 127.51 50.832 128.17 49.98L127.462 49.428ZM123.838 47.688C123.958 46.74 124.642 46.104 125.674 46.104C126.706 46.104 127.33 46.74 127.366 47.688H123.838ZM134.13 49.428C133.686 49.992 133.146 50.28 132.342 50.28C131.322 50.28 130.578 49.452 130.506 48.48H135.042V48.18C135.042 46.32 133.962 45.24 132.378 45.24C130.722 45.24 129.498 46.452 129.498 48.192C129.498 49.824 130.578 51.144 132.342 51.144C133.386 51.144 134.178 50.832 134.838 49.98L134.13 49.428ZM130.506 47.688C130.626 46.74 131.31 46.104 132.342 46.104C133.374 46.104 133.998 46.74 134.034 47.688H130.506ZM142.901 45.384H141.245V43.788H140.309V45.384H139.085V46.176H140.309V49.26C140.309 50.424 140.525 51.144 141.857 51.144C142.205 51.144 142.625 51.084 142.949 50.94L142.913 50.088C142.661 50.22 142.361 50.28 142.085 50.28C141.257 50.28 141.245 49.704 141.245 48.984V46.176H142.901V45.384ZM143.724 48.192C143.724 49.944 144.996 51.144 146.724 51.144C148.452 51.144 149.724 49.944 149.724 48.192C149.724 46.44 148.452 45.24 146.724 45.24C144.996 45.24 143.724 46.44 143.724 48.192ZM144.732 48.192C144.732 47.016 145.512 46.104 146.724 46.104C147.936 46.104 148.716 47.016 148.716 48.192C148.716 49.368 147.936 50.28 146.724 50.28C145.512 50.28 144.732 49.368 144.732 48.192ZM154.189 48.192C154.189 49.944 155.461 51.144 157.189 51.144C158.917 51.144 160.189 49.944 160.189 48.192C160.189 46.44 158.917 45.24 157.189 45.24C155.461 45.24 154.189 46.44 154.189 48.192ZM155.197 48.192C155.197 47.016 155.977 46.104 157.189 46.104C158.401 46.104 159.181 47.016 159.181 48.192C159.181 49.368 158.401 50.28 157.189 50.28C155.977 50.28 155.197 49.368 155.197 48.192ZM166.534 45.384H165.598V48.12C165.598 49.404 165.07 50.28 163.858 50.28C162.982 50.28 162.574 49.692 162.574 48.756V45.384H161.638V48.852C161.638 50.208 162.298 51.144 163.774 51.144C164.698 51.144 165.394 50.628 165.646 50.076H165.67C165.67 50.388 165.694 50.7 165.694 51H166.582C166.582 50.628 166.534 50.184 166.534 49.668V45.384ZM168.306 51H169.242V48.264C169.242 46.98 169.746 46.176 170.886 46.176C171.054 46.176 171.234 46.2 171.39 46.248L171.45 45.3C171.318 45.252 171.186 45.24 171.066 45.24C170.142 45.24 169.446 45.756 169.194 46.308H169.17C169.17 45.996 169.146 45.684 169.146 45.384H168.258C168.258 45.756 168.306 46.2 168.306 46.716V51Z" fill="white"/>
<path d="M180.605 46.128C180.041 45.516 179.273 45.24 178.445 45.24C176.717 45.24 175.541 46.488 175.541 48.192C175.541 49.92 176.705 51.144 178.445 51.144C179.261 51.144 180.029 50.868 180.569 50.244L179.873 49.584C179.525 50.064 179.057 50.28 178.445 50.28C177.305 50.28 176.549 49.344 176.549 48.192C176.549 47.04 177.185 46.104 178.445 46.104C179.009 46.104 179.465 46.308 179.861 46.788L180.605 46.128ZM181.33 48.192C181.33 49.944 182.602 51.144 184.33 51.144C186.058 51.144 187.33 49.944 187.33 48.192C187.33 46.44 186.058 45.24 184.33 45.24C182.602 45.24 181.33 46.44 181.33 48.192ZM182.338 48.192C182.338 47.016 183.118 46.104 184.33 46.104C185.542 46.104 186.322 47.016 186.322 48.192C186.322 49.368 185.542 50.28 184.33 50.28C183.118 50.28 182.338 49.368 182.338 48.192ZM188.455 48.192C188.455 49.944 189.727 51.144 191.455 51.144C193.183 51.144 194.455 49.944 194.455 48.192C194.455 46.44 193.183 45.24 191.455 45.24C189.727 45.24 188.455 46.44 188.455 48.192ZM189.463 48.192C189.463 47.016 190.243 46.104 191.455 46.104C192.667 46.104 193.447 47.016 193.447 48.192C193.447 49.368 192.667 50.28 191.455 50.28C190.243 50.28 189.463 49.368 189.463 48.192ZM195.904 51H196.84V48.048L199.624 51H201.004L198.016 47.94L200.728 45.384H199.396L196.84 47.856V41.928H195.904V51ZM201.988 51H202.924V45.384H201.988V51ZM201.772 43.188C201.772 43.584 202.06 43.872 202.456 43.872C202.852 43.872 203.14 43.584 203.14 43.188C203.14 42.816 202.84 42.504 202.456 42.504C202.072 42.504 201.772 42.816 201.772 43.188ZM209.094 49.428C208.65 49.992 208.11 50.28 207.306 50.28C206.286 50.28 205.542 49.452 205.47 48.48H210.006V48.18C210.006 46.32 208.926 45.24 207.342 45.24C205.686 45.24 204.462 46.452 204.462 48.192C204.462 49.824 205.542 51.144 207.306 51.144C208.35 51.144 209.142 50.832 209.802 49.98L209.094 49.428ZM205.47 47.688C205.59 46.74 206.274 46.104 207.306 46.104C208.338 46.104 208.962 46.74 208.998 47.688H205.47ZM214.746 53.736H215.682V50.004H215.706C216.054 50.64 216.858 51.144 217.866 51.144C219.438 51.144 220.674 49.872 220.674 48.192C220.674 46.488 219.486 45.24 217.722 45.24C216.906 45.24 216.222 45.6 215.706 46.2H215.682V45.384H214.746V53.736ZM215.682 48.192C215.682 47.016 216.462 46.104 217.674 46.104C218.886 46.104 219.666 47.016 219.666 48.192C219.666 49.368 218.886 50.28 217.674 50.28C216.462 50.28 215.682 49.368 215.682 48.192ZM221.806 48.192C221.806 49.944 223.078 51.144 224.806 51.144C226.534 51.144 227.806 49.944 227.806 48.192C227.806 46.44 226.534 45.24 224.806 45.24C223.078 45.24 221.806 46.44 221.806 48.192ZM222.814 48.192C222.814 47.016 223.594 46.104 224.806 46.104C226.018 46.104 226.798 47.016 226.798 48.192C226.798 49.368 226.018 50.28 224.806 50.28C223.594 50.28 222.814 49.368 222.814 48.192ZM229.339 51H230.275V41.928H229.339V51ZM232.222 51H233.158V45.384H232.222V51ZM232.006 43.188C232.006 43.584 232.294 43.872 232.69 43.872C233.086 43.872 233.374 43.584 233.374 43.188C233.374 42.816 233.074 42.504 232.69 42.504C232.306 42.504 232.006 42.816 232.006 43.188ZM239.761 46.128C239.197 45.516 238.429 45.24 237.601 45.24C235.873 45.24 234.697 46.488 234.697 48.192C234.697 49.92 235.861 51.144 237.601 51.144C238.417 51.144 239.185 50.868 239.725 50.244L239.029 49.584C238.681 50.064 238.213 50.28 237.601 50.28C236.461 50.28 235.705 49.344 235.705 48.192C235.705 47.04 236.341 46.104 237.601 46.104C238.165 46.104 238.621 46.308 239.017 46.788L239.761 46.128ZM245.586 45.384H244.566L242.898 49.788H242.874L241.134 45.384H240.042L242.37 51.036L241.986 52.092C241.782 52.644 241.554 53.016 240.942 53.016C240.678 53.016 240.474 52.992 240.282 52.92L240.162 53.736C240.414 53.856 240.738 53.88 241.002 53.88C242.13 53.88 242.502 53.232 242.874 52.284L245.586 45.384ZM246.488 49.632C246.092 49.632 245.768 49.956 245.768 50.352C245.768 50.748 246.116 51.072 246.488 51.072C246.86 51.072 247.208 50.748 247.208 50.352C247.208 49.956 246.884 49.632 246.488 49.632Z" fill="#E6842E"/>
<rect x="513" y="24" width="49" height="28" rx="8" fill="white"/>
<path d="M528.004 41.216C530.584 41.216 532.444 39.32 532.444 36.752C532.444 34.184 530.584 32.288 528.004 32.288C525.424 32.288 523.564 34.184 523.564 36.752C523.564 39.32 525.424 41.216 528.004 41.216ZM528.004 40.28C526.012 40.28 524.644 38.708 524.644 36.752C524.644 34.796 526.012 33.224 528.004 33.224C529.996 33.224 531.364 34.796 531.364 36.752C531.364 38.708 529.996 40.28 528.004 40.28ZM533.896 41H534.832V38.048L537.616 41H538.996L536.008 37.94L538.72 35.384H537.388L534.832 37.856V31.928H533.896V41ZM540.412 36.716C540.856 36.308 541.48 36.104 542.08 36.104C542.956 36.104 543.472 36.524 543.472 37.34V37.508H543.112C541.732 37.508 539.572 37.616 539.572 39.476C539.572 40.568 540.52 41.144 541.66 41.144C542.512 41.144 543.136 40.736 543.508 40.16H543.532C543.532 40.4 543.532 40.748 543.592 41H544.492C544.444 40.712 544.408 40.352 544.408 40.028V37.616C544.408 36.032 543.712 35.24 542.056 35.24C541.24 35.24 540.4 35.516 539.824 36.104L540.412 36.716ZM543.472 38.3V38.66C543.448 39.572 542.896 40.352 541.816 40.352C541.108 40.352 540.58 40.088 540.58 39.38C540.58 38.624 541.348 38.3 542.536 38.3H543.472ZM550.894 35.384H549.874L548.206 39.788H548.182L546.442 35.384H545.35L547.678 41.036L547.294 42.092C547.09 42.644 546.862 43.016 546.25 43.016C545.986 43.016 545.782 42.992 545.59 42.92L545.47 43.736C545.722 43.856 546.046 43.88 546.31 43.88C547.438 43.88 547.81 43.232 548.182 42.284L550.894 35.384Z" fill="#26262B"/>
</g>
<defs>
<filter id="filter0_dd_23_540" x="0" y="0" width="596" height="100" filterUnits="userSpaceOnUse" color-interpolation-filters="sRGB">
<feFlood flood-opacity="0" result="BackgroundImageFix"/>
<feColorMatrix in="SourceAlpha" type="matrix" values="0 0 0 0 0 0 0 0 0 0 0 0 0 0 0 0 0 0 127 0" result="hardAlpha"/>
<feOffset/>
<feGaussianBlur stdDeviation="0.5"/>
<feColorMatrix type="matrix" values="0 0 0 0 0.376471 0 0 0 0 0.376471 0 0 0 0 0.376471 0 0 0 0.1 0"/>
<feBlend mode="normal" in2="BackgroundImageFix" result="effect1_dropShadow_23_540"/>
<feColorMatrix in="SourceAlpha" type="matrix" values="0 0 0 0 0 0 0 0 0 0 0 0 0 0 0 0 0 0 127 0" result="hardAlpha"/>
<feMorphology radius="6" operator="erode" in="SourceAlpha" result="effect2_dropShadow_23_540"/>
<feOffset dy="12"/>
<feGaussianBlur stdDeviation="12"/>
<feColorMatrix type="matrix" values="0 0 0 0 0.376471 0 0 0 0 0.376471 0 0 0 0 0.376471 0 0 0 0.15 0"/>
<feBlend mode="normal" in2="effect1_dropShadow_23_540" result="effect2_dropShadow_23_540"/>
<feBlend mode="normal" in="SourceGraphic" in2="effect2_dropShadow_23_540" result="shape"/>
</filter>
</defs>
</svg>
